;TYPE=PLATED
;Layer: PTH_Through
;EasyEDA Pro v2.2.43.4, 2025-10-30 16:07:05
;Gerber Generator version 0.3
M48
METRIC,LZ,0000.00000
;Hole size 1 = 0.30500 METRIC
T01C0.30500
;Hole size 2 = 0.76200 METRIC
T02C0.76200
;Hole size 3 = 1.00000 METRIC
T03C1.00000
;Hole size 4 = 2.70000 METRIC
T04C2.70000
%
G05
G90
T01
X2.25Y21.0
X43.5Y13.49987
X43.5Y21.74988
X19.77067Y1.27
X23.0Y1.27
X26.5Y1.27
X29.75Y1.25
X9.293Y8.75
X30.75Y19.75
X33.25Y36.75
X27.5Y30.25006
X22.50001Y24.45001
X14.5Y23.00001
X24.30001Y24.50001
X16.50001Y25.30002
X12.25Y24.5
X12.75Y30.85166
X20.28742Y33.26172
X21.22172Y32.32743
X24.378Y33.105
X23.66213Y32.44602
X29.75001Y32.89834
X12.25Y23.57995
X33.8426Y21.75026
X2.32462Y13.49199
X33.75Y13.5
X12.5Y15.5
X5.53654Y10.61654
X5.53654Y15.69654
X5.53654Y25.85654
X15.69654Y15.69654
X15.69654Y20.77654
X20.77654Y36.01654
X25.85654Y41.09654
X30.93654Y10.61654
X30.93654Y15.69654
X30.93654Y25.85654
X36.01654Y10.61654
X36.01654Y25.85654
X36.01654Y30.93654
X41.09654Y10.61654
X41.09654Y15.69654
X41.09654Y20.77654
X41.09654Y25.85654
X41.09654Y30.93654
X18.25Y30.75
X18.25Y20.25
T02
X18.27Y15.29
X15.73Y12.75
X18.27Y10.21
X26.98Y10.21
X29.52Y12.75
X26.98Y15.29
T03
X11.49994Y31.85166G85X11.49994Y29.35166
X5.50001Y29.45168G85X5.50001Y31.75165
X9.64973Y25.89834G85X7.34976Y25.89834
X33.25006Y29.39834G85X33.25006Y31.89834
X39.25Y31.79833G85X39.25Y29.49836
X35.10027Y35.35166G85X37.40024Y35.35166
T04
X5.0Y5.0
X5.0Y40.0
X40.0Y40.0
X40.0Y5.0
M30