G04 Layer: TopLayer*
G04 EasyEDA Pro v2.2.43.2, 2025-10-20 22:01:10*
G04 Gerber Generator version 0.3*
G04 Scale: 100 percent, Rotated: No, Reflected: No*
G04 Dimensions in millimeters*
G04 Leading zeros omitted, absolute positions, 4 integers and 5 decimals*
G04 Generated by one-click*
%FSLAX45Y45*%
%MOMM*%
%ADD10C,0.2032*%
%ADD11C,0.3*%
%ADD12C,0.4*%
%ADD13R,1.41X1.35001*%
%ADD14R,3.49999X1.2*%
%ADD15R,1.35001X1.41*%
%ADD16O,1.8X4.19999*%
%ADD17O,1.8X3.99999*%
%ADD18O,3.99999X1.8*%
%ADD19R,1.4072X5.49999*%
%ADD20R,1.4X5.49999*%
%ADD21R,0.6X0.25001*%
%ADD22R,0.25001X0.65001*%
%ADD23R,0.25001X0.6*%
%ADD24R,0.25001X3.39999*%
%ADD25R,0.33X3.39999*%
%ADD26C,7.5*%
%ADD27R,1.37701X1.13254*%
%ADD28R,1.13254X1.37701*%
%ADD29R,0.8X0.9*%
%ADD30R,0.80648X0.86401*%
%ADD31C,0.61*%
%ADD32C,1.0*%
%ADD33C,0.5*%
%ADD34C,0.7*%
%ADD35C,0.254*%
%ADD36C,1.8*%
%ADD37C,0.33*%
%ADD38C,1.2*%
G75*


G04 Copper Start*
G36*
G01X941430Y2017397D02*
G01X941430Y2464020D01*
G01X959974Y2464020D01*
G01X981822Y2465932D01*
G01X1003005Y2471608D01*
G01X1022881Y2480876D01*
G01X1040846Y2493455D01*
G01X1056353Y2508963D01*
G01X1068932Y2526927D01*
G01X1078201Y2546803D01*
G01X1083877Y2567987D01*
G01X1085788Y2589834D01*
G01X1083877Y2611682D01*
G01X1078201Y2632865D01*
G01X1068932Y2652741D01*
G01X1056353Y2670706D01*
G01X1040846Y2686213D01*
G01X1022881Y2698792D01*
G01X1003005Y2708061D01*
G01X981822Y2713737D01*
G01X959974Y2715648D01*
G01X941430Y2715648D01*
G01X941430Y3180166D01*
G01X1024186Y3180166D01*
G01X1024186Y2940166D01*
G01X1026097Y2918319D01*
G01X1031773Y2897135D01*
G01X1041042Y2877259D01*
G01X1053621Y2859295D01*
G01X1069128Y2843787D01*
G01X1087093Y2831208D01*
G01X1106969Y2821940D01*
G01X1128152Y2816264D01*
G01X1149999Y2814352D01*
G01X1171847Y2816264D01*
G01X1193030Y2821940D01*
G01X1212906Y2831208D01*
G01X1230871Y2843787D01*
G01X1246378Y2859295D01*
G01X1258957Y2877259D01*
G01X1268226Y2897135D01*
G01X1273902Y2918319D01*
G01X1275813Y2940166D01*
G01X1275813Y3180166D01*
G01X1273902Y3202013D01*
G01X1268226Y3223197D01*
G01X1258957Y3243073D01*
G01X1246378Y3261037D01*
G01X1230871Y3276545D01*
G01X1212906Y3289124D01*
G01X1193030Y3298392D01*
G01X1171847Y3304068D01*
G01X1149999Y3305980D01*
G01X1128152Y3304068D01*
G01X1106969Y3298392D01*
G01X1087093Y3289124D01*
G01X1069128Y3276545D01*
G01X1053621Y3261037D01*
G01X1041042Y3243073D01*
G01X1031773Y3223197D01*
G01X1026097Y3202013D01*
G01X1024186Y3180166D01*
G01X1024186Y3180166D01*
G01X941430Y3180166D01*
G01X941430Y3489843D01*
G01X1591551Y3489843D01*
G01X1601486Y3479908D01*
G01X1601486Y3271661D01*
G01X1589342Y3271661D01*
G01X1578275Y3269908D01*
G01X1568291Y3264821D01*
G01X1560368Y3256898D01*
G01X1555281Y3246914D01*
G01X1553528Y3235847D01*
G01X1553528Y3098146D01*
G01X1555073Y3087740D01*
G01X1559575Y3078232D01*
G01X1566646Y3070442D01*
G01X1575674Y3065043D01*
G01X1440808Y2930176D01*
G01X1434195Y2926453D01*
G01X1428515Y2921421D01*
G01X1428514Y2945918D01*
G01X1484305Y3001708D01*
G01X1492015Y3011756D01*
G01X1496861Y3023457D01*
G01X1498514Y3036013D01*
G01X1498514Y3062332D01*
G01X1502596Y3062332D01*
G01X1513663Y3064085D01*
G01X1523647Y3069172D01*
G01X1531570Y3077095D01*
G01X1536657Y3087079D01*
G01X1538410Y3098146D01*
G01X1538410Y3235847D01*
G01X1536657Y3246914D01*
G01X1531570Y3256898D01*
G01X1523647Y3264821D01*
G01X1513663Y3269908D01*
G01X1502596Y3271661D01*
G01X1389343Y3271661D01*
G01X1378276Y3269908D01*
G01X1368292Y3264821D01*
G01X1360369Y3256898D01*
G01X1355282Y3246914D01*
G01X1353529Y3235847D01*
G01X1353529Y3098146D01*
G01X1355282Y3087079D01*
G01X1360369Y3077095D01*
G01X1368292Y3069172D01*
G01X1378276Y3064085D01*
G01X1389343Y3062332D01*
G01X1401486Y3062332D01*
G01X1401486Y3056108D01*
G01X1345696Y3000318D01*
G01X1337986Y2990270D01*
G01X1333140Y2978570D01*
G01X1331486Y2966013D01*
G01X1331487Y2775401D01*
G01X1333140Y2762845D01*
G01X1337986Y2751144D01*
G01X1345696Y2741097D01*
G01X1347620Y2739173D01*
G01X1347620Y2017397D01*
G01X941430Y2017397D01*
G37*
G36*
G01X1945813Y3385458D02*
G01X1957277Y3400902D01*
G01X1965425Y3418324D01*
G01X1969930Y3437022D01*
G01X2143698Y3264807D01*
G01X2143698Y3126546D01*
G01X2142515Y3131172D01*
G01X2142515Y3151748D01*
G01X2140732Y3165288D01*
G01X2135506Y3177905D01*
G01X2127192Y3188739D01*
G01X1945813Y3370119D01*
G01X1945813Y3385458D01*
G37*
G36*
G01X2181849Y2535160D02*
G01X2073769Y2535160D01*
G01X2130317Y2591708D01*
G01X2138027Y2601756D01*
G01X2142873Y2613457D01*
G01X2144527Y2626013D01*
G01X2144527Y2810000D01*
G01X2144327Y2814394D01*
G01X2144327Y2840000D01*
G01X2142574Y2851068D01*
G01X2137487Y2861051D01*
G01X2129564Y2868975D01*
G01X2119580Y2874062D01*
G01X2108513Y2875814D01*
G01X2083512Y2875814D01*
G01X2077567Y2875317D01*
G01X2075814Y2876351D01*
G01X2075814Y2887495D01*
G01X2075246Y2893848D01*
G01X2073560Y2900000D01*
G01X2075246Y2906152D01*
G01X2075814Y2912506D01*
G01X2075814Y2937507D01*
G01X2075248Y2943854D01*
G01X2073565Y2950000D01*
G01X2075248Y2956146D01*
G01X2075814Y2962493D01*
G01X2075814Y2987494D01*
G01X2075246Y2993848D01*
G01X2073560Y3000000D01*
G01X2075246Y3006152D01*
G01X2075814Y3012506D01*
G01X2075814Y3023649D01*
G01X2077561Y3024680D01*
G01X2083487Y3024186D01*
G01X2108488Y3024186D01*
G01X2118295Y3025555D01*
G01X2127353Y3029558D01*
G01X2134969Y3035888D01*
G01X2140560Y3044061D01*
G01X2143698Y3053454D01*
G01X2143698Y2950000D01*
G01X2144708Y2939772D01*
G01X2147698Y2929939D01*
G01X2147698Y2780001D01*
G01X2149060Y2770216D01*
G01X2153044Y2761176D01*
G01X2159346Y2753568D01*
G01X2167487Y2747972D01*
G01X2176847Y2744812D01*
G01X2181849Y2535160D01*
G37*
G36*
G01X1946024Y3525441D02*
G01X1938462Y3531167D01*
G01X1929662Y3534707D01*
G01X1862715Y3601654D01*
G01X2011340Y3601654D01*
G01X2013267Y3585784D01*
G01X2018936Y3570836D01*
G01X2028017Y3557680D01*
G01X2039983Y3547079D01*
G01X2054139Y3539649D01*
G01X2069661Y3535823D01*
G01X2085647Y3535823D01*
G01X2101169Y3539649D01*
G01X2115325Y3547079D01*
G01X2127291Y3557680D01*
G01X2136372Y3570836D01*
G01X2142041Y3585784D01*
G01X2143968Y3601654D01*
G01X2142041Y3617524D01*
G01X2136372Y3632472D01*
G01X2127291Y3645628D01*
G01X2115325Y3656229D01*
G01X2101169Y3663659D01*
G01X2085647Y3667485D01*
G01X2069661Y3667485D01*
G01X2054139Y3663659D01*
G01X2039983Y3656229D01*
G01X2028017Y3645628D01*
G01X2018936Y3632472D01*
G01X2013267Y3617524D01*
G01X2011340Y3601654D01*
G01X2011340Y3601654D01*
G01X1862715Y3601654D01*
G01X1385160Y4079209D01*
G01X1385160Y4100000D01*
G01X1384409Y4103835D01*
G01X1384409Y4276293D01*
G01X2229972Y4265171D01*
G01X2239840Y3519052D01*
G01X2239840Y3224529D01*
G01X2210317Y3254052D01*
G01X2206793Y3264581D01*
G01X2200213Y3273525D01*
G01X1946024Y3525441D01*
G37*
G36*
G01X40654Y4130000D02*
G01X42458Y4164426D01*
G01X47851Y4198475D01*
G01X56773Y4231773D01*
G01X69127Y4263957D01*
G01X84778Y4294673D01*
G01X103553Y4323585D01*
G01X125248Y4350375D01*
G01X149624Y4374752D01*
G01X176415Y4396446D01*
G01X205327Y4415222D01*
G01X236043Y4430872D01*
G01X268226Y4443227D01*
G01X301525Y4452149D01*
G01X335574Y4457542D01*
G01X370000Y4459346D01*
G01X4130000Y4459346D01*
G01X4164426Y4457542D01*
G01X4198475Y4452149D01*
G01X4231773Y4443227D01*
G01X4263957Y4430872D01*
G01X4294673Y4415222D01*
G01X4323585Y4396446D01*
G01X4350375Y4374752D01*
G01X4374752Y4350375D01*
G01X4396446Y4323585D01*
G01X4415222Y4294673D01*
G01X4430872Y4263957D01*
G01X4443227Y4231773D01*
G01X4452149Y4198475D01*
G01X4457542Y4164426D01*
G01X4459346Y4130000D01*
G01X4459346Y370000D01*
G01X4457542Y335574D01*
G01X4452149Y301525D01*
G01X4443227Y268226D01*
G01X4430872Y236043D01*
G01X4415222Y205327D01*
G01X4396446Y176415D01*
G01X4374752Y149624D01*
G01X4350375Y125248D01*
G01X4323585Y103553D01*
G01X4294673Y84778D01*
G01X4263957Y69127D01*
G01X4231773Y56773D01*
G01X4198475Y47851D01*
G01X4164426Y42458D01*
G01X4130000Y40654D01*
G01X370000Y40654D01*
G01X335574Y42458D01*
G01X301525Y47851D01*
G01X268226Y56773D01*
G01X236043Y69127D01*
G01X205327Y84778D01*
G01X176415Y103553D01*
G01X149624Y125248D01*
G01X125248Y149624D01*
G01X103553Y176415D01*
G01X84778Y205327D01*
G01X69127Y236043D01*
G01X56773Y268226D01*
G01X47851Y301525D01*
G01X42458Y335574D01*
G01X40654Y370000D01*
G01X40654Y500000D01*
G01X84346Y500000D01*
G01X86348Y459259D01*
G01X92333Y418910D01*
G01X102244Y379342D01*
G01X115986Y340936D01*
G01X133426Y304062D01*
G01X154396Y269075D01*
G01X178695Y236312D01*
G01X206088Y206088D01*
G01X236312Y178695D01*
G01X269075Y154396D01*
G01X304062Y133426D01*
G01X340936Y115986D01*
G01X379342Y102244D01*
G01X418910Y92333D01*
G01X459259Y86348D01*
G01X500000Y84346D01*
G01X540741Y86348D01*
G01X581090Y92333D01*
G01X620658Y102244D01*
G01X659064Y115986D01*
G01X695938Y133426D01*
G01X730925Y154396D01*
G01X763688Y178695D01*
G01X793912Y206088D01*
G01X821305Y236312D01*
G01X845604Y269075D01*
G01X866574Y304062D01*
G01X884014Y340936D01*
G01X897756Y379342D01*
G01X907667Y418910D01*
G01X913653Y459259D01*
G01X915654Y500000D01*
G01X913653Y540741D01*
G01X907667Y581090D01*
G01X897756Y620658D01*
G01X884014Y659064D01*
G01X866574Y695938D01*
G01X845604Y730925D01*
G01X821305Y763688D01*
G01X793912Y793912D01*
G01X763688Y821305D01*
G01X730925Y845604D01*
G01X695938Y866574D01*
G01X659064Y884014D01*
G01X620658Y897756D01*
G01X581090Y907667D01*
G01X540741Y913653D01*
G01X500000Y915654D01*
G01X459259Y913653D01*
G01X418910Y907667D01*
G01X379342Y897756D01*
G01X340936Y884014D01*
G01X304062Y866574D01*
G01X269075Y845604D01*
G01X236312Y821305D01*
G01X206088Y793912D01*
G01X178695Y763688D01*
G01X154396Y730925D01*
G01X133426Y695938D01*
G01X115986Y659064D01*
G01X102244Y620658D01*
G01X92333Y581090D01*
G01X86348Y540741D01*
G01X84346Y500000D01*
G01X84346Y500000D01*
G01X40654Y500000D01*
G01X40654Y2589834D01*
G01X609321Y2589834D01*
G01X611306Y2567146D01*
G01X617200Y2545148D01*
G01X626825Y2524507D01*
G01X639888Y2505852D01*
G01X655992Y2489748D01*
G01X674648Y2476685D01*
G01X695289Y2467060D01*
G01X717287Y2461165D01*
G01X739975Y2459181D01*
G01X890616Y2459181D01*
G01X890616Y2200667D01*
G01X816998Y2200667D01*
G01X804435Y2198677D01*
G01X793102Y2192902D01*
G01X784108Y2183909D01*
G01X778333Y2172575D01*
G01X776344Y2160013D01*
G01X776344Y2040013D01*
G01X778333Y2027450D01*
G01X784108Y2016117D01*
G01X793102Y2007123D01*
G01X804435Y2001349D01*
G01X816998Y1999359D01*
G01X891387Y1999359D01*
G01X895010Y1988853D01*
G01X901343Y1979721D01*
G01X901343Y1979721D01*
G01X901343Y1450667D01*
G01X816998Y1450667D01*
G01X804435Y1448677D01*
G01X793102Y1442902D01*
G01X784108Y1433908D01*
G01X778333Y1422575D01*
G01X776344Y1410013D01*
G01X776344Y1290013D01*
G01X778333Y1277450D01*
G01X784108Y1266117D01*
G01X793102Y1257123D01*
G01X804435Y1251349D01*
G01X816998Y1249359D01*
G01X985660Y1249359D01*
G01X1259346Y975673D01*
G01X1259346Y967469D01*
G01X1255787Y967469D01*
G01X1243225Y965480D01*
G01X1231892Y959705D01*
G01X1222898Y950711D01*
G01X1217123Y939378D01*
G01X1215133Y926816D01*
G01X1215133Y791815D01*
G01X1217123Y779252D01*
G01X1222898Y767919D01*
G01X1231892Y758925D01*
G01X1243225Y753150D01*
G01X1255787Y751161D01*
G01X1259346Y751161D01*
G01X1259346Y658154D01*
G01X1254500Y658154D01*
G01X1241937Y656165D01*
G01X1230604Y650390D01*
G01X1221610Y641396D01*
G01X1215835Y630063D01*
G01X1213846Y617500D01*
G01X1213846Y482499D01*
G01X1215835Y469937D01*
G01X1221610Y458604D01*
G01X1230604Y449610D01*
G01X1241937Y443835D01*
G01X1254500Y441845D01*
G01X1395500Y441845D01*
G01X1408063Y443835D01*
G01X1419396Y449610D01*
G01X1428390Y458604D01*
G01X1434164Y469937D01*
G01X1436154Y482499D01*
G01X1436154Y500000D01*
G01X3584346Y500000D01*
G01X3586348Y459259D01*
G01X3592333Y418910D01*
G01X3602244Y379342D01*
G01X3615986Y340936D01*
G01X3633426Y304062D01*
G01X3654396Y269075D01*
G01X3678695Y236312D01*
G01X3706088Y206088D01*
G01X3736312Y178695D01*
G01X3769075Y154396D01*
G01X3804062Y133426D01*
G01X3840936Y115986D01*
G01X3879342Y102244D01*
G01X3918910Y92333D01*
G01X3959259Y86348D01*
G01X4000000Y84346D01*
G01X4040741Y86348D01*
G01X4081090Y92333D01*
G01X4120658Y102244D01*
G01X4159064Y115986D01*
G01X4195938Y133426D01*
G01X4230925Y154396D01*
G01X4263688Y178695D01*
G01X4293912Y206088D01*
G01X4321305Y236312D01*
G01X4345604Y269075D01*
G01X4366574Y304062D01*
G01X4384014Y340936D01*
G01X4397756Y379342D01*
G01X4407667Y418910D01*
G01X4413653Y459259D01*
G01X4415654Y500000D01*
G01X4413653Y540741D01*
G01X4407667Y581090D01*
G01X4397756Y620658D01*
G01X4384014Y659064D01*
G01X4366574Y695938D01*
G01X4345604Y730925D01*
G01X4321305Y763688D01*
G01X4293912Y793912D01*
G01X4263688Y821305D01*
G01X4230925Y845604D01*
G01X4195938Y866574D01*
G01X4159064Y884014D01*
G01X4120658Y897756D01*
G01X4081090Y907667D01*
G01X4040741Y913653D01*
G01X4000000Y915654D01*
G01X3959259Y913653D01*
G01X3918910Y907667D01*
G01X3879342Y897756D01*
G01X3840936Y884014D01*
G01X3804062Y866574D01*
G01X3769075Y845604D01*
G01X3736312Y821305D01*
G01X3706088Y793912D01*
G01X3678695Y763688D01*
G01X3654396Y730925D01*
G01X3633426Y695938D01*
G01X3615986Y659064D01*
G01X3602244Y620658D01*
G01X3592333Y581090D01*
G01X3586348Y540741D01*
G01X3584346Y500000D01*
G01X3584346Y500000D01*
G01X1436154Y500000D01*
G01X1436154Y617500D01*
G01X1434164Y630063D01*
G01X1428390Y641396D01*
G01X1419396Y650390D01*
G01X1408063Y656165D01*
G01X1395500Y658154D01*
G01X1390654Y658154D01*
G01X1390654Y751161D01*
G01X1396788Y751161D01*
G01X1409351Y753150D01*
G01X1420684Y758925D01*
G01X1429678Y767919D01*
G01X1435452Y779252D01*
G01X1437442Y791815D01*
G01X1437442Y926816D01*
G01X1435452Y939378D01*
G01X1429678Y950711D01*
G01X1420684Y959705D01*
G01X1409351Y965480D01*
G01X1396788Y967469D01*
G01X1390654Y967469D01*
G01X1390654Y979419D01*
G01X1397221Y994477D01*
G01X1400382Y1010597D01*
G01X1399989Y1027020D01*
G01X1396061Y1042970D01*
G01X1388782Y1057697D01*
G01X1378496Y1070505D01*
G01X1191459Y1257542D01*
G01X1200160Y1266499D01*
G01X1205733Y1277674D01*
G01X1207651Y1290013D01*
G01X1207651Y1379447D01*
G01X1314102Y1485898D01*
G01X1326029Y1500626D01*
G01X1334633Y1517512D01*
G01X1339538Y1535818D01*
G01X1340530Y1554744D01*
G01X1337565Y1573463D01*
G01X1330773Y1591156D01*
G01X1320451Y1607050D01*
G01X1307050Y1620451D01*
G01X1291156Y1630773D01*
G01X1273463Y1637565D01*
G01X1254745Y1640530D01*
G01X1235819Y1639538D01*
G01X1217513Y1634633D01*
G01X1200626Y1626029D01*
G01X1185898Y1614102D01*
G01X1082651Y1510855D01*
G01X1082651Y1966583D01*
G01X1357780Y1966583D01*
G01X1367656Y1967801D01*
G01X1376940Y1971382D01*
G01X1385077Y1977111D01*
G01X1568043Y1794145D01*
G01X1568043Y1745420D01*
G01X1570033Y1732858D01*
G01X1575807Y1721525D01*
G01X1584801Y1712531D01*
G01X1596134Y1706756D01*
G01X1608697Y1704766D01*
G01X1689345Y1704766D01*
G01X1699773Y1706127D01*
G01X1709504Y1710117D01*
G01X1717886Y1716470D01*
G01X1724357Y1724760D01*
G01X1730530Y1716768D01*
G01X1738482Y1710543D01*
G01X1747722Y1706471D01*
G01X1757682Y1704802D01*
G01X1757682Y1497476D01*
G01X1754409Y1497476D01*
G01X1741846Y1495487D01*
G01X1730513Y1489712D01*
G01X1721519Y1480718D01*
G01X1715745Y1469385D01*
G01X1713755Y1456822D01*
G01X1713755Y1319121D01*
G01X1715745Y1306559D01*
G01X1721519Y1295226D01*
G01X1730513Y1286232D01*
G01X1741846Y1280457D01*
G01X1754409Y1278467D01*
G01X1867662Y1278467D01*
G01X1880225Y1280457D01*
G01X1891558Y1286232D01*
G01X1900552Y1295226D01*
G01X1906326Y1306559D01*
G01X1908316Y1319121D01*
G01X1908316Y1456822D01*
G01X1906326Y1469385D01*
G01X1900552Y1480718D01*
G01X1891558Y1489712D01*
G01X1880225Y1495487D01*
G01X1867662Y1497476D01*
G01X1864389Y1497476D01*
G01X1864389Y1712882D01*
G01X1873138Y1721845D01*
G01X1878742Y1733045D01*
G01X1880671Y1745420D01*
G01X1880671Y1831821D01*
G01X1880088Y1838684D01*
G01X1878354Y1845350D01*
G01X1878354Y1977923D01*
G01X1887661Y1991287D01*
G01X1893685Y2006417D01*
G01X1896111Y2022521D01*
G01X1894812Y2038755D01*
G01X1889856Y2054268D01*
G01X1881503Y2068247D01*
G01X1870190Y2079962D01*
G01X1856509Y2088797D01*
G01X1841179Y2094290D01*
G01X1825000Y2096154D01*
G01X1808822Y2094290D01*
G01X1793491Y2088797D01*
G01X1779811Y2079962D01*
G01X1768497Y2068247D01*
G01X1760144Y2054268D01*
G01X1755188Y2038755D01*
G01X1753889Y2022521D01*
G01X1756316Y2006417D01*
G01X1762340Y1991287D01*
G01X1771646Y1977923D01*
G01X1771646Y1872475D01*
G01X1759370Y1872475D01*
G01X1748941Y1871115D01*
G01X1739210Y1867125D01*
G01X1730829Y1860772D01*
G01X1724357Y1852482D01*
G01X1717886Y1860772D01*
G01X1709504Y1867125D01*
G01X1699773Y1871115D01*
G01X1689345Y1872475D01*
G01X1640620Y1872475D01*
G01X1398434Y2114662D01*
G01X1398434Y2697104D01*
G01X1405401Y2696647D01*
G01X1414317Y2696647D01*
G01X1414317Y2584029D01*
G01X1416307Y2571466D01*
G01X1422081Y2560133D01*
G01X1431075Y2551139D01*
G01X1442408Y2545364D01*
G01X1454971Y2543375D01*
G01X1592672Y2543375D01*
G01X1605235Y2545364D01*
G01X1616568Y2551139D01*
G01X1625562Y2560133D01*
G01X1631336Y2571466D01*
G01X1633326Y2584029D01*
G01X1633326Y2596646D01*
G01X1785007Y2596646D01*
G01X1798816Y2598464D01*
G01X1811684Y2603794D01*
G01X1822734Y2612273D01*
G01X1884346Y2673886D01*
G01X1884346Y2525000D01*
G01X1885418Y2515727D01*
G01X1888577Y2506942D01*
G01X1893656Y2499110D01*
G01X1804118Y2409572D01*
G01X1721875Y2409572D01*
G01X1709313Y2407583D01*
G01X1697980Y2401808D01*
G01X1688986Y2392814D01*
G01X1683211Y2381481D01*
G01X1681221Y2368918D01*
G01X1681221Y2231217D01*
G01X1683211Y2218655D01*
G01X1688986Y2207321D01*
G01X1697980Y2198328D01*
G01X1709313Y2192553D01*
G01X1721875Y2190563D01*
G01X1835129Y2190563D01*
G01X1847692Y2192553D01*
G01X1859025Y2198328D01*
G01X1868019Y2207321D01*
G01X1873793Y2218655D01*
G01X1875783Y2231217D01*
G01X1875783Y2330329D01*
G01X2029800Y2484346D01*
G01X2192254Y2484346D01*
G01X2202932Y2485773D01*
G01X2212861Y2489955D01*
G01X2221342Y2496598D01*
G01X2227781Y2505235D01*
G01X2231725Y2515261D01*
G01X2232897Y2525970D01*
G01X2227691Y2744155D01*
G01X2236554Y2750565D01*
G01X2243387Y2759107D01*
G01X2247695Y2769161D01*
G01X2249167Y2780001D01*
G01X2249167Y2928996D01*
G01X2250013Y2931278D01*
G01X2250859Y2928996D01*
G01X2250859Y2780001D01*
G01X2251832Y2771155D01*
G01X2254708Y2762734D01*
G01X2259346Y2755140D01*
G01X2259346Y2525000D01*
G01X2261336Y2512437D01*
G01X2267110Y2501104D01*
G01X2276104Y2492110D01*
G01X2287437Y2486336D01*
G01X2300000Y2484346D01*
G01X2521646Y2484346D01*
G01X2521646Y1840305D01*
G01X2510139Y1841968D01*
G01X2372438Y1841968D01*
G01X2360264Y1840102D01*
G01X2349207Y1834677D01*
G01X2340283Y1826189D01*
G01X2334309Y1815419D01*
G01X2331835Y1803354D01*
G01X2284504Y1803354D01*
G01X2284504Y1806627D01*
G01X2282515Y1819189D01*
G01X2276740Y1830522D01*
G01X2267746Y1839516D01*
G01X2256413Y1845291D01*
G01X2243850Y1847281D01*
G01X2106149Y1847281D01*
G01X2093587Y1845291D01*
G01X2082254Y1839516D01*
G01X2073260Y1830522D01*
G01X2067485Y1819189D01*
G01X2065495Y1806627D01*
G01X2065495Y1693373D01*
G01X2067485Y1680810D01*
G01X2073260Y1669477D01*
G01X2082254Y1660483D01*
G01X2093587Y1654709D01*
G01X2106149Y1652719D01*
G01X2243850Y1652719D01*
G01X2256413Y1654709D01*
G01X2267746Y1660483D01*
G01X2276740Y1669477D01*
G01X2282515Y1680810D01*
G01X2284504Y1693373D01*
G01X2284504Y1696646D01*
G01X2331784Y1696646D01*
G01X2331784Y1688060D01*
G01X2333774Y1675497D01*
G01X2339548Y1664164D01*
G01X2348542Y1655170D01*
G01X2359875Y1649396D01*
G01X2372438Y1647406D01*
G01X2510139Y1647406D01*
G01X2522702Y1649396D01*
G01X2534035Y1655170D01*
G01X2543029Y1664164D01*
G01X2548803Y1675497D01*
G01X2550793Y1688060D01*
G01X2550793Y1696646D01*
G01X2557040Y1696646D01*
G01X2570849Y1698464D01*
G01X2583717Y1703794D01*
G01X2594767Y1712273D01*
G01X2612727Y1730234D01*
G01X2621206Y1741284D01*
G01X2626536Y1754152D01*
G01X2628354Y1767961D01*
G01X2628354Y2495866D01*
G01X2635022Y2504355D01*
G01X2639221Y2514301D01*
G01X2640654Y2525000D01*
G01X2640654Y2871653D01*
G01X2652894Y2871653D01*
G01X2746646Y2777900D01*
G01X2746646Y2307389D01*
G01X2736100Y2303752D01*
G01X2726939Y2297386D01*
G01X2719853Y2288769D01*
G01X2715377Y2278551D01*
G01X2713846Y2267501D01*
G01X2713846Y2132500D01*
G01X2715377Y2121449D01*
G01X2719853Y2111231D01*
G01X2726939Y2102614D01*
G01X2736100Y2096248D01*
G01X2746646Y2092612D01*
G01X2746646Y1948690D01*
G01X2744586Y1948690D01*
G01X2732023Y1946700D01*
G01X2720690Y1940926D01*
G01X2711696Y1931932D01*
G01X2705921Y1920599D01*
G01X2703932Y1908036D01*
G01X2703932Y1794783D01*
G01X2705921Y1782220D01*
G01X2711696Y1770887D01*
G01X2720690Y1761893D01*
G01X2732023Y1756118D01*
G01X2744586Y1754129D01*
G01X2772752Y1754129D01*
G01X2785372Y1748690D01*
G01X2744586Y1748690D01*
G01X2732023Y1746701D01*
G01X2720690Y1740926D01*
G01X2711696Y1731932D01*
G01X2705921Y1720599D01*
G01X2703932Y1708036D01*
G01X2703932Y1594783D01*
G01X2705921Y1582220D01*
G01X2711696Y1570887D01*
G01X2720690Y1561893D01*
G01X2732023Y1556119D01*
G01X2744586Y1554129D01*
G01X2746646Y1554129D01*
G01X2746646Y1318991D01*
G01X2741622Y1311187D01*
G01X2738499Y1302447D01*
G01X2737440Y1293227D01*
G01X2737440Y1203227D01*
G01X2739430Y1190664D01*
G01X2745204Y1179331D01*
G01X2754198Y1170337D01*
G01X2765531Y1164563D01*
G01X2778094Y1162573D01*
G01X2858094Y1162573D01*
G01X2870656Y1164563D01*
G01X2881989Y1170337D01*
G01X2890983Y1179331D01*
G01X2896758Y1190664D01*
G01X2898748Y1203227D01*
G01X2898748Y1293227D01*
G01X2896758Y1305790D01*
G01X2890983Y1317123D01*
G01X2881989Y1326117D01*
G01X2870656Y1331891D01*
G01X2858094Y1333881D01*
G01X2853354Y1333881D01*
G01X2853354Y1554129D01*
G01X2882287Y1554129D01*
G01X2894849Y1556119D01*
G01X2906182Y1561893D01*
G01X2915176Y1570887D01*
G01X2920951Y1582220D01*
G01X2922941Y1594783D01*
G01X2922941Y1708036D01*
G01X2920951Y1720599D01*
G01X2915176Y1731932D01*
G01X2906182Y1740926D01*
G01X2894849Y1746701D01*
G01X2882287Y1748690D01*
G01X2814628Y1748690D01*
G01X2827248Y1754129D01*
G01X2882287Y1754129D01*
G01X2894849Y1756118D01*
G01X2906182Y1761893D01*
G01X2915176Y1770887D01*
G01X2920951Y1782220D01*
G01X2922941Y1794783D01*
G01X2922941Y1908036D01*
G01X2920951Y1920599D01*
G01X2915176Y1931932D01*
G01X2906182Y1940926D01*
G01X2894849Y1946700D01*
G01X2882287Y1948690D01*
G01X2853354Y1948690D01*
G01X2853354Y2091846D01*
G01X2895500Y2091846D01*
G01X2908063Y2093835D01*
G01X2919396Y2099610D01*
G01X2928390Y2108604D01*
G01X2934165Y2119937D01*
G01X2936154Y2132500D01*
G01X2936154Y2267501D01*
G01X2934165Y2280063D01*
G01X2928390Y2291396D01*
G01X2919396Y2300390D01*
G01X2908063Y2306165D01*
G01X2895500Y2308155D01*
G01X2853354Y2308155D01*
G01X2853354Y2800000D01*
G01X2851536Y2813809D01*
G01X2846206Y2826677D01*
G01X2837727Y2837727D01*
G01X2712721Y2962734D01*
G01X2701671Y2971212D01*
G01X2688803Y2976543D01*
G01X2674994Y2978361D01*
G01X2640654Y2978361D01*
G01X2640654Y3083161D01*
G01X2641840Y3084346D01*
G01X2962481Y3084346D01*
G01X2966227Y3077371D01*
G01X2971253Y3071253D01*
G01X3209346Y2833161D01*
G01X3209346Y1225000D01*
G01X3211336Y1212437D01*
G01X3217110Y1201104D01*
G01X3226104Y1192110D01*
G01X3237437Y1186336D01*
G01X3250000Y1184346D01*
G01X3341434Y1184346D01*
G01X3050703Y893615D01*
G01X2948889Y893615D01*
G01X2935841Y892481D01*
G01X2923185Y889114D01*
G01X2911298Y883614D01*
G01X2228354Y883614D01*
G01X2228354Y1452719D01*
G01X2243850Y1452719D01*
G01X2256413Y1454709D01*
G01X2267746Y1460484D01*
G01X2276740Y1469478D01*
G01X2282515Y1480811D01*
G01X2284504Y1493373D01*
G01X2284504Y1606627D01*
G01X2282515Y1619190D01*
G01X2276740Y1630523D01*
G01X2267746Y1639517D01*
G01X2256413Y1645291D01*
G01X2243850Y1647281D01*
G01X2106149Y1647281D01*
G01X2093587Y1645291D01*
G01X2082254Y1639517D01*
G01X2073260Y1630523D01*
G01X2067485Y1619190D01*
G01X2065495Y1606627D01*
G01X2065495Y1493373D01*
G01X2067485Y1480811D01*
G01X2073260Y1469478D01*
G01X2082254Y1460484D01*
G01X2093587Y1454709D01*
G01X2106149Y1452719D01*
G01X2121646Y1452719D01*
G01X2121646Y883614D01*
G01X1995028Y883614D01*
G01X1982219Y882353D01*
G01X1969903Y878617D01*
G01X1958552Y872550D01*
G01X1948603Y864385D01*
G01X1930643Y846424D01*
G01X1922478Y836475D01*
G01X1916411Y825125D01*
G01X1912675Y812808D01*
G01X1911413Y800000D01*
G01X1911413Y761154D01*
G01X1909236Y761154D01*
G01X1896673Y759164D01*
G01X1885340Y753390D01*
G01X1876346Y744396D01*
G01X1870572Y733063D01*
G01X1868582Y720500D01*
G01X1868582Y579499D01*
G01X1870572Y566937D01*
G01X1876346Y555604D01*
G01X1885340Y546610D01*
G01X1896673Y540835D01*
G01X1909236Y538846D01*
G01X2044237Y538846D01*
G01X2056800Y540835D01*
G01X2068133Y546610D01*
G01X2077127Y555604D01*
G01X2082901Y566937D01*
G01X2084891Y579499D01*
G01X2084891Y720500D01*
G01X2083082Y732494D01*
G01X2077814Y743421D01*
G01X2069557Y752307D01*
G01X2200957Y752307D01*
G01X2192700Y743421D01*
G01X2187432Y732494D01*
G01X2185623Y720500D01*
G01X2185623Y579499D01*
G01X2187613Y566937D01*
G01X2193387Y555604D01*
G01X2202381Y546610D01*
G01X2213714Y540835D01*
G01X2226277Y538846D01*
G01X2361278Y538846D01*
G01X2373840Y540835D01*
G01X2385174Y546610D01*
G01X2394167Y555604D01*
G01X2399942Y566937D01*
G01X2401932Y579499D01*
G01X2401932Y720500D01*
G01X2400122Y732494D01*
G01X2394854Y743421D01*
G01X2386597Y752307D01*
G01X2559247Y752307D01*
G01X2550990Y743421D01*
G01X2545722Y732494D01*
G01X2543913Y720500D01*
G01X2543913Y579499D01*
G01X2545903Y566937D01*
G01X2551677Y555604D01*
G01X2560671Y546610D01*
G01X2572004Y540835D01*
G01X2584567Y538846D01*
G01X2719568Y538846D01*
G01X2732131Y540835D01*
G01X2743464Y546610D01*
G01X2752458Y555604D01*
G01X2758232Y566937D01*
G01X2760222Y579499D01*
G01X2760222Y720500D01*
G01X2758412Y732494D01*
G01X2753144Y743421D01*
G01X2744887Y752307D01*
G01X2882180Y752307D01*
G01X2873923Y743421D01*
G01X2868655Y732494D01*
G01X2866846Y720500D01*
G01X2866846Y579499D01*
G01X2868835Y566937D01*
G01X2874610Y555604D01*
G01X2883604Y546610D01*
G01X2894937Y540835D01*
G01X2907500Y538846D01*
G01X3042501Y538846D01*
G01X3055063Y540835D01*
G01X3066396Y546610D01*
G01X3075390Y555604D01*
G01X3081165Y566937D01*
G01X3083155Y579499D01*
G01X3083155Y720500D01*
G01X3081537Y731855D01*
G01X3076811Y742306D01*
G01X3082040Y742306D01*
G01X3096799Y743760D01*
G01X3110991Y748065D01*
G01X3124071Y755056D01*
G01X3135535Y764465D01*
G01X3555416Y1184346D01*
G01X3675000Y1184346D01*
G01X3687637Y1186360D01*
G01X3699021Y1192202D01*
G01X3708026Y1201293D01*
G01X3713759Y1212733D01*
G01X3715652Y1225388D01*
G01X3713518Y1238005D01*
G01X3707567Y1249334D01*
G01X3758003Y1249334D01*
G01X3770565Y1251323D01*
G01X3781898Y1257098D01*
G01X3790892Y1266092D01*
G01X3796667Y1277425D01*
G01X3798657Y1289988D01*
G01X3798657Y1409987D01*
G01X3796667Y1422550D01*
G01X3790892Y1433883D01*
G01X3781898Y1442877D01*
G01X3770565Y1448651D01*
G01X3758003Y1450641D01*
G01X3673657Y1450641D01*
G01X3673657Y2074334D01*
G01X3758003Y2074334D01*
G01X3770565Y2076323D01*
G01X3781898Y2082098D01*
G01X3790892Y2091092D01*
G01X3796667Y2102425D01*
G01X3798657Y2114988D01*
G01X3798657Y2234987D01*
G01X3796667Y2247550D01*
G01X3790892Y2258883D01*
G01X3781898Y2267877D01*
G01X3770565Y2273652D01*
G01X3758003Y2275641D01*
G01X3666454Y2275641D01*
G01X3666454Y2954834D01*
G01X3794346Y2954834D01*
G01X3796331Y2932147D01*
G01X3802225Y2910148D01*
G01X3811850Y2889507D01*
G01X3824913Y2870852D01*
G01X3841017Y2854748D01*
G01X3859673Y2841685D01*
G01X3880313Y2832060D01*
G01X3902312Y2826165D01*
G01X3925000Y2824181D01*
G01X3947687Y2826165D01*
G01X3969686Y2832060D01*
G01X3990326Y2841685D01*
G01X4008982Y2854748D01*
G01X4025086Y2870852D01*
G01X4038149Y2889507D01*
G01X4047774Y2910148D01*
G01X4053668Y2932147D01*
G01X4055653Y2954834D01*
G01X4055653Y3174834D01*
G01X4053668Y3197522D01*
G01X4047774Y3219520D01*
G01X4038149Y3240161D01*
G01X4025086Y3258817D01*
G01X4008982Y3274920D01*
G01X3990326Y3287983D01*
G01X3969686Y3297608D01*
G01X3947687Y3303503D01*
G01X3925000Y3305488D01*
G01X3902312Y3303503D01*
G01X3880313Y3297608D01*
G01X3859673Y3287983D01*
G01X3841017Y3274920D01*
G01X3824913Y3258817D01*
G01X3811850Y3240161D01*
G01X3802225Y3219520D01*
G01X3796331Y3197522D01*
G01X3794346Y3174834D01*
G01X3794346Y3174834D01*
G01X3794346Y2954834D01*
G01X3666454Y2954834D01*
G01X3666454Y3404512D01*
G01X3735025Y3404512D01*
G01X3757606Y3406478D01*
G01X3779507Y3412317D01*
G01X3800070Y3421854D01*
G01X3818675Y3434801D01*
G01X3834762Y3450768D01*
G01X3847848Y3469276D01*
G01X3857538Y3489766D01*
G01X3863540Y3511623D01*
G01X3865675Y3534188D01*
G01X3863878Y3556783D01*
G01X3858203Y3578728D01*
G01X3848821Y3599361D01*
G01X3836014Y3618062D01*
G01X3874056Y3603886D01*
G01X3913300Y3593489D01*
G01X3953371Y3586970D01*
G01X3993887Y3584391D01*
G01X4034461Y3585777D01*
G01X4074707Y3591115D01*
G01X4114239Y3600353D01*
G01X4152682Y3613404D01*
G01X4189669Y3630143D01*
G01X4224846Y3650411D01*
G01X4257877Y3674013D01*
G01X4288449Y3700726D01*
G01X4316269Y3730293D01*
G01X4341072Y3762433D01*
G01X4362621Y3796840D01*
G01X4380711Y3833185D01*
G01X4395169Y3871121D01*
G01X4405857Y3910287D01*
G01X4412673Y3950308D01*
G01X4415552Y3990804D01*
G01X4414467Y4031387D01*
G01X4409428Y4071671D01*
G01X4400483Y4111272D01*
G01X4387718Y4149810D01*
G01X4371254Y4186920D01*
G01X4351248Y4222246D01*
G01X4327891Y4255452D01*
G01X4301406Y4286221D01*
G01X4272046Y4314260D01*
G01X4240091Y4339301D01*
G01X4205845Y4361104D01*
G01X4205845Y4361104D01*
G01X4169635Y4379463D01*
G01X4131807Y4394202D01*
G01X4092722Y4405180D01*
G01X4052752Y4412293D01*
G01X4012279Y4415473D01*
G01X3971688Y4414689D01*
G01X3931368Y4409949D01*
G01X3891703Y4401298D01*
G01X3853070Y4388819D01*
G01X3815840Y4372630D01*
G01X3780366Y4352887D01*
G01X3746987Y4329777D01*
G01X3716023Y4303521D01*
G01X3687767Y4274370D01*
G01X3662490Y4242601D01*
G01X3640433Y4208518D01*
G01X3621806Y4172445D01*
G01X3606787Y4134728D01*
G01X3595519Y4095725D01*
G01X3588110Y4055809D01*
G01X3584630Y4015360D01*
G01X3585113Y3974765D01*
G01X3589554Y3934411D01*
G01X3597910Y3894682D01*
G01X3610102Y3855959D01*
G01X3626014Y3818609D01*
G01X3645494Y3782990D01*
G01X3668356Y3749441D01*
G01X3694381Y3718282D01*
G01X3723322Y3689811D01*
G01X3754902Y3664299D01*
G01X3735025Y3665820D01*
G01X3515026Y3665820D01*
G01X3492758Y3663908D01*
G01X3471141Y3658229D01*
G01X3450809Y3648949D01*
G01X3432356Y3636340D01*
G01X3416322Y3620770D01*
G01X3403176Y3602695D01*
G01X3393304Y3582644D01*
G01X3386993Y3561203D01*
G01X3384428Y3539001D01*
G01X2980955Y3539001D01*
G01X2988599Y3546646D01*
G01X3000000Y3546646D01*
G01X3013809Y3548464D01*
G01X3026677Y3553794D01*
G01X3037727Y3562273D01*
G01X3081150Y3605696D01*
G01X3087308Y3595554D01*
G01X3096132Y3587621D01*
G01X3106870Y3582574D01*
G01X3118608Y3580842D01*
G01X3253609Y3580842D01*
G01X3266172Y3582832D01*
G01X3277505Y3588607D01*
G01X3286499Y3597601D01*
G01X3292273Y3608934D01*
G01X3294263Y3621496D01*
G01X3294263Y3762497D01*
G01X3292841Y3773157D01*
G01X3288673Y3783070D01*
G01X3282052Y3791545D01*
G01X3273440Y3797986D01*
G01X3387729Y3912275D01*
G01X3396208Y3923325D01*
G01X3401538Y3936193D01*
G01X3403356Y3950002D01*
G01X3403356Y4230002D01*
G01X3401538Y4243811D01*
G01X3396208Y4256679D01*
G01X3387729Y4267729D01*
G01X3277729Y4377729D01*
G01X3266679Y4386208D01*
G01X3253811Y4391538D01*
G01X3240002Y4393356D01*
G01X1170001Y4393356D01*
G01X1156192Y4391538D01*
G01X1143324Y4386208D01*
G01X1132274Y4377729D01*
G01X1042274Y4287729D01*
G01X1033795Y4276679D01*
G01X1028465Y4263811D01*
G01X1026647Y4250002D01*
G01X1026647Y4070002D01*
G01X1028465Y4056193D01*
G01X1033795Y4043325D01*
G01X1042274Y4032275D01*
G01X1533892Y3540657D01*
G01X931270Y3540657D01*
G01X918707Y3538667D01*
G01X907374Y3532893D01*
G01X898380Y3523899D01*
G01X892606Y3512566D01*
G01X890616Y3500003D01*
G01X890616Y2720488D01*
G01X739975Y2720488D01*
G01X717287Y2718503D01*
G01X695289Y2712609D01*
G01X674648Y2702984D01*
G01X655992Y2689921D01*
G01X639888Y2673817D01*
G01X626825Y2655161D01*
G01X617200Y2634521D01*
G01X611306Y2612522D01*
G01X609321Y2589834D01*
G01X40654Y2589834D01*
G01X40654Y3170166D01*
G01X419347Y3170166D01*
G01X419347Y2950166D01*
G01X421332Y2927479D01*
G01X427226Y2905480D01*
G01X436851Y2884839D01*
G01X449914Y2866184D01*
G01X466018Y2850080D01*
G01X484674Y2837017D01*
G01X505314Y2827392D01*
G01X527313Y2821497D01*
G01X550001Y2819513D01*
G01X572688Y2821497D01*
G01X594687Y2827392D01*
G01X615328Y2837017D01*
G01X633983Y2850080D01*
G01X650087Y2866184D01*
G01X663150Y2884839D01*
G01X672775Y2905480D01*
G01X678670Y2927479D01*
G01X680654Y2950166D01*
G01X680654Y2950166D01*
G01X680654Y3170166D01*
G01X678670Y3192854D01*
G01X672775Y3214852D01*
G01X663150Y3235493D01*
G01X650087Y3254149D01*
G01X633983Y3270252D01*
G01X615328Y3283315D01*
G01X594687Y3292940D01*
G01X572688Y3298835D01*
G01X550001Y3300820D01*
G01X527313Y3298835D01*
G01X505314Y3292940D01*
G01X484674Y3283315D01*
G01X466018Y3270252D01*
G01X449914Y3254149D01*
G01X436851Y3235493D01*
G01X427226Y3214852D01*
G01X421332Y3192854D01*
G01X419347Y3170166D01*
G01X40654Y3170166D01*
G01X40654Y4000000D01*
G01X84346Y4000000D01*
G01X86348Y3959259D01*
G01X92333Y3918910D01*
G01X102244Y3879342D01*
G01X115986Y3840936D01*
G01X133426Y3804062D01*
G01X154396Y3769075D01*
G01X178695Y3736312D01*
G01X206088Y3706088D01*
G01X236312Y3678695D01*
G01X269075Y3654396D01*
G01X304062Y3633426D01*
G01X340936Y3615986D01*
G01X379342Y3602244D01*
G01X418910Y3592333D01*
G01X459259Y3586348D01*
G01X500000Y3584346D01*
G01X540741Y3586348D01*
G01X581090Y3592333D01*
G01X620658Y3602244D01*
G01X659064Y3615986D01*
G01X695938Y3633426D01*
G01X730925Y3654396D01*
G01X763688Y3678695D01*
G01X793912Y3706088D01*
G01X821305Y3736312D01*
G01X845604Y3769075D01*
G01X866574Y3804062D01*
G01X884014Y3840936D01*
G01X897756Y3879342D01*
G01X907667Y3918910D01*
G01X913653Y3959259D01*
G01X915654Y4000000D01*
G01X913653Y4040741D01*
G01X907667Y4081090D01*
G01X897756Y4120658D01*
G01X884014Y4159064D01*
G01X866574Y4195938D01*
G01X845604Y4230925D01*
G01X821305Y4263688D01*
G01X793912Y4293912D01*
G01X763688Y4321305D01*
G01X730925Y4345604D01*
G01X695938Y4366574D01*
G01X659064Y4384014D01*
G01X620658Y4397756D01*
G01X581090Y4407667D01*
G01X540741Y4413653D01*
G01X500000Y4415654D01*
G01X459259Y4413653D01*
G01X418910Y4407667D01*
G01X379342Y4397756D01*
G01X340936Y4384014D01*
G01X304062Y4366574D01*
G01X269075Y4345604D01*
G01X236312Y4321305D01*
G01X206088Y4293912D01*
G01X178695Y4263688D01*
G01X154396Y4230925D01*
G01X133426Y4195938D01*
G01X115986Y4159064D01*
G01X102244Y4120658D01*
G01X92333Y4081090D01*
G01X86348Y4040741D01*
G01X84346Y4000000D01*
G01X84346Y4000000D01*
G01X40654Y4000000D01*
G01X40654Y4130000D01*
G37*
G36*
G01X2310160Y2535160D02*
G01X2310160Y2744187D01*
G01X2316514Y2744187D01*
G01X2327581Y2745939D01*
G01X2337565Y2751026D01*
G01X2345488Y2758950D01*
G01X2350575Y2768933D01*
G01X2352328Y2780001D01*
G01X2352328Y2929939D01*
G01X2355318Y2939772D01*
G01X2356327Y2950000D01*
G01X2356327Y3053318D01*
G01X2359490Y3043963D01*
G01X2365087Y3035827D01*
G01X2372694Y3029529D01*
G01X2381731Y3025548D01*
G01X2391512Y3024186D01*
G01X2416514Y3024186D01*
G01X2422439Y3024680D01*
G01X2424186Y3023649D01*
G01X2424186Y3012506D01*
G01X2424754Y3006152D01*
G01X2426440Y3000000D01*
G01X2424754Y2993848D01*
G01X2424186Y2987494D01*
G01X2424186Y2962493D01*
G01X2424753Y2956146D01*
G01X2426435Y2950000D01*
G01X2424753Y2943854D01*
G01X2424186Y2937507D01*
G01X2424186Y2912506D01*
G01X2424754Y2906152D01*
G01X2426440Y2900000D01*
G01X2424754Y2893848D01*
G01X2424186Y2887495D01*
G01X2424186Y2876351D01*
G01X2422439Y2875321D01*
G01X2416514Y2875814D01*
G01X2391512Y2875814D01*
G01X2380445Y2874062D01*
G01X2370461Y2868975D01*
G01X2362538Y2861051D01*
G01X2357451Y2851068D01*
G01X2355698Y2840000D01*
G01X2355698Y2814394D01*
G01X2355499Y2810000D01*
G01X2355499Y2535160D01*
G01X2310160Y2535160D01*
G37*
G36*
G01X2356327Y3133182D02*
G01X2356327Y3386293D01*
G01X2458222Y3488187D01*
G01X2569107Y3488187D01*
G01X2482249Y3401330D01*
G01X2470238Y3386668D01*
G01X2461349Y3369928D01*
G01X2455928Y3351767D01*
G01X2454188Y3332893D01*
G01X2456198Y3314047D01*
G01X2461878Y3295964D01*
G01X2471007Y3279354D01*
G01X2483226Y3264865D01*
G01X2421985Y3203624D01*
G01X2410758Y3200962D01*
G01X2400387Y3195902D01*
G01X2391377Y3188693D01*
G01X2372808Y3170123D01*
G01X2364930Y3160029D01*
G01X2359740Y3148323D01*
G01X2357549Y3135708D01*
G01X2356327Y3133182D01*
G37*
G36*
G01X2508629Y3073520D02*
G01X2923296Y3488187D01*
G01X3082794Y3488187D01*
G01X3082794Y3421497D01*
G01X3084547Y3410430D01*
G01X3089634Y3400446D01*
G01X3097557Y3392523D01*
G01X3107541Y3387436D01*
G01X3118608Y3385683D01*
G01X3253609Y3385683D01*
G01X3264676Y3387436D01*
G01X3274660Y3392523D01*
G01X3282583Y3400446D01*
G01X3287670Y3410430D01*
G01X3289423Y3421497D01*
G01X3289423Y3488187D01*
G01X3398312Y3488187D01*
G01X3407925Y3469147D01*
G01X3420615Y3452005D01*
G01X3436020Y3437252D01*
G01X3453694Y3425313D01*
G01X3473132Y3416532D01*
G01X3493773Y3411160D01*
G01X3515026Y3409352D01*
G01X3615640Y3409352D01*
G01X3615640Y3158476D01*
G01X3600964Y3159964D01*
G01X3586321Y3158171D01*
G01X3572438Y3153185D01*
G01X3560000Y3145253D01*
G01X3549624Y3134768D01*
G01X3541822Y3122249D01*
G01X3536981Y3108314D01*
G01X3535340Y3093654D01*
G01X3536981Y3078994D01*
G01X3541822Y3065059D01*
G01X3549624Y3052540D01*
G01X3560000Y3042054D01*
G01X3572438Y3034123D01*
G01X3586321Y3029137D01*
G01X3600964Y3027343D01*
G01X3615640Y3028832D01*
G01X3615640Y2650476D01*
G01X3600964Y2651964D01*
G01X3586321Y2650171D01*
G01X3572438Y2645185D01*
G01X3560000Y2637253D01*
G01X3549624Y2626768D01*
G01X3541822Y2614249D01*
G01X3536981Y2600314D01*
G01X3535340Y2585654D01*
G01X3536981Y2570994D01*
G01X3541822Y2557059D01*
G01X3549624Y2544540D01*
G01X3560000Y2534054D01*
G01X3572438Y2526123D01*
G01X3586321Y2521137D01*
G01X3600964Y2519343D01*
G01X3615640Y2520832D01*
G01X3615640Y1274200D01*
G01X3616413Y1270312D01*
G01X3618616Y1267016D01*
G01X3650472Y1235160D01*
G01X3260160Y1235160D01*
G01X3260160Y2837016D01*
G01X3280042Y2827328D01*
G01X3301314Y2821270D01*
G01X3323317Y2819032D01*
G01X3345373Y2820681D01*
G01X3366799Y2826167D01*
G01X3386933Y2835320D01*
G01X3405154Y2847857D01*
G01X3420897Y2863391D01*
G01X3433677Y2881442D01*
G01X3443099Y2901452D01*
G01X3448871Y2922803D01*
G01X3450815Y2944834D01*
G01X3450815Y3184834D01*
G01X3448903Y3206681D01*
G01X3443227Y3227865D01*
G01X3433959Y3247741D01*
G01X3421380Y3265705D01*
G01X3405872Y3281213D01*
G01X3387908Y3293792D01*
G01X3368032Y3303060D01*
G01X3346848Y3308736D01*
G01X3325001Y3310648D01*
G01X3303153Y3308736D01*
G01X3281970Y3303060D01*
G01X3262094Y3293792D01*
G01X3244129Y3281213D01*
G01X3228622Y3265705D01*
G01X3216043Y3247741D01*
G01X3206774Y3227865D01*
G01X3201098Y3206681D01*
G01X3199187Y3184834D01*
G01X3199187Y2944834D01*
G01X3200396Y2927434D01*
G01X3204000Y2910369D01*
G01X3010160Y3104209D01*
G01X3010160Y3125000D01*
G01X3008799Y3130080D01*
G01X3005080Y3133799D01*
G01X3000000Y3135160D01*
G01X2625000Y3135160D01*
G01X2621112Y3134387D01*
G01X2617816Y3132184D01*
G01X2592816Y3107184D01*
G01X2590614Y3103888D01*
G01X2589840Y3100000D01*
G01X2589840Y3073520D01*
G01X2508629Y3073520D01*
G37*
G36*
G01X2290650Y3519657D02*
G01X2290000Y3568840D01*
G01X2290000Y4109654D01*
G01X2514500Y4109654D01*
G01X2516284Y4093821D01*
G01X2521546Y4078781D01*
G01X2530023Y4065290D01*
G01X2541290Y4054023D01*
G01X2554781Y4045546D01*
G01X2569821Y4040284D01*
G01X2585654Y4038500D01*
G01X2601487Y4040284D01*
G01X2616527Y4045546D01*
G01X2630018Y4054023D01*
G01X2641284Y4065290D01*
G01X2649762Y4078781D01*
G01X2655024Y4093821D01*
G01X2656808Y4109654D01*
G01X2655024Y4125487D01*
G01X2649762Y4140527D01*
G01X2641284Y4154018D01*
G01X2630018Y4165284D01*
G01X2616527Y4173762D01*
G01X2601487Y4179024D01*
G01X2585654Y4180808D01*
G01X2569821Y4179024D01*
G01X2554781Y4173762D01*
G01X2541290Y4165284D01*
G01X2530023Y4154018D01*
G01X2521546Y4140527D01*
G01X2516284Y4125487D01*
G01X2514500Y4109654D01*
G01X2514500Y4109654D01*
G01X2290000Y4109654D01*
G01X2290000Y4260200D01*
G01X3060000Y4260200D01*
G01X3060000Y4006213D01*
G01X2593787Y3540000D01*
G01X2425000Y3540000D01*
G01X2419260Y3538858D01*
G01X2414394Y3535607D01*
G01X2290654Y3411867D01*
G01X2290654Y3519120D01*
G01X2290650Y3519657D01*
G37*
G54D10*
G01X941430Y2017397D02*
G01X941430Y2464020D01*
G01X959974Y2464020D01*
G03X959974Y2715648I0J125814D01*
G01X941430Y2715648D01*
G01X941430Y3489843D01*
G01X1591551Y3489843D01*
G01X1601486Y3479908D01*
G01X1601486Y3271661D01*
G01X1589342Y3271661D01*
G03X1553528Y3235847I0J-35814D01*
G01X1553528Y3098146D01*
G03X1575674Y3065043I35814J0D01*
G01X1440808Y2930176D01*
G03X1428515Y2921421I14164J-32894D01*
G01X1428514Y2945918D01*
G01X1484305Y3001708D01*
G03X1498514Y3036013I-34305J34305D01*
G01X1498514Y3062332D01*
G01X1502596Y3062332D01*
G03X1538410Y3098146I0J35814D01*
G01X1538410Y3235847D01*
G03X1502596Y3271661I-35814J0D01*
G01X1389343Y3271661D01*
G03X1353529Y3235847I0J-35814D01*
G01X1353529Y3098146D01*
G03X1389343Y3062332I35814J0D01*
G01X1401486Y3062332D01*
G01X1401486Y3056108D01*
G01X1345696Y3000318D01*
G03X1331486Y2966013I34305J-34305D01*
G01X1331487Y2775401D01*
G03X1345696Y2741097I48514J0D01*
G01X1347620Y2739173D01*
G01X1347620Y2017397D01*
G01X941430Y2017397D01*
G01X1024186Y3180166D02*
G01X1024186Y2940166D01*
G03X1275813Y2940166I125814J0D01*
G01X1275813Y3180166D01*
G03X1024186Y3180166I-125814J0D01*
G01X1945813Y3385458D02*
G03X1969930Y3437022I-70814J64542D01*
G01X2143698Y3264807D01*
G01X2143698Y3126546D01*
G03X2142515Y3131172I-35211J-6546D01*
G01X2142515Y3151748D01*
G03X2127192Y3188739I-52314J0D01*
G01X1945813Y3370119D01*
G01X1945813Y3385458D01*
G01X2181849Y2535160D02*
G01X2073769Y2535160D01*
G01X2130317Y2591708D01*
G03X2144527Y2626013I-34305J34305D01*
G01X2144527Y2810000D01*
G03X2144327Y2814394I-48514J0D01*
G01X2144327Y2840000D01*
G03X2108513Y2875814I-35814J0D01*
G01X2083512Y2875814D01*
G03X2077567Y2875317I0J-35814D01*
G01X2075814Y2876351D01*
G01X2075814Y2887495D01*
G03X2073560Y2900000I-35814J0D01*
G03X2075814Y2912506I-33560J12506D01*
G01X2075814Y2937507D01*
G03X2073565Y2950000I-35814J0D01*
G03X2075814Y2962493I-33564J12493D01*
G01X2075814Y2987494D01*
G03X2073560Y3000000I-35814J0D01*
G03X2075814Y3012506I-33560J12506D01*
G01X2075814Y3023649D01*
G01X2077561Y3024680D01*
G03X2083487Y3024186I5925J35320D01*
G01X2108488Y3024186D01*
G03X2143698Y3053454I0J35814D01*
G01X2143698Y2950000D01*
G03X2147698Y2929939I52314J0D01*
G01X2147698Y2780001D01*
G03X2176847Y2744812I35814J0D01*
G01X2181849Y2535160D01*
G01X1946024Y3525441D02*
G03X1929662Y3534707I-25210J-25438D01*
G01X1385160Y4079209D01*
G01X1385160Y4100000D01*
G03X1384409Y4103835I-10160J0D01*
G01X1384409Y4276293D01*
G01X2229972Y4265171D01*
G01X2239840Y3519052D01*
G01X2239840Y3224529D01*
G01X2210317Y3254052D01*
G03X2200213Y3273525I-35314J-5965D01*
G01X1946024Y3525441D01*
G01X2011340Y3601654D02*
G03X2143968Y3601654I66314J0D01*
G03X2011340Y3601654I-66314J0D01*
G54D11*
G01X40654Y4130000D02*
G02X370000Y4459346I329346J0D01*
G01X4130000Y4459346D01*
G02X4459346Y4130000I0J-329346D01*
G01X4459346Y370000D01*
G02X4130000Y40654I-329346J0D01*
G01X370000Y40654D01*
G02X40654Y370000I0J329346D01*
G01X40654Y4130000D01*
G01X84346Y4000000D02*
G03X915654Y4000000I415654J0D01*
G03X84346Y4000000I-415654J0D01*
G01X84346Y500000D02*
G03X915654Y500000I415654J0D01*
G03X84346Y500000I-415654J0D01*
G01X680654Y2950166D02*
G01X680654Y3170166D01*
G03X419347Y3170166I-130654J0D01*
G01X419347Y2950166D01*
G03X680654Y2950166I130654J0D01*
G01X901343Y1979721D02*
G01X901343Y1450667D01*
G01X816998Y1450667D01*
G03X776344Y1410013I0J-40654D01*
G01X776344Y1290013D01*
G03X816998Y1249359I40654J0D01*
G01X985660Y1249359D01*
G01X1259346Y975673D01*
G01X1259346Y967469D01*
G01X1255787Y967469D01*
G03X1215133Y926816I0J-40654D01*
G01X1215133Y791815D01*
G03X1255787Y751161I40654J0D01*
G01X1259346Y751161D01*
G01X1259346Y658154D01*
G01X1254500Y658154D01*
G03X1213846Y617500I0J-40654D01*
G01X1213846Y482499D01*
G03X1254500Y441845I40654J0D01*
G01X1395500Y441845D01*
G03X1436154Y482499I0J40654D01*
G01X1436154Y617500D01*
G03X1395500Y658154I-40654J0D01*
G01X1390654Y658154D01*
G01X1390654Y751161D01*
G01X1396788Y751161D01*
G03X1437442Y791815I0J40654D01*
G01X1437442Y926816D01*
G03X1396788Y967469I-40654J0D01*
G01X1390654Y967469D01*
G01X1390654Y979419D01*
G03X1378496Y1070505I-65654J37591D01*
G01X1191459Y1257542D01*
G03X1207651Y1290013I-24462J32471D01*
G01X1207651Y1379447D01*
G01X1314102Y1485898D01*
G03X1185898Y1614102I-64102J64102D01*
G01X1082651Y1510855D01*
G01X1082651Y1966583D01*
G01X1357780Y1966583D01*
G03X1385077Y1977111I0J40654D01*
G01X1568043Y1794145D01*
G01X1568043Y1745420D01*
G03X1608697Y1704766I40654J0D01*
G01X1689345Y1704766D01*
G03X1724357Y1724760I0J40654D01*
G03X1757682Y1704802I35013J20661D01*
G01X1757682Y1497476D01*
G01X1754409Y1497476D01*
G03X1713755Y1456822I0J-40654D01*
G01X1713755Y1319121D01*
G03X1754409Y1278467I40654J0D01*
G01X1867662Y1278467D01*
G03X1908316Y1319121I0J40654D01*
G01X1908316Y1456822D01*
G03X1867662Y1497476I-40654J0D01*
G01X1864389Y1497476D01*
G01X1864389Y1712882D01*
G03X1880671Y1745420I-24372J32538D01*
G01X1880671Y1831821D01*
G03X1878354Y1845350I-40654J0D01*
G01X1878354Y1977923D01*
G03X1825000Y2096154I-53354J47077D01*
G03X1771646Y1977923I0J-71154D01*
G01X1771646Y1872475D01*
G01X1759370Y1872475D01*
G03X1724357Y1852482I0J-40654D01*
G03X1689345Y1872475I-35013J-20661D01*
G01X1640620Y1872475D01*
G01X1398434Y2114662D01*
G01X1398434Y2697104D01*
G03X1405401Y2696647I6967J52897D01*
G01X1414317Y2696647D01*
G01X1414317Y2584029D01*
G03X1454971Y2543375I40654J0D01*
G01X1592672Y2543375D01*
G03X1633326Y2584029I0J40654D01*
G01X1633326Y2596646D01*
G01X1785007Y2596646D01*
G03X1822734Y2612273I0J53354D01*
G01X1884346Y2673886D01*
G01X1884346Y2525000D01*
G03X1893656Y2499110I40654J0D01*
G01X1804118Y2409572D01*
G01X1721875Y2409572D01*
G03X1681221Y2368918I0J-40654D01*
G01X1681221Y2231217D01*
G03X1721875Y2190563I40654J0D01*
G01X1835129Y2190563D01*
G03X1875783Y2231217I0J40654D01*
G01X1875783Y2330329D01*
G01X2029800Y2484346D01*
G01X2192254Y2484346D01*
G03X2232897Y2525970I0J40654D01*
G01X2227691Y2744155D01*
G03X2249167Y2780001I-19178J35846D01*
G01X2249167Y2928996D01*
G01X2250013Y2931278D01*
G01X2250859Y2928996D01*
G01X2250859Y2780001D01*
G03X2259346Y2755140I40654J0D01*
G01X2259346Y2525000D01*
G03X2300000Y2484346I40654J0D01*
G01X2521646Y2484346D01*
G01X2521646Y1840305D01*
G03X2510139Y1841968I-11507J-38991D01*
G01X2372438Y1841968D01*
G03X2331835Y1803354I0J-40654D01*
G01X2284504Y1803354D01*
G01X2284504Y1806627D01*
G03X2243850Y1847281I-40654J0D01*
G01X2106149Y1847281D01*
G03X2065495Y1806627I0J-40654D01*
G01X2065495Y1693373D01*
G03X2106149Y1652719I40654J0D01*
G01X2243850Y1652719D01*
G03X2284504Y1693373I0J40654D01*
G01X2284504Y1696646D01*
G01X2331784Y1696646D01*
G01X2331784Y1688060D01*
G03X2372438Y1647406I40654J0D01*
G01X2510139Y1647406D01*
G03X2550793Y1688060I0J40654D01*
G01X2550793Y1696646D01*
G01X2557040Y1696646D01*
G03X2594767Y1712273I0J53354D01*
G01X2612727Y1730234D01*
G03X2628354Y1767961I-37727J37727D01*
G01X2628354Y2495866D01*
G03X2640654Y2525000I-28354J29134D01*
G01X2640654Y2871653D01*
G01X2652894Y2871653D01*
G01X2746646Y2777900D01*
G01X2746646Y2307389D01*
G03X2713846Y2267501I7854J-39888D01*
G01X2713846Y2132500D01*
G03X2746646Y2092612I40654J0D01*
G01X2746646Y1948690D01*
G01X2744586Y1948690D01*
G03X2703932Y1908036I0J-40654D01*
G01X2703932Y1794783D01*
G03X2744586Y1754129I40654J0D01*
G01X2772752Y1754129D01*
G03X2785372Y1748690I27248J45871D01*
G01X2744586Y1748690D01*
G03X2703932Y1708036I0J-40654D01*
G01X2703932Y1594783D01*
G03X2744586Y1554129I40654J0D01*
G01X2746646Y1554129D01*
G01X2746646Y1318991D01*
G03X2737440Y1293227I31448J-25764D01*
G01X2737440Y1203227D01*
G03X2778094Y1162573I40654J0D01*
G01X2858094Y1162573D01*
G03X2898748Y1203227I0J40654D01*
G01X2898748Y1293227D01*
G03X2858094Y1333881I-40654J0D01*
G01X2853354Y1333881D01*
G01X2853354Y1554129D01*
G01X2882287Y1554129D01*
G03X2922941Y1594783I0J40654D01*
G01X2922941Y1708036D01*
G03X2882287Y1748690I-40654J0D01*
G01X2814628Y1748690D01*
G03X2827248Y1754129I-14628J51310D01*
G01X2882287Y1754129D01*
G03X2922941Y1794783I0J40654D01*
G01X2922941Y1908036D01*
G03X2882287Y1948690I-40654J0D01*
G01X2853354Y1948690D01*
G01X2853354Y2091846D01*
G01X2895500Y2091846D01*
G03X2936154Y2132500I0J40654D01*
G01X2936154Y2267501D01*
G03X2895500Y2308155I-40654J0D01*
G01X2853354Y2308155D01*
G01X2853354Y2800000D01*
G03X2837727Y2837727I-53354J0D01*
G01X2712721Y2962734D01*
G03X2674994Y2978361I-37727J-37727D01*
G01X2640654Y2978361D01*
G01X2640654Y3083161D01*
G01X2641840Y3084346D01*
G01X2962481Y3084346D01*
G03X2971253Y3071253I37519J15654D01*
G01X3209346Y2833161D01*
G01X3209346Y1225000D01*
G03X3250000Y1184346I40654J0D01*
G01X3341434Y1184346D01*
G01X3050703Y893615D01*
G01X2948889Y893615D01*
G03X2911298Y883614I0J-75654D01*
G01X2228354Y883614D01*
G01X2228354Y1452719D01*
G01X2243850Y1452719D01*
G03X2284504Y1493373I0J40654D01*
G01X2284504Y1606627D01*
G03X2243850Y1647281I-40654J0D01*
G01X2106149Y1647281D01*
G03X2065495Y1606627I0J-40654D01*
G01X2065495Y1493373D01*
G03X2106149Y1452719I40654J0D01*
G01X2121646Y1452719D01*
G01X2121646Y883614D01*
G01X1995028Y883614D01*
G03X1948603Y864385I0J-65654D01*
G01X1930643Y846424D01*
G03X1911413Y800000I46424J-46424D01*
G01X1911413Y761154D01*
G01X1909236Y761154D01*
G03X1868582Y720500I0J-40654D01*
G01X1868582Y579499D01*
G03X1909236Y538846I40654J0D01*
G01X2044237Y538846D01*
G03X2084891Y579499I0J40654D01*
G01X2084891Y720500D01*
G03X2069557Y752307I-40654J0D01*
G01X2200957Y752307D01*
G03X2185623Y720500I25320J-31807D01*
G01X2185623Y579499D01*
G03X2226277Y538846I40654J0D01*
G01X2361278Y538846D01*
G03X2401932Y579499I0J40654D01*
G01X2401932Y720500D01*
G03X2386597Y752307I-40654J0D01*
G01X2559247Y752307D01*
G03X2543913Y720500I25320J-31807D01*
G01X2543913Y579499D01*
G03X2584567Y538846I40654J0D01*
G01X2719568Y538846D01*
G03X2760222Y579499I0J40654D01*
G01X2760222Y720500D01*
G03X2744887Y752307I-40654J0D01*
G01X2882180Y752307D01*
G03X2866846Y720500I25320J-31807D01*
G01X2866846Y579499D01*
G03X2907500Y538846I40654J0D01*
G01X3042501Y538846D01*
G03X3083155Y579499I0J40654D01*
G01X3083155Y720500D01*
G03X3076811Y742306I-40654J0D01*
G01X3082040Y742306D01*
G03X3135535Y764465I0J75654D01*
G01X3555416Y1184346D01*
G01X3675000Y1184346D01*
G03X3707567Y1249334I0J40654D01*
G01X3758003Y1249334D01*
G03X3798657Y1289988I0J40654D01*
G01X3798657Y1409987D01*
G03X3758003Y1450641I-40654J0D01*
G01X3673657Y1450641D01*
G01X3673657Y2074334D01*
G01X3758003Y2074334D01*
G03X3798657Y2114988I0J40654D01*
G01X3798657Y2234987D01*
G03X3758003Y2275641I-40654J0D01*
G01X3666454Y2275641D01*
G01X3666454Y3404512D01*
G01X3735025Y3404512D01*
G03X3836014Y3618062I0J130654D01*
G03X4205845Y4361104I163987J381938D01*
G03X3754902Y3664299I-205844J-361104D01*
G03X3735025Y3665820I-19877J-129133D01*
G01X3515026Y3665820D01*
G03X3384428Y3539001I0J-130654D01*
G01X2980955Y3539001D01*
G01X2988599Y3546646D01*
G01X3000000Y3546646D01*
G03X3037727Y3562273I0J53354D01*
G01X3081150Y3605696D01*
G03X3118608Y3580842I37458J15800D01*
G01X3253609Y3580842D01*
G03X3294263Y3621496I0J40654D01*
G01X3294263Y3762497D01*
G03X3273440Y3797986I-40654J0D01*
G01X3387729Y3912275D01*
G03X3403356Y3950002I-37727J37727D01*
G01X3403356Y4230002D01*
G03X3387729Y4267729I-53354J0D01*
G01X3277729Y4377729D01*
G03X3240002Y4393356I-37727J-37727D01*
G01X1170001Y4393356D01*
G03X1132274Y4377729I0J-53354D01*
G01X1042274Y4287729D01*
G03X1026647Y4250002I37727J-37727D01*
G01X1026647Y4070002D01*
G03X1042274Y4032275I53354J0D01*
G01X1533892Y3540657D01*
G01X931270Y3540657D01*
G03X890616Y3500003I0J-40654D01*
G01X890616Y2720488D01*
G01X739975Y2720488D01*
G03X739975Y2459181I0J-130654D01*
G01X890616Y2459181D01*
G01X890616Y2200667D01*
G01X816998Y2200667D01*
G03X776344Y2160013I0J-40654D01*
G01X776344Y2040013D01*
G03X816998Y1999359I40654J0D01*
G01X891387Y1999359D01*
G03X901343Y1979721I39883J7878D01*
G01X3584346Y500000D02*
G03X4415654Y500000I415654J0D01*
G03X3584346Y500000I-415654J0D01*
G01X3794346Y3174834D02*
G01X3794346Y2954834D01*
G03X4055653Y2954834I130654J0D01*
G01X4055653Y3174834D01*
G03X3794346Y3174834I-130654J0D01*
G54D10*
G01X2310160Y2535160D02*
G01X2310160Y2744187D01*
G01X2316514Y2744187D01*
G03X2352328Y2780001I0J35814D01*
G01X2352328Y2929939D01*
G03X2356327Y2950000I-48315J20061D01*
G01X2356327Y3053318D01*
G03X2391512Y3024186I35185J6682D01*
G01X2416514Y3024186D01*
G03X2422439Y3024680I0J35814D01*
G01X2424186Y3023649D01*
G01X2424186Y3012506D01*
G03X2426440Y3000000I35814J0D01*
G03X2424186Y2987494I33560J-12506D01*
G01X2424186Y2962493D01*
G03X2426435Y2950000I35814J0D01*
G03X2424186Y2937507I33564J-12493D01*
G01X2424186Y2912506D01*
G03X2426440Y2900000I35814J0D01*
G03X2424186Y2887495I33560J-12506D01*
G01X2424186Y2876351D01*
G01X2422439Y2875321D01*
G03X2416514Y2875814I-5925J-35320D01*
G01X2391512Y2875814D01*
G03X2355698Y2840000I0J-35814D01*
G01X2355698Y2814394D01*
G03X2355499Y2810000I48315J-4394D01*
G01X2355499Y2535160D01*
G01X2310160Y2535160D01*
G01X2356327Y3133182D02*
G01X2356327Y3386293D01*
G01X2458222Y3488187D01*
G01X2569107Y3488187D01*
G01X2482249Y3401330D01*
G03X2483226Y3264865I67751J-67751D01*
G01X2421985Y3203624D01*
G03X2391377Y3188693I6384J-51923D01*
G01X2372808Y3170123D01*
G03X2357549Y3135708I36992J-36991D01*
G03X2356327Y3133182I46464J-24039D01*
G01X2508629Y3073520D02*
G01X2923296Y3488187D01*
G01X3082794Y3488187D01*
G01X3082794Y3421497D01*
G03X3118608Y3385683I35814J0D01*
G01X3253609Y3385683D01*
G03X3289423Y3421497I0J35814D01*
G01X3289423Y3488187D01*
G01X3398312Y3488187D01*
G03X3515026Y3409352I116714J46979D01*
G01X3615640Y3409352D01*
G01X3615640Y3158476D01*
G03X3535340Y3093654I-13986J-64822D01*
G03X3615640Y3028832I66314J0D01*
G01X3615640Y2650476D01*
G03X3535340Y2585654I-13986J-64822D01*
G03X3615640Y2520832I66314J0D01*
G01X3615640Y1274200D01*
G03X3618616Y1267016I10160J0D01*
G01X3650472Y1235160D01*
G01X3260160Y1235160D01*
G01X3260160Y2837016D01*
G03X3450815Y2944834I64841J107818D01*
G01X3450815Y3184834D01*
G03X3199187Y3184834I-125814J0D01*
G01X3199187Y2944834D01*
G03X3204000Y2910369I125814J0D01*
G01X3010160Y3104209D01*
G01X3010160Y3125000D01*
G03X3000000Y3135160I-10160J0D01*
G01X2625000Y3135160D01*
G03X2617816Y3132184I0J-10160D01*
G01X2592816Y3107184D01*
G03X2589840Y3100000I7184J-7184D01*
G01X2589840Y3073520D01*
G01X2508629Y3073520D01*
G54D11*
G01X2290650Y3519657D02*
G01X2290000Y3568840D01*
G01X2290000Y4260200D01*
G01X3060000Y4260200D01*
G01X3060000Y4006213D01*
G01X2593787Y3540000D01*
G01X2425000Y3540000D01*
G03X2414394Y3535607I0J-15000D01*
G01X2290654Y3411867D01*
G01X2290654Y3519120D01*
G01X2290650Y3519657D01*
G01X2514500Y4109654D02*
G03X2656808Y4109654I71154J0D01*
G03X2514500Y4109654I-71154J0D01*
G54D12*
G01X1149999Y2850420D02*
G01X1149999Y2824512D01*
G01X1149999Y3269912D02*
G01X1149999Y3295820D01*
G01X1060254Y3060166D02*
G01X1034346Y3060166D01*
G01X1239745Y3060166D02*
G01X1265653Y3060166D01*
G01X125254Y4000000D02*
G01X99346Y4000000D01*
G01X874746Y4000000D02*
G01X900654Y4000000D01*
G01X500000Y4374746D02*
G01X500000Y4400654D01*
G01X500000Y3625254D02*
G01X500000Y3599346D01*
G01X125254Y500000D02*
G01X99346Y500000D01*
G01X874746Y500000D02*
G01X900654Y500000D01*
G01X500000Y874746D02*
G01X500000Y900654D01*
G01X500000Y125254D02*
G01X500000Y99346D01*
G01X550001Y3259912D02*
G01X550001Y3285820D01*
G01X550001Y2860420D02*
G01X550001Y2834512D01*
G01X639746Y3060166D02*
G01X665654Y3060166D01*
G01X460255Y3060166D02*
G01X434347Y3060166D01*
G01X3925000Y2865089D02*
G01X3925000Y2839181D01*
G01X3925000Y3264580D02*
G01X3925000Y3290488D01*
G01X3835254Y3064834D02*
G01X3809346Y3064834D01*
G01X4014745Y3064834D02*
G01X4040653Y3064834D01*
G01X3625254Y500000D02*
G01X3599346Y500000D01*
G01X4374746Y500000D02*
G01X4400654Y500000D01*
G01X4000000Y874746D02*
G01X4000000Y900654D01*
G01X4000000Y125254D02*
G01X4000000Y99346D01*
G01X3625254Y4000000D02*
G01X3599346Y4000000D01*
G01X4374746Y4000000D02*
G01X4400654Y4000000D01*
G01X4000000Y4374746D02*
G01X4000000Y4400654D01*
G01X4000000Y3625254D02*
G01X4000000Y3599346D01*
G01X3325001Y3274580D02*
G01X3325001Y3300488D01*
G01X3325001Y2855089D02*
G01X3325001Y2829181D01*
G01X3414747Y3064834D02*
G01X3440655Y3064834D01*
G01X3235255Y3064834D02*
G01X3209347Y3064834D01*
G04 Copper End*

G04 Pad Start*
G54D13*
G01X1325000Y550000D03*
G01X1125000Y550000D03*
G54D14*
G01X4116987Y2174988D03*
G01X3583003Y2174988D03*
G01X4116987Y1349987D03*
G01X3583003Y1349987D03*
G54D15*
G01X2652067Y650000D03*
G01X2652067Y450000D03*
G54D16*
G01X1149999Y3060166D03*
G54D17*
G01X550001Y3060166D03*
G54D18*
G01X849975Y2589834D03*
G54D16*
G01X3325001Y3064834D03*
G54D17*
G01X3925000Y3064834D03*
G54D18*
G01X3625026Y3535166D03*
G54D20*
G01X2442006Y3945000D03*
G01X2037994Y3945000D03*
G54D21*
G01X2010001Y3025006D03*
G01X2010001Y2974994D03*
G01X2010001Y2925007D03*
G01X2010001Y2874994D03*
G54D22*
G01X2046000Y2812500D03*
G54D23*
G01X2096013Y2810000D03*
G54D24*
G01X2146000Y2950000D03*
G01X2196012Y2950000D03*
G54D25*
G01X2250000Y2950000D03*
G54D24*
G01X2304013Y2950000D03*
G01X2354000Y2950000D03*
G54D23*
G01X2404013Y2810000D03*
G54D22*
G01X2454000Y2812500D03*
G54D21*
G01X2490000Y2874994D03*
G01X2490000Y2925007D03*
G01X2490000Y2974994D03*
G01X2490000Y3025006D03*
G54D22*
G01X2454000Y3087501D03*
G54D23*
G01X2404013Y3090000D03*
G54D22*
G01X2046000Y3087501D03*
G54D23*
G01X2095987Y3090000D03*
G54D26*
G01X500000Y500000D03*
G01X500000Y4000000D03*
G01X4000000Y4000000D03*
G01X4000000Y500000D03*
G54D15*
G01X3186109Y3691997D03*
G01X3186109Y3491997D03*
G54D27*
G01X1523822Y2840655D03*
G01X1523822Y2640655D03*
G01X2813436Y1651410D03*
G01X2813436Y1851409D03*
G54D28*
G01X1811035Y1387972D03*
G01X1611036Y1387972D03*
G01X1645969Y3166997D03*
G01X1445969Y3166997D03*
G01X1778502Y2300068D03*
G01X1578503Y2300068D03*
G54D13*
G01X1274249Y4156918D03*
G01X1474249Y4156918D03*
G01X3174465Y4156918D03*
G01X2974466Y4156918D03*
G54D29*
G01X2958098Y1248227D03*
G01X2818094Y1248227D03*
G54D13*
G01X3025000Y2200000D03*
G01X2825000Y2200000D03*
G54D14*
G01X458013Y2100013D03*
G01X991997Y2100013D03*
G01X458013Y1350013D03*
G01X991997Y1350013D03*
G54D13*
G01X1326288Y859315D03*
G01X1126288Y859315D03*
G54D15*
G01X2293777Y650000D03*
G01X2293777Y450000D03*
G01X1976737Y650000D03*
G01X1976737Y450000D03*
G01X2975000Y650000D03*
G01X2975000Y450000D03*
G54D30*
G01X1649021Y1788621D03*
G01X1799694Y1788621D03*
G54D27*
G01X2441288Y1744687D03*
G01X2441288Y1544687D03*
G01X2175000Y1550000D03*
G01X2175000Y1750000D03*
G04 Pad End*

G04 Via Start*
G54D31*
G01X225000Y2100000D03*
G01X4350000Y1349987D03*
G01X4350000Y2174988D03*
G01X1977067Y127000D03*
G01X2300000Y127000D03*
G01X2650000Y127000D03*
G01X2975000Y125000D03*
G01X929300Y875000D03*
G01X2425000Y1425000D03*
G01X3150000Y1250000D03*
G01X3150000Y2200000D03*
G01X1450000Y1400000D03*
G01X3325000Y3675000D03*
G01X2750000Y3025006D03*
G01X2250001Y2445001D03*
G01X1450000Y2300001D03*
G01X2430001Y2450001D03*
G01X1700001Y2455001D03*
G01X1825000Y3075000D03*
G01X1825000Y2025000D03*
G01X1225000Y2450000D03*
G01X1275000Y3085166D03*
G01X2028742Y3326172D03*
G01X2122172Y3232743D03*
G01X2437800Y3310500D03*
G01X2366213Y3244602D03*
G01X3200001Y3114834D03*
G01X1225000Y2357995D03*
G01X3384260Y2175026D03*
G01X232462Y1349199D03*
G01X3375000Y1350000D03*
G01X1250000Y1550000D03*
G01X553654Y1061654D03*
G01X553654Y1569654D03*
G01X553654Y2585654D03*
G01X1569654Y1569654D03*
G01X1569654Y2077654D03*
G01X2077654Y3601654D03*
G01X2585654Y1569654D03*
G01X2585654Y4109654D03*
G01X3093654Y553654D03*
G01X3093654Y1061654D03*
G01X3093654Y1569654D03*
G01X3093654Y2585654D03*
G01X3601654Y1061654D03*
G01X3601654Y2585654D03*
G01X3601654Y3093654D03*
G01X4109654Y1061654D03*
G01X4109654Y1569654D03*
G01X4109654Y2077654D03*
G01X4109654Y2585654D03*
G01X4109654Y3093654D03*
G04 Via End*

G04 Track Start*
G54D32*
G01X4116987Y1349987D02*
G01X4350000Y1349987D01*
G54D33*
G01X1977067Y800000D02*
G01X1977067Y636036D01*
G01X1995028Y817961D02*
G01X1977067Y800000D01*
G01X2300000Y816220D02*
G01X2301741Y817961D01*
G01X2650000Y805400D02*
G01X2662561Y817961D01*
G01X2950000Y816850D02*
G01X2948889Y817961D01*
G54D34*
G01X2948889Y817961D02*
G01X3082040Y817961D01*
G01X3583003Y1318924D01*
G54D32*
G01X3583003Y1318924D02*
G01X3583003Y1349987D01*
G54D35*
G01X3000000Y2200000D02*
G01X3150000Y2200000D01*
G01X3000000Y1250000D02*
G01X3150000Y1250000D01*
G01X1600000Y1400000D02*
G01X1450000Y1400000D01*
G01X2800000Y1600000D02*
G01X2800000Y1250000D01*
G01X2454000Y3087501D02*
G01X2966500Y3600000D01*
G01X3000000Y3600000D01*
G01X2046000Y3087501D02*
G01X1733500Y3400000D01*
G01X1650000Y3400000D01*
G01X2010001Y2874994D02*
G01X1785007Y2650000D01*
G01X1500000Y2650000D01*
G01X2490000Y2925007D02*
G01X2674994Y2925007D01*
G01X2800000Y2800000D01*
G01X2096013Y2810000D02*
G01X2096013Y2626013D01*
G01X1780001Y2310001D01*
G01X1580001Y2310001D02*
G01X1570001Y2300001D01*
G01X1450000Y2300001D01*
G01X1624994Y2974994D02*
G01X2010001Y2974994D01*
G01X1855006Y2925007D02*
G01X2010001Y2925007D01*
G01X1650000Y3400000D02*
G01X1650000Y3000000D01*
G01X1624994Y2974994D01*
G01X1650000Y3500003D02*
G01X1650000Y3400000D01*
G01X1080001Y4070002D02*
G01X1650000Y3500003D01*
G01X1080001Y4250002D02*
G01X1080001Y4070002D01*
G01X1170001Y4340002D02*
G01X1080001Y4250002D01*
G01X3000000Y3600000D02*
G01X3350002Y3950002D01*
G01X3240002Y4340002D02*
G01X1170001Y4340002D01*
G01X3350002Y4230002D02*
G01X3240002Y4340002D01*
G01X3350002Y3950002D02*
G01X3350002Y4230002D01*
G01X1680001Y2750001D02*
G01X1855006Y2925007D01*
G01X2800000Y2800000D02*
G01X2800000Y1800000D01*
G01X1800000Y1800000D02*
G01X1811035Y1788964D01*
G01X1811035Y1387972D01*
G01X2010001Y3025006D02*
G01X1874994Y3025006D01*
G01X1825000Y3075000D01*
G01X1800000Y1800000D02*
G01X1825000Y1825000D01*
G01X1825000Y2025000D01*
G54D36*
G01X1149999Y3085166D02*
G01X1275000Y3085166D01*
G54D35*
G01X2077457Y3272543D02*
G01X2077457Y3277457D01*
G54D33*
G01X2122172Y3232743D02*
G01X2077457Y3277457D01*
G01X2028742Y3326172D01*
G54D35*
G01X2146000Y2950000D02*
G01X2146000Y3208914D01*
G01X2122172Y3232743D01*
G54D12*
G01X2366213Y3244602D02*
G01X2432112Y3310500D01*
G01X2437800Y3310500D01*
G54D33*
G01X1977067Y436036D02*
G01X1977067Y127000D01*
G01X2300000Y450000D02*
G01X2300000Y127000D01*
G01X2650000Y450000D02*
G01X2650000Y127000D01*
G01X2662561Y817961D02*
G01X2301741Y817961D01*
G01X2650000Y650000D02*
G01X2650000Y805400D01*
G01X2300000Y650000D02*
G01X2300000Y816220D01*
G01X2948889Y817961D02*
G01X2662561Y817961D01*
G01X2975000Y425000D02*
G01X2975000Y125000D01*
G01X2950000Y450000D02*
G01X2975000Y425000D01*
G54D32*
G01X458013Y2100013D02*
G01X456475Y2101550D01*
G01X226550Y2101550D01*
G01X225000Y2100000D01*
G01X234012Y1350750D02*
G01X232462Y1349199D01*
G01X463937Y1350750D02*
G01X234012Y1350750D01*
G54D33*
G01X2950000Y650000D02*
G01X2950000Y725000D01*
G01X2950000Y816850D01*
G54D32*
G01X991997Y1350013D02*
G01X991997Y2100013D01*
G54D35*
G01X1649021Y1788621D02*
G01X1167179Y2270462D01*
G01X2490000Y2874994D02*
G01X2575000Y2789993D01*
G01X2175000Y1750000D02*
G01X2435975Y1750000D01*
G01X2441288Y1744687D01*
G01X2575000Y2789993D02*
G01X2575000Y1767961D01*
G01X2557040Y1750000D01*
G01X2446602Y1750000D01*
G01X2441288Y1744687D01*
G01X2425000Y1425000D02*
G01X2441288Y1441288D01*
G01X2441288Y1544687D01*
G01X2175000Y835878D02*
G01X2192917Y817961D01*
G54D33*
G01X2301741Y817961D02*
G01X2192917Y817961D01*
G01X1995028Y817961D01*
G54D35*
G01X2175000Y1550000D02*
G01X2175000Y835878D01*
G54D37*
G01X2304013Y3524014D02*
G01X2304013Y2950000D01*
G54D34*
G01X1325000Y1017010D02*
G01X991997Y1350013D01*
G54D35*
G01X1125000Y550000D02*
G01X1125000Y858027D01*
G01X1126288Y859315D01*
G01X929300Y875000D02*
G01X1110603Y875000D01*
G01X1126288Y859315D01*
G01X2354001Y2949999D02*
G01X2345913Y2958087D01*
G01X2345913Y3224301D01*
G01X2366213Y3244602D01*
G54D36*
G01X3300001Y3114834D02*
G01X3294518Y3109351D01*
G01X3205484Y3109351D01*
G01X3200001Y3114834D01*
G54D32*
G01X3375000Y1350000D02*
G01X3582990Y1350000D01*
G01X1225000Y2450000D02*
G01X1225000Y2357995D01*
G01X1225000Y2333016D02*
G01X1225000Y2357995D01*
G01X991997Y1350013D02*
G01X1050013Y1350013D01*
G01X1250000Y1550000D01*
G54D33*
G01X1325000Y550000D02*
G01X1325000Y1017010D01*
G54D32*
G01X991997Y2100013D02*
G01X1225000Y2333016D01*
G54D35*
G01X2046000Y2812500D02*
G01X2046000Y2801000D01*
G01X1700001Y2455001D01*
G54D37*
G01X2250001Y2949999D02*
G01X2250001Y2445001D01*
G54D35*
G01X2404013Y2810000D02*
G01X2404013Y2475990D01*
G01X2430001Y2450001D01*
G01X2454000Y2812500D02*
G01X2454000Y2474000D01*
G01X2430001Y2450001D01*
G01X2490000Y3025006D02*
G01X2750000Y3025006D01*
G01X1445969Y3166997D02*
G01X1450000Y3162966D01*
G01X1450000Y3036013D01*
G01X1380001Y2966013D01*
G01X1380001Y2775401D01*
G01X1405401Y2750001D01*
G01X1680001Y2750001D01*
G01X1523822Y2840655D02*
G01X1523822Y2873822D01*
G01X1624994Y2974994D01*
G54D32*
G01X4116987Y2174988D02*
G01X4350000Y2174988D01*
G01X3583003Y2175000D02*
G01X3583003Y1349987D01*
G01X3384286Y2175000D02*
G01X3583003Y2175000D01*
G54D37*
G01X2196012Y2950000D02*
G01X2196012Y3353988D01*
G01X2150000Y3400000D01*
G01X1249998Y4149997D02*
G01X1249999Y4075000D01*
G54D38*
G01X1249999Y4075000D02*
G01X1874999Y3450000D01*
G54D34*
G01X1874999Y3450000D02*
G01X1874999Y3366950D01*
G54D37*
G01X2090201Y3095787D02*
G01X2095987Y3090000D01*
G01X1874999Y3366950D02*
G01X2090201Y3151748D01*
G01X2090201Y3095787D01*
G01X2404013Y3090000D02*
G01X2404013Y3111669D01*
G01X2409800Y3117455D01*
G01X2409800Y3133132D01*
G01X2428369Y3151701D01*
G01X2444045Y3151701D01*
G01X2550000Y3257656D01*
G54D33*
G01X2550000Y3257656D02*
G01X2550000Y3332656D01*
G54D32*
G01X2550000Y3332656D02*
G01X2550000Y3333579D01*
G01X3200000Y3983579D02*
G01X3200000Y4150000D01*
G54D38*
G01X2550000Y3333579D02*
G01X3200000Y3983579D01*
G04 Track End*

M02*

