G04 Layer: BottomSolderMaskLayer*
G04 EasyEDA Pro v2.2.43.2, 2025-10-20 22:01:10*
G04 Gerber Generator version 0.3*
G04 Scale: 100 percent, Rotated: No, Reflected: No*
G04 Dimensions in millimeters*
G04 Leading zeros omitted, absolute positions, 4 integers and 5 decimals*
G04 Generated by one-click*
%FSLAX45Y45*%
%MOMM*%
%ADD10C,0.203*%
%ADD11O,1.9016X4.30159*%
%ADD12O,1.9016X4.10159*%
%ADD13O,4.10159X1.9016*%
%ADD14C,7.6016*%
%ADD15C,0.3163*%
G75*


G04 Text Start*
G54D10*
G01X3039840Y2252282D02*
G01X3014948Y2187004D01*
G01X2990056Y2252282D02*
G01X3014948Y2187004D01*
G01X2954750Y2252282D02*
G01X2951702Y2249234D01*
G01X2948654Y2252282D01*
G01X2951702Y2255584D01*
G01X2954750Y2252282D01*
G01X2951702Y2230692D02*
G01X2951702Y2187004D01*
G01X2913348Y2230692D02*
G01X2913348Y2187004D01*
G01X2913348Y2217992D02*
G01X2903950Y2227390D01*
G01X2897854Y2230692D01*
G01X2888456Y2230692D01*
G01X2882360Y2227390D01*
G01X2879058Y2217992D01*
G01X2879058Y2187004D01*
G01X2773902Y2252282D02*
G01X2773902Y2187004D01*
G01X2773902Y2252282D02*
G01X2749010Y2187004D01*
G01X2724118Y2252282D02*
G01X2749010Y2187004D01*
G01X2724118Y2252282D02*
G01X2724118Y2187004D01*
G01X2688812Y2252282D02*
G01X2685764Y2249234D01*
G01X2682716Y2252282D01*
G01X2685764Y2255584D01*
G01X2688812Y2252282D01*
G01X2685764Y2230692D02*
G01X2685764Y2187004D01*
G01X2647410Y2230692D02*
G01X2647410Y2187004D01*
G01X2647410Y2217992D02*
G01X2638012Y2227390D01*
G01X2631916Y2230692D01*
G01X2622518Y2230692D01*
G01X2616422Y2227390D01*
G01X2613120Y2217992D01*
G01X2613120Y2187004D01*
G01X2492470Y2252282D02*
G01X2501868Y2249234D01*
G01X2504916Y2243138D01*
G01X2504916Y2236788D01*
G01X2501868Y2230692D01*
G01X2495518Y2227390D01*
G01X2483072Y2224342D01*
G01X2473928Y2221294D01*
G01X2467578Y2214944D01*
G01X2464530Y2208848D01*
G01X2464530Y2199450D01*
G01X2467578Y2193100D01*
G01X2470626Y2190052D01*
G01X2480024Y2187004D01*
G01X2492470Y2187004D01*
G01X2501868Y2190052D01*
G01X2504916Y2193100D01*
G01X2507964Y2199450D01*
G01X2507964Y2208848D01*
G01X2504916Y2214944D01*
G01X2498820Y2221294D01*
G01X2489422Y2224342D01*
G01X2476976Y2227390D01*
G01X2470626Y2230692D01*
G01X2467578Y2236788D01*
G01X2467578Y2243138D01*
G01X2470626Y2249234D01*
G01X2480024Y2252282D01*
G01X2492470Y2252282D01*
G01X2429224Y2252282D02*
G01X2404332Y2187004D01*
G01X2379440Y2252282D02*
G01X2404332Y2187004D01*
G01X3039840Y2132394D02*
G01X3014948Y2066862D01*
G01X2990056Y2132394D02*
G01X3014948Y2066862D01*
G01X2954750Y2132394D02*
G01X2951702Y2129346D01*
G01X2948654Y2132394D01*
G01X2951702Y2135442D01*
G01X2954750Y2132394D01*
G01X2951702Y2110550D02*
G01X2951702Y2066862D01*
G01X2913348Y2110550D02*
G01X2913348Y2066862D01*
G01X2913348Y2098104D02*
G01X2903950Y2107502D01*
G01X2897854Y2110550D01*
G01X2888456Y2110550D01*
G01X2882360Y2107502D01*
G01X2879058Y2098104D01*
G01X2879058Y2066862D01*
G01X2773902Y2132394D02*
G01X2773902Y2066862D01*
G01X2773902Y2132394D02*
G01X2749010Y2066862D01*
G01X2724118Y2132394D02*
G01X2749010Y2066862D01*
G01X2724118Y2132394D02*
G01X2724118Y2066862D01*
G01X2651474Y2110550D02*
G01X2651474Y2066862D01*
G01X2651474Y2101152D02*
G01X2657824Y2107502D01*
G01X2663920Y2110550D01*
G01X2673318Y2110550D01*
G01X2679414Y2107502D01*
G01X2685764Y2101152D01*
G01X2688812Y2092008D01*
G01X2688812Y2085658D01*
G01X2685764Y2076260D01*
G01X2679414Y2070164D01*
G01X2673318Y2066862D01*
G01X2663920Y2066862D01*
G01X2657824Y2070164D01*
G01X2651474Y2076260D01*
G01X2616168Y2110550D02*
G01X2581878Y2066862D01*
G01X2581878Y2110550D02*
G01X2616168Y2066862D01*
G01X2476722Y2119948D02*
G01X2470626Y2122996D01*
G01X2461228Y2132394D01*
G01X2461228Y2066862D01*
G01X2388584Y2122996D02*
G01X2391632Y2129346D01*
G01X2401030Y2132394D01*
G01X2407380Y2132394D01*
G01X2416524Y2129346D01*
G01X2422874Y2119948D01*
G01X2425922Y2104454D01*
G01X2425922Y2088706D01*
G01X2422874Y2076260D01*
G01X2416524Y2070164D01*
G01X2407380Y2066862D01*
G01X2404078Y2066862D01*
G01X2394934Y2070164D01*
G01X2388584Y2076260D01*
G01X2385536Y2085658D01*
G01X2385536Y2088706D01*
G01X2388584Y2098104D01*
G01X2394934Y2104454D01*
G01X2404078Y2107502D01*
G01X2407380Y2107502D01*
G01X2416524Y2104454D01*
G01X2422874Y2098104D01*
G01X2425922Y2088706D01*
G01X2350230Y2132394D02*
G01X2325338Y2066862D01*
G01X2300446Y2132394D02*
G01X2325338Y2066862D01*
G01X3039840Y2012506D02*
G01X3014948Y1946974D01*
G01X2990056Y2012506D02*
G01X3014948Y1946974D01*
G01X2939256Y1990662D02*
G01X2945352Y1987360D01*
G01X2951702Y1981264D01*
G01X2954750Y1971866D01*
G01X2954750Y1965770D01*
G01X2951702Y1956372D01*
G01X2945352Y1950022D01*
G01X2939256Y1946974D01*
G01X2929858Y1946974D01*
G01X2923762Y1950022D01*
G01X2917412Y1956372D01*
G01X2914364Y1965770D01*
G01X2914364Y1971866D01*
G01X2917412Y1981264D01*
G01X2923762Y1987360D01*
G01X2929858Y1990662D01*
G01X2939256Y1990662D01*
G01X2879058Y1990662D02*
G01X2879058Y1959420D01*
G01X2876010Y1950022D01*
G01X2869660Y1946974D01*
G01X2860516Y1946974D01*
G01X2854166Y1950022D01*
G01X2844768Y1959420D01*
G01X2844768Y1990662D02*
G01X2844768Y1946974D01*
G01X2800064Y2012506D02*
G01X2800064Y1959420D01*
G01X2797016Y1950022D01*
G01X2790920Y1946974D01*
G01X2784570Y1946974D01*
G01X2809462Y1990662D02*
G01X2787618Y1990662D01*
G01X2679414Y1999806D02*
G01X2673318Y2003108D01*
G01X2663920Y2012506D01*
G01X2663920Y1946974D01*
G01X2625566Y1996758D02*
G01X2625566Y1999806D01*
G01X2622518Y2006156D01*
G01X2619216Y2009204D01*
G01X2613120Y2012506D01*
G01X2600674Y2012506D01*
G01X2594324Y2009204D01*
G01X2591276Y2006156D01*
G01X2588228Y1999806D01*
G01X2588228Y1993710D01*
G01X2591276Y1987360D01*
G01X2597626Y1978216D01*
G01X2628614Y1946974D01*
G01X2584926Y1946974D01*
G01X2549620Y2012506D02*
G01X2524728Y1946974D01*
G01X2499836Y2012506D02*
G01X2524728Y1946974D01*
G01X3039840Y1892364D02*
G01X3014948Y1827086D01*
G01X2990056Y1892364D02*
G01X3014948Y1827086D01*
G01X2939256Y1870520D02*
G01X2945352Y1867472D01*
G01X2951702Y1861122D01*
G01X2954750Y1851978D01*
G01X2954750Y1845628D01*
G01X2951702Y1836230D01*
G01X2945352Y1830134D01*
G01X2939256Y1827086D01*
G01X2929858Y1827086D01*
G01X2923762Y1830134D01*
G01X2917412Y1836230D01*
G01X2914364Y1845628D01*
G01X2914364Y1851978D01*
G01X2917412Y1861122D01*
G01X2923762Y1867472D01*
G01X2929858Y1870520D01*
G01X2939256Y1870520D01*
G01X2879058Y1870520D02*
G01X2879058Y1839532D01*
G01X2876010Y1830134D01*
G01X2869660Y1827086D01*
G01X2860516Y1827086D01*
G01X2854166Y1830134D01*
G01X2844768Y1839532D01*
G01X2844768Y1870520D02*
G01X2844768Y1827086D01*
G01X2800064Y1892364D02*
G01X2800064Y1839532D01*
G01X2797016Y1830134D01*
G01X2790920Y1827086D01*
G01X2784570Y1827086D01*
G01X2809462Y1870520D02*
G01X2787618Y1870520D01*
G01X2679414Y1892364D02*
G01X2679414Y1827086D01*
G01X2679414Y1892364D02*
G01X2651474Y1892364D01*
G01X2642076Y1889316D01*
G01X2639028Y1886268D01*
G01X2635980Y1879918D01*
G01X2635980Y1870520D01*
G01X2639028Y1864424D01*
G01X2642076Y1861122D01*
G01X2651474Y1858074D01*
G01X2679414Y1858074D01*
G01X2600674Y1892364D02*
G01X2600674Y1827086D01*
G01X2600674Y1892364D02*
G01X2572734Y1892364D01*
G01X2563336Y1889316D01*
G01X2560288Y1886268D01*
G01X2556986Y1879918D01*
G01X2556986Y1870520D01*
G01X2560288Y1864424D01*
G01X2563336Y1861122D01*
G01X2572734Y1858074D01*
G01X2600674Y1858074D01*
G01X2451830Y1879918D02*
G01X2445734Y1882966D01*
G01X2436336Y1892364D01*
G01X2436336Y1827086D01*
G01X2382488Y1892364D02*
G01X2391632Y1889316D01*
G01X2397982Y1879918D01*
G01X2401030Y1864424D01*
G01X2401030Y1855026D01*
G01X2397982Y1839532D01*
G01X2391632Y1830134D01*
G01X2382488Y1827086D01*
G01X2376138Y1827086D01*
G01X2366740Y1830134D01*
G01X2360644Y1839532D01*
G01X2357342Y1855026D01*
G01X2357342Y1864424D01*
G01X2360644Y1879918D01*
G01X2366740Y1889316D01*
G01X2376138Y1892364D01*
G01X2382488Y1892364D01*
G01X2318988Y1842580D02*
G01X2322036Y1839532D01*
G01X2318988Y1836230D01*
G01X2315940Y1839532D01*
G01X2318988Y1842580D01*
G01X2274538Y1892364D02*
G01X2240248Y1892364D01*
G01X2258790Y1867472D01*
G01X2249646Y1867472D01*
G01X2243296Y1864424D01*
G01X2240248Y1861122D01*
G01X2236946Y1851978D01*
G01X2236946Y1845628D01*
G01X2240248Y1836230D01*
G01X2246344Y1830134D01*
G01X2255742Y1827086D01*
G01X2265140Y1827086D01*
G01X2274538Y1830134D01*
G01X2277586Y1833182D01*
G01X2280634Y1839532D01*
G01X2201640Y1870520D02*
G01X2201640Y1827086D01*
G01X2201640Y1858074D02*
G01X2192242Y1867472D01*
G01X2186146Y1870520D01*
G01X2176748Y1870520D01*
G01X2170652Y1867472D01*
G01X2167350Y1858074D01*
G01X2167350Y1827086D01*
G01X2167350Y1858074D02*
G01X2157952Y1867472D01*
G01X2151856Y1870520D01*
G01X2142458Y1870520D01*
G01X2136362Y1867472D01*
G01X2133060Y1858074D01*
G01X2133060Y1827086D01*
G01X2097754Y1892364D02*
G01X2072862Y1827086D01*
G01X2047970Y1892364D02*
G01X2072862Y1827086D01*
G01X3039840Y1772476D02*
G01X3039840Y1706944D01*
G01X2989040Y1750632D02*
G01X2995136Y1747584D01*
G01X3001486Y1741234D01*
G01X3004534Y1731836D01*
G01X3004534Y1725740D01*
G01X3001486Y1716342D01*
G01X2995136Y1709992D01*
G01X2989040Y1706944D01*
G01X2979642Y1706944D01*
G01X2973546Y1709992D01*
G01X2967196Y1716342D01*
G01X2964148Y1725740D01*
G01X2964148Y1731836D01*
G01X2967196Y1741234D01*
G01X2973546Y1747584D01*
G01X2979642Y1750632D01*
G01X2989040Y1750632D01*
G01X2928842Y1750632D02*
G01X2928842Y1719390D01*
G01X2925794Y1709992D01*
G01X2919444Y1706944D01*
G01X2910300Y1706944D01*
G01X2903950Y1709992D01*
G01X2894552Y1719390D01*
G01X2894552Y1750632D02*
G01X2894552Y1706944D01*
G01X2849848Y1772476D02*
G01X2849848Y1719390D01*
G01X2846800Y1709992D01*
G01X2840704Y1706944D01*
G01X2834354Y1706944D01*
G01X2859246Y1750632D02*
G01X2837402Y1750632D01*
G01X2729198Y1772476D02*
G01X2729198Y1706944D01*
G01X2729198Y1772476D02*
G01X2704306Y1706944D01*
G01X2679414Y1772476D02*
G01X2704306Y1706944D01*
G01X2679414Y1772476D02*
G01X2679414Y1706944D01*
G01X2606770Y1750632D02*
G01X2606770Y1706944D01*
G01X2606770Y1741234D02*
G01X2613120Y1747584D01*
G01X2619216Y1750632D01*
G01X2628614Y1750632D01*
G01X2634710Y1747584D01*
G01X2641060Y1741234D01*
G01X2644108Y1731836D01*
G01X2644108Y1725740D01*
G01X2641060Y1716342D01*
G01X2634710Y1709992D01*
G01X2628614Y1706944D01*
G01X2619216Y1706944D01*
G01X2613120Y1709992D01*
G01X2606770Y1716342D01*
G01X2571464Y1750632D02*
G01X2537174Y1706944D01*
G01X2537174Y1750632D02*
G01X2571464Y1706944D01*
G01X2331180Y1772476D02*
G01X2362422Y1728788D01*
G01X2315686Y1728788D01*
G01X2331180Y1772476D02*
G01X2331180Y1706944D01*
G01X2255488Y1772476D02*
G01X2280380Y1706944D01*
G01X2255488Y1772476D02*
G01X2230596Y1706944D01*
G01X2270982Y1728788D02*
G01X2239994Y1728788D01*
G04 Text End*

G04 Pad Start*
G54D11*
G01X1149999Y3060166D03*
G54D12*
G01X550001Y3060166D03*
G54D13*
G01X849975Y2589834D03*
G54D11*
G01X3325001Y3064834D03*
G54D12*
G01X3925000Y3064834D03*
G54D13*
G01X3625026Y3535166D03*
G54D14*
G01X500000Y500000D03*
G01X500000Y4000000D03*
G01X4000000Y4000000D03*
G01X4000000Y500000D03*
G04 Pad End*

M02*

