G04 Layer: BottomLayer*
G04 EasyEDA Pro v2.2.43.4, 2025-10-30 16:07:04*
G04 Gerber Generator version 0.3*
G04 Scale: 100 percent, Rotated: No, Reflected: No*
G04 Dimensions in millimeters*
G04 Leading zeros omitted, absolute positions, 4 integers and 5 decimals*
G04 Generated by one-click*
%FSLAX45Y45*%
%MOMM*%
%ADD10C,0.2032*%
%ADD11C,0.5*%
%ADD12C,0.4*%
%ADD13C,0.203*%
%ADD14O,1.8X4.19999*%
%ADD15O,1.8X3.99999*%
%ADD16O,3.99999X1.8*%
%ADD17C,7.5*%
%ADD18C,1.5238*%
%ADD19C,1.524*%
%ADD20C,0.61*%
G75*


G04 Copper Start*
G36*
G01X1339840Y3364840D02*
G01X1339840Y2260160D01*
G01X1135160Y2260160D01*
G01X1135160Y2750000D01*
G01X1134387Y2753888D01*
G01X1132184Y2757184D01*
G01X1082184Y2807184D01*
G01X1078888Y2809387D01*
G01X1075000Y2810160D01*
G01X979209Y2810160D01*
G01X960160Y2829209D01*
G01X960160Y3180166D01*
G01X1024186Y3180166D01*
G01X1024186Y2940166D01*
G01X1026097Y2918319D01*
G01X1031773Y2897135D01*
G01X1041042Y2877259D01*
G01X1053621Y2859295D01*
G01X1069128Y2843787D01*
G01X1087093Y2831208D01*
G01X1106969Y2821940D01*
G01X1128152Y2816264D01*
G01X1149999Y2814352D01*
G01X1171847Y2816264D01*
G01X1193030Y2821940D01*
G01X1212906Y2831208D01*
G01X1230871Y2843787D01*
G01X1246378Y2859295D01*
G01X1258957Y2877259D01*
G01X1268226Y2897135D01*
G01X1273902Y2918319D01*
G01X1275813Y2940166D01*
G01X1275813Y3180166D01*
G01X1273902Y3202013D01*
G01X1268226Y3223197D01*
G01X1258957Y3243073D01*
G01X1246378Y3261037D01*
G01X1230871Y3276545D01*
G01X1212906Y3289124D01*
G01X1193030Y3298392D01*
G01X1171847Y3304068D01*
G01X1149999Y3305980D01*
G01X1128152Y3304068D01*
G01X1106969Y3298392D01*
G01X1087093Y3289124D01*
G01X1069128Y3276545D01*
G01X1053621Y3261037D01*
G01X1041042Y3243073D01*
G01X1031773Y3223197D01*
G01X1026097Y3202013D01*
G01X1024186Y3180166D01*
G01X1024186Y3180166D01*
G01X960160Y3180166D01*
G01X960160Y3364840D01*
G01X1339840Y3364840D01*
G37*
G36*
G01X1009346Y2940166D02*
G01X1011140Y2917774D01*
G01X1016476Y2895952D01*
G01X1025218Y2875259D01*
G01X1037143Y2856221D01*
G01X1051947Y2839324D01*
G01X1069252Y2825000D01*
G01X975000Y2825000D01*
G01X975000Y3514645D01*
G01X1035355Y3575000D01*
G01X1814645Y3575000D01*
G01X2171012Y3218633D01*
G01X2171012Y2785161D01*
G01X2109534Y2785161D01*
G01X2109534Y3059885D01*
G01X2108613Y3066607D01*
G01X2105918Y3072835D01*
G01X2101648Y3078108D01*
G01X1942481Y3227590D01*
G01X1934677Y3236924D01*
G01X1924872Y3244127D01*
G01X1922232Y3246607D01*
G01X1914321Y3251627D01*
G01X1905117Y3253383D01*
G01X1376492Y3253383D01*
G01X1366925Y3251480D01*
G01X1358814Y3246061D01*
G01X1353395Y3237950D01*
G01X1351492Y3228383D01*
G01X1351492Y1440288D01*
G01X1150000Y1440288D01*
G01X1150000Y2799513D01*
G01X1172003Y2801244D01*
G01X1193464Y2806397D01*
G01X1213855Y2814843D01*
G01X1232674Y2826375D01*
G01X1249457Y2840709D01*
G01X1263791Y2857492D01*
G01X1275323Y2876311D01*
G01X1283769Y2896702D01*
G01X1288922Y2918163D01*
G01X1290653Y2940166D01*
G01X1290653Y3180166D01*
G01X1288735Y3203317D01*
G01X1283032Y3225836D01*
G01X1273701Y3247110D01*
G01X1260995Y3266557D01*
G01X1245262Y3283648D01*
G01X1226930Y3297916D01*
G01X1206499Y3308973D01*
G01X1184528Y3316516D01*
G01X1161615Y3320339D01*
G01X1138384Y3320339D01*
G01X1115471Y3316516D01*
G01X1093500Y3308973D01*
G01X1073069Y3297916D01*
G01X1054737Y3283648D01*
G01X1039004Y3266557D01*
G01X1026298Y3247110D01*
G01X1016967Y3225836D01*
G01X1011264Y3203317D01*
G01X1009346Y3180166D01*
G01X1009346Y2940166D01*
G37*
G36*
G01X1757780Y1967100D02*
G01X1757780Y3189840D01*
G01X1889840Y3189840D01*
G01X1889840Y1967100D01*
G01X1757780Y1967100D01*
G37*
G36*
G01X3125000Y3260160D02*
G01X2525000Y3260160D01*
G01X2519920Y3258799D01*
G01X2516201Y3255080D01*
G01X2514840Y3250000D01*
G01X2514840Y2792780D01*
G01X2310160Y2792780D01*
G01X2310160Y3495792D01*
G01X2393045Y3578676D01*
G01X3183489Y3578676D01*
G01X3514840Y3245805D01*
G01X3514840Y1290575D01*
G01X3296547Y1290575D01*
G01X3296547Y2714524D01*
G01X3295768Y2718426D01*
G01X3293551Y2721729D01*
G01X3135160Y2879225D01*
G01X3135160Y3184834D01*
G01X3199187Y3184834D01*
G01X3199187Y2944834D01*
G01X3201098Y2922987D01*
G01X3206774Y2901803D01*
G01X3216043Y2881927D01*
G01X3228622Y2863963D01*
G01X3244129Y2848455D01*
G01X3262094Y2835876D01*
G01X3281970Y2826608D01*
G01X3303153Y2820932D01*
G01X3325001Y2819021D01*
G01X3346848Y2820932D01*
G01X3368032Y2826608D01*
G01X3387908Y2835876D01*
G01X3405872Y2848455D01*
G01X3421380Y2863963D01*
G01X3433959Y2881927D01*
G01X3443227Y2901803D01*
G01X3448903Y2922987D01*
G01X3450815Y2944834D01*
G01X3450815Y2944834D01*
G01X3450815Y3184834D01*
G01X3448903Y3206681D01*
G01X3443227Y3227865D01*
G01X3433959Y3247741D01*
G01X3421380Y3265705D01*
G01X3405872Y3281213D01*
G01X3387908Y3293792D01*
G01X3368032Y3303060D01*
G01X3346848Y3308736D01*
G01X3325001Y3310648D01*
G01X3303153Y3308736D01*
G01X3281970Y3303060D01*
G01X3262094Y3293792D01*
G01X3244129Y3281213D01*
G01X3228622Y3265705D01*
G01X3216043Y3247741D01*
G01X3206774Y3227865D01*
G01X3201098Y3206681D01*
G01X3199187Y3184834D01*
G01X3135160Y3184834D01*
G01X3135160Y3250000D01*
G01X3133799Y3255080D01*
G01X3130080Y3258799D01*
G01X3125000Y3260160D01*
G37*
G36*
G01X45654Y4130000D02*
G01X47431Y4163903D01*
G01X52742Y4197435D01*
G01X61529Y4230228D01*
G01X73695Y4261923D01*
G01X89108Y4292173D01*
G01X107599Y4320646D01*
G01X128964Y4347030D01*
G01X152970Y4371036D01*
G01X179354Y4392401D01*
G01X207827Y4410892D01*
G01X238077Y4426305D01*
G01X269772Y4438471D01*
G01X302565Y4447258D01*
G01X336097Y4452569D01*
G01X370000Y4454346D01*
G01X4130000Y4454346D01*
G01X4163903Y4452569D01*
G01X4197435Y4447258D01*
G01X4230228Y4438471D01*
G01X4261923Y4426305D01*
G01X4292173Y4410892D01*
G01X4320646Y4392401D01*
G01X4347030Y4371036D01*
G01X4371036Y4347030D01*
G01X4392401Y4320646D01*
G01X4410892Y4292173D01*
G01X4426305Y4261923D01*
G01X4438471Y4230228D01*
G01X4447258Y4197435D01*
G01X4452569Y4163903D01*
G01X4454346Y4130000D01*
G01X4454346Y370000D01*
G01X4452569Y336097D01*
G01X4447258Y302565D01*
G01X4438471Y269772D01*
G01X4426305Y238077D01*
G01X4410892Y207827D01*
G01X4392401Y179354D01*
G01X4371036Y152970D01*
G01X4347030Y128964D01*
G01X4320646Y107599D01*
G01X4292173Y89108D01*
G01X4261923Y73695D01*
G01X4230228Y61529D01*
G01X4197435Y52742D01*
G01X4163903Y47431D01*
G01X4130000Y45654D01*
G01X370000Y45654D01*
G01X336097Y47431D01*
G01X302565Y52742D01*
G01X269772Y61529D01*
G01X238077Y73695D01*
G01X207827Y89108D01*
G01X179354Y107599D01*
G01X152970Y128964D01*
G01X128964Y152970D01*
G01X107599Y179354D01*
G01X89108Y207827D01*
G01X73695Y238077D01*
G01X61529Y269772D01*
G01X52742Y302565D01*
G01X47431Y336097D01*
G01X45654Y370000D01*
G01X45654Y500000D01*
G01X79346Y500000D01*
G01X81372Y458769D01*
G01X87429Y417934D01*
G01X97459Y377891D01*
G01X111366Y339023D01*
G01X129016Y301705D01*
G01X150239Y266297D01*
G01X174830Y233140D01*
G01X202553Y202553D01*
G01X233140Y174830D01*
G01X266297Y150239D01*
G01X301705Y129016D01*
G01X339023Y111366D01*
G01X377891Y97459D01*
G01X417934Y87429D01*
G01X458769Y81372D01*
G01X500000Y79346D01*
G01X541231Y81372D01*
G01X582066Y87429D01*
G01X622109Y97459D01*
G01X660977Y111366D01*
G01X698295Y129016D01*
G01X733703Y150239D01*
G01X766860Y174830D01*
G01X794631Y200000D01*
G01X1346968Y200000D01*
G01X1348524Y188184D01*
G01X1353085Y177173D01*
G01X1360340Y167718D01*
G01X1369795Y160463D01*
G01X1380806Y155902D01*
G01X1392622Y154346D01*
G01X3100000Y154346D01*
G01X3111816Y155902D01*
G01X3122827Y160463D01*
G01X3132282Y167718D01*
G01X3139538Y177173D01*
G01X3144098Y188184D01*
G01X3145654Y200000D01*
G01X3145654Y500000D01*
G01X3579346Y500000D01*
G01X3581372Y458769D01*
G01X3587429Y417934D01*
G01X3597459Y377891D01*
G01X3611367Y339023D01*
G01X3629016Y301705D01*
G01X3650239Y266297D01*
G01X3674830Y233140D01*
G01X3702553Y202553D01*
G01X3733140Y174830D01*
G01X3766297Y150239D01*
G01X3801705Y129016D01*
G01X3839023Y111366D01*
G01X3877891Y97459D01*
G01X3917935Y87429D01*
G01X3958769Y81372D01*
G01X4000000Y79346D01*
G01X4041231Y81372D01*
G01X4082066Y87429D01*
G01X4122110Y97459D01*
G01X4160977Y111366D01*
G01X4198295Y129016D01*
G01X4233703Y150239D01*
G01X4266860Y174830D01*
G01X4297447Y202553D01*
G01X4325170Y233140D01*
G01X4349761Y266297D01*
G01X4370984Y301705D01*
G01X4388634Y339023D01*
G01X4402541Y377891D01*
G01X4412571Y417934D01*
G01X4418629Y458769D01*
G01X4420654Y500000D01*
G01X4418629Y541231D01*
G01X4412571Y582066D01*
G01X4402541Y622109D01*
G01X4388634Y660977D01*
G01X4370984Y698295D01*
G01X4349761Y733703D01*
G01X4325170Y766860D01*
G01X4297447Y797447D01*
G01X4266860Y825170D01*
G01X4233703Y849761D01*
G01X4198295Y870984D01*
G01X4160977Y888634D01*
G01X4122110Y902541D01*
G01X4082066Y912571D01*
G01X4041231Y918628D01*
G01X4000000Y920654D01*
G01X3958769Y918628D01*
G01X3917935Y912571D01*
G01X3877891Y902541D01*
G01X3839023Y888634D01*
G01X3801705Y870984D01*
G01X3766297Y849761D01*
G01X3733140Y825170D01*
G01X3702553Y797447D01*
G01X3674830Y766860D01*
G01X3650239Y733703D01*
G01X3629016Y698295D01*
G01X3611367Y660977D01*
G01X3597459Y622109D01*
G01X3587429Y582066D01*
G01X3581372Y541231D01*
G01X3579346Y500000D01*
G01X3579346Y500000D01*
G01X3145654Y500000D01*
G01X3145654Y809600D01*
G01X3144098Y821416D01*
G01X3139538Y832427D01*
G01X3132282Y841882D01*
G01X3122827Y849138D01*
G01X3111816Y853698D01*
G01X3100000Y855254D01*
G01X1392622Y855254D01*
G01X1380806Y853698D01*
G01X1369795Y849138D01*
G01X1360340Y841882D01*
G01X1353085Y832427D01*
G01X1348524Y821416D01*
G01X1346968Y809600D01*
G01X1346968Y200000D01*
G01X1346968Y200000D01*
G01X794631Y200000D01*
G01X797447Y202553D01*
G01X825170Y233140D01*
G01X849761Y266297D01*
G01X870984Y301705D01*
G01X888634Y339023D01*
G01X902541Y377891D01*
G01X912571Y417934D01*
G01X918628Y458769D01*
G01X920654Y500000D01*
G01X918628Y541231D01*
G01X912571Y582066D01*
G01X902541Y622109D01*
G01X888634Y660977D01*
G01X870984Y698295D01*
G01X849761Y733703D01*
G01X825170Y766860D01*
G01X797447Y797447D01*
G01X766860Y825170D01*
G01X733703Y849761D01*
G01X698295Y870984D01*
G01X660977Y888634D01*
G01X622109Y902541D01*
G01X582066Y912571D01*
G01X541231Y918628D01*
G01X500000Y920654D01*
G01X458769Y918628D01*
G01X417934Y912571D01*
G01X377891Y902541D01*
G01X339023Y888634D01*
G01X301705Y870984D01*
G01X266297Y849761D01*
G01X233140Y825170D01*
G01X202553Y797447D01*
G01X174830Y766860D01*
G01X150239Y733703D01*
G01X129016Y698295D01*
G01X111366Y660977D01*
G01X97459Y622109D01*
G01X87429Y582066D01*
G01X81372Y541231D01*
G01X79346Y500000D01*
G01X79346Y500000D01*
G01X45654Y500000D01*
G01X45654Y1021000D01*
G01X1705146Y1021000D01*
G01X1706997Y999840D01*
G01X1712495Y979323D01*
G01X1721472Y960073D01*
G01X1733655Y942674D01*
G01X1748674Y927654D01*
G01X1766073Y915471D01*
G01X1785324Y906495D01*
G01X1805840Y900997D01*
G01X1827000Y899146D01*
G01X1827000Y899146D01*
G01X1848160Y900997D01*
G01X1868677Y906495D01*
G01X1887927Y915471D01*
G01X1905326Y927654D01*
G01X1920346Y942674D01*
G01X1932529Y960073D01*
G01X1941505Y979323D01*
G01X1947003Y999840D01*
G01X1948854Y1021000D01*
G01X1948854Y1021000D01*
G01X2576146Y1021000D01*
G01X2577997Y999840D01*
G01X2583495Y979324D01*
G01X2592471Y960073D01*
G01X2604655Y942674D01*
G01X2619674Y927654D01*
G01X2637073Y915471D01*
G01X2656324Y906495D01*
G01X2676840Y900997D01*
G01X2698000Y899146D01*
G01X2719160Y900997D01*
G01X2739677Y906495D01*
G01X2758927Y915471D01*
G01X2776326Y927654D01*
G01X2791346Y942674D01*
G01X2803529Y960073D01*
G01X2812505Y979324D01*
G01X2818003Y999840D01*
G01X2819854Y1021000D01*
G01X2818003Y1042160D01*
G01X2812505Y1062677D01*
G01X2803529Y1081927D01*
G01X2791346Y1099326D01*
G01X2776326Y1114346D01*
G01X2758927Y1126529D01*
G01X2739677Y1135505D01*
G01X2719160Y1141003D01*
G01X2698000Y1142854D01*
G01X2698000Y1142854D01*
G01X2676840Y1141003D01*
G01X2656324Y1135505D01*
G01X2637073Y1126529D01*
G01X2619674Y1114346D01*
G01X2604655Y1099326D01*
G01X2592471Y1081927D01*
G01X2583495Y1062677D01*
G01X2577997Y1042160D01*
G01X2576146Y1021000D01*
G01X1948854Y1021000D01*
G01X1947003Y1042160D01*
G01X1941505Y1062676D01*
G01X1932529Y1081927D01*
G01X1920346Y1099326D01*
G01X1905326Y1114346D01*
G01X1887927Y1126529D01*
G01X1868677Y1135505D01*
G01X1848160Y1141003D01*
G01X1827000Y1142854D01*
G01X1805840Y1141003D01*
G01X1785324Y1135505D01*
G01X1766073Y1126529D01*
G01X1748674Y1114346D01*
G01X1733655Y1099326D01*
G01X1721472Y1081927D01*
G01X1712495Y1062676D01*
G01X1706997Y1042160D01*
G01X1705146Y1021000D01*
G01X45654Y1021000D01*
G01X45654Y1275000D01*
G01X1451146Y1275000D01*
G01X1452997Y1253840D01*
G01X1458495Y1233323D01*
G01X1467472Y1214073D01*
G01X1479655Y1196674D01*
G01X1494674Y1181654D01*
G01X1512073Y1169471D01*
G01X1531324Y1160495D01*
G01X1551840Y1154997D01*
G01X1573000Y1153146D01*
G01X1573000Y1153146D01*
G01X1594160Y1154997D01*
G01X1614677Y1160495D01*
G01X1633927Y1169471D01*
G01X1651326Y1181654D01*
G01X1666346Y1196674D01*
G01X1678529Y1214073D01*
G01X1687505Y1233323D01*
G01X1693003Y1253840D01*
G01X1694854Y1275000D01*
G01X1694854Y1275000D01*
G01X2830146Y1275000D01*
G01X2831997Y1253840D01*
G01X2837495Y1233324D01*
G01X2846471Y1214073D01*
G01X2858655Y1196674D01*
G01X2873674Y1181654D01*
G01X2891073Y1169471D01*
G01X2910324Y1160495D01*
G01X2930840Y1154997D01*
G01X2952000Y1153146D01*
G01X2973160Y1154997D01*
G01X2993677Y1160495D01*
G01X3012927Y1169471D01*
G01X3030326Y1181654D01*
G01X3045346Y1196674D01*
G01X3057529Y1214073D01*
G01X3066505Y1233324D01*
G01X3072003Y1253840D01*
G01X3073854Y1275000D01*
G01X3072003Y1296160D01*
G01X3066505Y1316677D01*
G01X3057529Y1335927D01*
G01X3045346Y1353326D01*
G01X3030326Y1368346D01*
G01X3012927Y1380529D01*
G01X2993677Y1389505D01*
G01X2973160Y1395003D01*
G01X2952000Y1396854D01*
G01X2952000Y1396854D01*
G01X2930840Y1395003D01*
G01X2910324Y1389505D01*
G01X2891073Y1380529D01*
G01X2873674Y1368346D01*
G01X2858655Y1353326D01*
G01X2846471Y1335927D01*
G01X2837495Y1316677D01*
G01X2831997Y1296160D01*
G01X2830146Y1275000D01*
G01X1694854Y1275000D01*
G01X1693003Y1296160D01*
G01X1687505Y1316676D01*
G01X1678529Y1335927D01*
G01X1666346Y1353326D01*
G01X1651326Y1368346D01*
G01X1633927Y1380529D01*
G01X1614677Y1389505D01*
G01X1594160Y1395003D01*
G01X1573000Y1396854D01*
G01X1551840Y1395003D01*
G01X1531324Y1389505D01*
G01X1512073Y1380529D01*
G01X1494674Y1368346D01*
G01X1479655Y1353326D01*
G01X1467472Y1335927D01*
G01X1458495Y1316676D01*
G01X1452997Y1296160D01*
G01X1451146Y1275000D01*
G01X45654Y1275000D01*
G01X45654Y2601036D01*
G01X604784Y2601036D01*
G01X604784Y2578632D01*
G01X608472Y2556533D01*
G01X615747Y2535343D01*
G01X626410Y2515639D01*
G01X640171Y2497958D01*
G01X656655Y2482784D01*
G01X675411Y2470530D01*
G01X695928Y2461531D01*
G01X717647Y2456031D01*
G01X739975Y2454181D01*
G01X959974Y2454181D01*
G01X980741Y2455779D01*
G01X1001017Y2460538D01*
G01X1020326Y2468345D01*
G01X1038213Y2479016D01*
G01X1054255Y2492299D01*
G01X1068075Y2507881D01*
G01X1079346Y2525395D01*
G01X1079346Y1415288D01*
G01X1080902Y1403472D01*
G01X1085463Y1392461D01*
G01X1092718Y1383006D01*
G01X1102173Y1375750D01*
G01X1113184Y1371189D01*
G01X1125000Y1369634D01*
G01X1376492Y1369634D01*
G01X1388308Y1371189D01*
G01X1399319Y1375750D01*
G01X1408774Y1383006D01*
G01X1416030Y1392461D01*
G01X1420590Y1403472D01*
G01X1422146Y1415288D01*
G01X1422146Y1529000D01*
G01X1705146Y1529000D01*
G01X1706997Y1507840D01*
G01X1712495Y1487323D01*
G01X1721472Y1468073D01*
G01X1733655Y1450674D01*
G01X1748674Y1435654D01*
G01X1766073Y1423471D01*
G01X1785324Y1414495D01*
G01X1805840Y1408997D01*
G01X1827000Y1407146D01*
G01X1827000Y1407146D01*
G01X1848160Y1408997D01*
G01X1868677Y1414495D01*
G01X1887927Y1423471D01*
G01X1905326Y1435654D01*
G01X1920346Y1450674D01*
G01X1932529Y1468073D01*
G01X1941505Y1487323D01*
G01X1947003Y1507840D01*
G01X1948854Y1529000D01*
G01X1948854Y1529000D01*
G01X2576146Y1529000D01*
G01X2577997Y1507840D01*
G01X2583495Y1487324D01*
G01X2592471Y1468073D01*
G01X2604655Y1450674D01*
G01X2619674Y1435654D01*
G01X2637073Y1423471D01*
G01X2656324Y1414495D01*
G01X2676840Y1408997D01*
G01X2698000Y1407146D01*
G01X2719160Y1408997D01*
G01X2739677Y1414495D01*
G01X2758927Y1423471D01*
G01X2776326Y1435654D01*
G01X2791346Y1450674D01*
G01X2803529Y1468073D01*
G01X2812505Y1487324D01*
G01X2818003Y1507840D01*
G01X2819854Y1529000D01*
G01X2818003Y1550160D01*
G01X2812505Y1570677D01*
G01X2803529Y1589927D01*
G01X2791346Y1607326D01*
G01X2776326Y1622346D01*
G01X2758927Y1634529D01*
G01X2739677Y1643505D01*
G01X2719160Y1649003D01*
G01X2698000Y1650854D01*
G01X2698000Y1650854D01*
G01X2676840Y1649003D01*
G01X2656324Y1643505D01*
G01X2637073Y1634529D01*
G01X2619674Y1622346D01*
G01X2604655Y1607326D01*
G01X2592471Y1589927D01*
G01X2583495Y1570677D01*
G01X2577997Y1550160D01*
G01X2576146Y1529000D01*
G01X1948854Y1529000D01*
G01X1947003Y1550160D01*
G01X1941505Y1570676D01*
G01X1932529Y1589927D01*
G01X1920346Y1607326D01*
G01X1905326Y1622346D01*
G01X1887927Y1634529D01*
G01X1868677Y1643505D01*
G01X1848160Y1649003D01*
G01X1827000Y1650854D01*
G01X1805840Y1649003D01*
G01X1785324Y1643505D01*
G01X1766073Y1634529D01*
G01X1748674Y1622346D01*
G01X1733655Y1607326D01*
G01X1721472Y1589927D01*
G01X1712495Y1570676D01*
G01X1706997Y1550160D01*
G01X1705146Y1529000D01*
G01X1422146Y1529000D01*
G01X1422146Y1875000D01*
G01X2052402Y1875000D01*
G01X2053958Y1863184D01*
G01X2058519Y1852173D01*
G01X2065774Y1842718D01*
G01X2075229Y1835463D01*
G01X2086240Y1830902D01*
G01X2098056Y1829346D01*
G01X3000000Y1829346D01*
G01X3011816Y1830902D01*
G01X3022827Y1835463D01*
G01X3032282Y1842718D01*
G01X3039538Y1852173D01*
G01X3044098Y1863184D01*
G01X3045654Y1875000D01*
G01X3045654Y2235000D01*
G01X3044098Y2246816D01*
G01X3039538Y2257827D01*
G01X3032282Y2267282D01*
G01X3022827Y2274538D01*
G01X3011816Y2279098D01*
G01X3000000Y2280654D01*
G01X2098056Y2280654D01*
G01X2086240Y2279098D01*
G01X2075229Y2274538D01*
G01X2065774Y2267282D01*
G01X2058519Y2257827D01*
G01X2053958Y2246816D01*
G01X2052402Y2235000D01*
G01X2052402Y1875000D01*
G01X2052402Y1875000D01*
G01X1422146Y1875000D01*
G01X1422146Y3182729D01*
G01X1701966Y3182729D01*
G01X1701966Y1956940D01*
G01X1703522Y1945124D01*
G01X1708083Y1934113D01*
G01X1715338Y1924658D01*
G01X1724793Y1917402D01*
G01X1735804Y1912842D01*
G01X1747620Y1911286D01*
G01X1900000Y1911286D01*
G01X1911816Y1912842D01*
G01X1922827Y1917402D01*
G01X1932282Y1924658D01*
G01X1939537Y1934113D01*
G01X1944098Y1945124D01*
G01X1945654Y1956940D01*
G01X1945654Y3127683D01*
G01X2038880Y3040130D01*
G01X2038880Y2760161D01*
G01X2040435Y2748344D01*
G01X2044996Y2737334D01*
G01X2052252Y2727878D01*
G01X2061707Y2720623D01*
G01X2072718Y2716062D01*
G01X2084534Y2714507D01*
G01X2196012Y2714507D01*
G01X2207828Y2716062D01*
G01X2218839Y2720623D01*
G01X2228295Y2727878D01*
G01X2235550Y2737334D01*
G01X2240111Y2748344D01*
G01X2241666Y2760161D01*
G01X2241666Y3228988D01*
G01X2240111Y3240804D01*
G01X2235550Y3251815D01*
G01X2228295Y3261270D01*
G01X1989565Y3500000D01*
G01X2254346Y3500000D01*
G01X2254346Y2782620D01*
G01X2255902Y2770804D01*
G01X2260462Y2759793D01*
G01X2267718Y2750338D01*
G01X2277173Y2743082D01*
G01X2288184Y2738521D01*
G01X2300000Y2736966D01*
G01X2525000Y2736966D01*
G01X2536816Y2738521D01*
G01X2547827Y2743082D01*
G01X2557282Y2750338D01*
G01X2564538Y2759793D01*
G01X2569098Y2770804D01*
G01X2570654Y2782620D01*
G01X2570654Y3204346D01*
G01X3079346Y3204346D01*
G01X3079346Y2875000D01*
G01X3079346Y2875000D01*
G01X3080913Y2863142D01*
G01X3085506Y2852098D01*
G01X3092809Y2842627D01*
G01X3240733Y2695538D01*
G01X3240733Y1280415D01*
G01X3242289Y1268599D01*
G01X3246850Y1257588D01*
G01X3254105Y1248133D01*
G01X3263560Y1240878D01*
G01X3274571Y1236317D01*
G01X3286387Y1234761D01*
G01X3525000Y1234761D01*
G01X3536816Y1236317D01*
G01X3547827Y1240878D01*
G01X3557282Y1248133D01*
G01X3564538Y1257588D01*
G01X3569098Y1268599D01*
G01X3570654Y1280415D01*
G01X3570654Y3174834D01*
G01X3789346Y3174834D01*
G01X3789346Y2954834D01*
G01X3791196Y2932506D01*
G01X3796696Y2910788D01*
G01X3805696Y2890270D01*
G01X3817950Y2871514D01*
G01X3833124Y2855031D01*
G01X3850804Y2841270D01*
G01X3870508Y2830606D01*
G01X3891698Y2823332D01*
G01X3913797Y2819644D01*
G01X3936202Y2819644D01*
G01X3958301Y2823332D01*
G01X3979491Y2830606D01*
G01X3999195Y2841270D01*
G01X4016875Y2855031D01*
G01X4032049Y2871514D01*
G01X4044303Y2890270D01*
G01X4053303Y2910788D01*
G01X4058803Y2932506D01*
G01X4060653Y2954834D01*
G01X4060653Y3174834D01*
G01X4058803Y3197162D01*
G01X4053303Y3218881D01*
G01X4044303Y3239398D01*
G01X4032049Y3258154D01*
G01X4016875Y3274638D01*
G01X3999195Y3288399D01*
G01X3979491Y3299062D01*
G01X3958301Y3306337D01*
G01X3936202Y3310024D01*
G01X3913797Y3310024D01*
G01X3891698Y3306337D01*
G01X3870508Y3299062D01*
G01X3850804Y3288399D01*
G01X3833124Y3274638D01*
G01X3817950Y3258154D01*
G01X3805696Y3239398D01*
G01X3796696Y3218881D01*
G01X3791196Y3197162D01*
G01X3789346Y3174834D01*
G01X3789346Y3174834D01*
G01X3570654Y3174834D01*
G01X3570654Y3250000D01*
G01X3569107Y3261783D01*
G01X3564572Y3272767D01*
G01X3557356Y3282208D01*
G01X3294403Y3546368D01*
G01X3379835Y3546368D01*
G01X3379835Y3523964D01*
G01X3383523Y3501865D01*
G01X3390798Y3480674D01*
G01X3401461Y3460970D01*
G01X3415222Y3443290D01*
G01X3431705Y3428116D01*
G01X3450462Y3415862D01*
G01X3470979Y3406862D01*
G01X3492698Y3401362D01*
G01X3515026Y3399512D01*
G01X3735025Y3399512D01*
G01X3757136Y3401326D01*
G01X3778655Y3406720D01*
G01X3799008Y3415549D01*
G01X3817649Y3427578D01*
G01X3834080Y3442483D01*
G01X3847862Y3459868D01*
G01X3858627Y3479267D01*
G01X3866085Y3500161D01*
G01X3870038Y3521991D01*
G01X3870380Y3544173D01*
G01X3867101Y3566115D01*
G01X3860291Y3587228D01*
G01X3850130Y3606950D01*
G01X3888649Y3594352D01*
G01X3928201Y3585519D01*
G01X3968420Y3580533D01*
G01X4008933Y3579441D01*
G01X4049362Y3582252D01*
G01X4089333Y3588941D01*
G01X4128475Y3599446D01*
G01X4166424Y3613668D01*
G01X4202829Y3631476D01*
G01X4237351Y3652704D01*
G01X4269670Y3677157D01*
G01X4299486Y3704605D01*
G01X4326522Y3734796D01*
G01X4350527Y3767448D01*
G01X4371279Y3802259D01*
G01X4388585Y3838905D01*
G01X4402284Y3877047D01*
G01X4412249Y3916329D01*
G01X4418387Y3956389D01*
G01X4420642Y3996853D01*
G01X4418993Y4037346D01*
G01X4413455Y4077493D01*
G01X4404079Y4116920D01*
G01X4390952Y4155262D01*
G01X4374197Y4192163D01*
G01X4353968Y4227281D01*
G01X4330454Y4260289D01*
G01X4303873Y4290880D01*
G01X4274471Y4318772D01*
G01X4242521Y4343705D01*
G01X4208321Y4365448D01*
G01X4208321Y4365448D01*
G01X4172187Y4383799D01*
G01X4134454Y4398587D01*
G01X4095474Y4409676D01*
G01X4055607Y4416962D01*
G01X4015225Y4420379D01*
G01X3974701Y4419893D01*
G01X3934412Y4415509D01*
G01X3894731Y4407269D01*
G01X3856028Y4395249D01*
G01X3818661Y4379560D01*
G01X3782977Y4360348D01*
G01X3749308Y4337792D01*
G01X3717965Y4312100D01*
G01X3689241Y4283511D01*
G01X3663401Y4252291D01*
G01X3640685Y4218728D01*
G01X3621304Y4183136D01*
G01X3605438Y4145844D01*
G01X3593234Y4107198D01*
G01X3584806Y4067557D01*
G01X3580232Y4027289D01*
G01X3579554Y3986768D01*
G01X3582779Y3946370D01*
G01X3589876Y3906469D01*
G01X3600780Y3867437D01*
G01X3615389Y3829635D01*
G01X3633569Y3793414D01*
G01X3655149Y3759111D01*
G01X3679931Y3727044D01*
G01X3707683Y3697510D01*
G01X3738148Y3670784D01*
G01X3735025Y3670820D01*
G01X3735025Y3670820D01*
G01X3515026Y3670820D01*
G01X3492698Y3668970D01*
G01X3470979Y3663470D01*
G01X3450462Y3654470D01*
G01X3431705Y3642216D01*
G01X3415222Y3627042D01*
G01X3401461Y3609361D01*
G01X3390798Y3589657D01*
G01X3383523Y3568467D01*
G01X3379835Y3546368D01*
G01X3294403Y3546368D01*
G01X3220067Y3621045D01*
G01X3210599Y3628339D01*
G01X3199561Y3632926D01*
G01X3187711Y3634490D01*
G01X2388836Y3634490D01*
G01X2377020Y3632935D01*
G01X2366009Y3628374D01*
G01X2356554Y3621119D01*
G01X2267718Y3532282D01*
G01X2260462Y3522827D01*
G01X2255902Y3511816D01*
G01X2254346Y3500000D01*
G01X1989565Y3500000D01*
G01X1857282Y3632282D01*
G01X1847827Y3639538D01*
G01X1836816Y3644099D01*
G01X1825000Y3645654D01*
G01X1025000Y3645654D01*
G01X1013184Y3644098D01*
G01X1002173Y3639538D01*
G01X992718Y3632282D01*
G01X917718Y3557282D01*
G01X910463Y3547827D01*
G01X905902Y3536816D01*
G01X904346Y3525000D01*
G01X904346Y2800000D01*
G01X905902Y2788184D01*
G01X910463Y2777173D01*
G01X917718Y2767718D01*
G01X927173Y2760462D01*
G01X938184Y2755902D01*
G01X950000Y2754346D01*
G01X950000Y2754346D01*
G01X1056090Y2754346D01*
G01X1079346Y2731090D01*
G01X1079346Y2654273D01*
G01X1068075Y2671787D01*
G01X1054255Y2687370D01*
G01X1038213Y2700653D01*
G01X1020326Y2711323D01*
G01X1001017Y2719130D01*
G01X980741Y2723889D01*
G01X959974Y2725488D01*
G01X739975Y2725488D01*
G01X717647Y2723638D01*
G01X695928Y2718138D01*
G01X675411Y2709138D01*
G01X656655Y2696884D01*
G01X640171Y2681710D01*
G01X626410Y2664030D01*
G01X615747Y2644326D01*
G01X608472Y2623135D01*
G01X604784Y2601036D01*
G01X45654Y2601036D01*
G01X45654Y3170166D01*
G01X414347Y3170166D01*
G01X414347Y2950166D01*
G01X416197Y2927838D01*
G01X421697Y2906120D01*
G01X430697Y2885602D01*
G01X442951Y2866846D01*
G01X458125Y2850363D01*
G01X475805Y2836602D01*
G01X495509Y2825938D01*
G01X516700Y2818664D01*
G01X538798Y2814976D01*
G01X561203Y2814976D01*
G01X583302Y2818664D01*
G01X604492Y2825938D01*
G01X624196Y2836602D01*
G01X641876Y2850363D01*
G01X657051Y2866846D01*
G01X669305Y2885602D01*
G01X678304Y2906120D01*
G01X683804Y2927838D01*
G01X685654Y2950166D01*
G01X685654Y2950166D01*
G01X685654Y3170166D01*
G01X683804Y3192494D01*
G01X678304Y3214213D01*
G01X669305Y3234730D01*
G01X657051Y3253486D01*
G01X641876Y3269970D01*
G01X624196Y3283731D01*
G01X604492Y3294394D01*
G01X583302Y3301669D01*
G01X561203Y3305356D01*
G01X538798Y3305356D01*
G01X516700Y3301669D01*
G01X495509Y3294394D01*
G01X475805Y3283731D01*
G01X458125Y3269970D01*
G01X442951Y3253486D01*
G01X430697Y3234730D01*
G01X421697Y3214213D01*
G01X416197Y3192494D01*
G01X414347Y3170166D01*
G01X45654Y3170166D01*
G01X45654Y4000000D01*
G01X79346Y4000000D01*
G01X81372Y3958769D01*
G01X87429Y3917935D01*
G01X97459Y3877891D01*
G01X111366Y3839023D01*
G01X129016Y3801705D01*
G01X150239Y3766297D01*
G01X174830Y3733140D01*
G01X202553Y3702553D01*
G01X233140Y3674830D01*
G01X266297Y3650239D01*
G01X301705Y3629016D01*
G01X339023Y3611367D01*
G01X377891Y3597459D01*
G01X417934Y3587429D01*
G01X458769Y3581372D01*
G01X500000Y3579346D01*
G01X541231Y3581372D01*
G01X582066Y3587429D01*
G01X622109Y3597459D01*
G01X660977Y3611367D01*
G01X698295Y3629016D01*
G01X733703Y3650239D01*
G01X766860Y3674830D01*
G01X797447Y3702553D01*
G01X825170Y3733140D01*
G01X849761Y3766297D01*
G01X870984Y3801705D01*
G01X888634Y3839023D01*
G01X902541Y3877891D01*
G01X912571Y3917935D01*
G01X918628Y3958769D01*
G01X920654Y4000000D01*
G01X918628Y4041231D01*
G01X912571Y4082066D01*
G01X902541Y4122110D01*
G01X888634Y4160977D01*
G01X870984Y4198295D01*
G01X849761Y4233703D01*
G01X825170Y4266860D01*
G01X797447Y4297447D01*
G01X766860Y4325170D01*
G01X733703Y4349761D01*
G01X698295Y4370984D01*
G01X660977Y4388634D01*
G01X622109Y4402541D01*
G01X582066Y4412571D01*
G01X541231Y4418629D01*
G01X500000Y4420654D01*
G01X458769Y4418629D01*
G01X417934Y4412571D01*
G01X377891Y4402541D01*
G01X339023Y4388634D01*
G01X301705Y4370984D01*
G01X266297Y4349761D01*
G01X233140Y4325170D01*
G01X202553Y4297447D01*
G01X174830Y4266860D01*
G01X150239Y4233703D01*
G01X129016Y4198295D01*
G01X111366Y4160977D01*
G01X97459Y4122110D01*
G01X87429Y4082066D01*
G01X81372Y4041231D01*
G01X79346Y4000000D01*
G01X79346Y4000000D01*
G01X45654Y4000000D01*
G01X45654Y4130000D01*
G37*
G54D10*
G01X1339840Y3364840D02*
G01X1339840Y2260160D01*
G01X1135160Y2260160D01*
G01X1135160Y2750000D01*
G03X1132184Y2757184I-10160J0D01*
G01X1082184Y2807184D01*
G03X1075000Y2810160I-7184J-7184D01*
G01X979209Y2810160D01*
G01X960160Y2829209D01*
G01X960160Y3364840D01*
G01X1339840Y3364840D01*
G01X1024186Y3180166D02*
G01X1024186Y2940166D01*
G03X1275813Y2940166I125814J0D01*
G01X1275813Y3180166D01*
G03X1024186Y3180166I-125814J0D01*
G54D11*
G01X1009346Y2940166D02*
G03X1069252Y2825000I140654J0D01*
G01X975000Y2825000D01*
G01X975000Y3514645D01*
G01X1035355Y3575000D01*
G01X1814645Y3575000D01*
G01X2171012Y3218633D01*
G01X2171012Y2785161D01*
G01X2109534Y2785161D01*
G01X2109534Y3059885D01*
G03X2101648Y3078108I-25000J0D01*
G01X1942481Y3227590D01*
G03X1924872Y3244127I-42481J-27590D01*
G01X1922232Y3246607D01*
G03X1905117Y3253383I-17114J-18223D01*
G01X1376492Y3253383D01*
G03X1351492Y3228383I0J-25000D01*
G01X1351492Y1440288D01*
G01X1150000Y1440288D01*
G01X1150000Y2799513D01*
G03X1290653Y2940166I-1J140654D01*
G01X1290653Y3180166D01*
G03X1009346Y3180166I-140654J0D01*
G01X1009346Y2940166D01*
G54D10*
G01X1757780Y1967100D02*
G01X1757780Y3189840D01*
G01X1889840Y3189840D01*
G01X1889840Y1967100D01*
G01X1757780Y1967100D01*
G01X3125000Y3260160D02*
G01X2525000Y3260160D01*
G03X2514840Y3250000I0J-10160D01*
G01X2514840Y2792780D01*
G01X2310160Y2792780D01*
G01X2310160Y3495792D01*
G01X2393045Y3578676D01*
G01X3183489Y3578676D01*
G01X3514840Y3245805D01*
G01X3514840Y1290575D01*
G01X3296547Y1290575D01*
G01X3296547Y2714524D01*
G03X3293551Y2721729I-10160J0D01*
G01X3135160Y2879225D01*
G01X3135160Y3250000D01*
G03X3125000Y3260160I-10160J0D01*
G01X3450815Y2944834D02*
G01X3450815Y3184834D01*
G03X3199187Y3184834I-125814J0D01*
G01X3199187Y2944834D01*
G03X3450815Y2944834I125814J0D01*
G54D12*
G01X45654Y4130000D02*
G02X370000Y4454346I324346J0D01*
G01X4130000Y4454346D01*
G02X4454346Y4130000I0J-324346D01*
G01X4454346Y370000D01*
G02X4130000Y45654I-324346J0D01*
G01X370000Y45654D01*
G02X45654Y370000I0J324346D01*
G01X45654Y4130000D01*
G01X79346Y4000000D02*
G03X920654Y4000000I420654J0D01*
G03X79346Y4000000I-420654J0D01*
G01X79346Y500000D02*
G03X920654Y500000I420654J0D01*
G03X79346Y500000I-420654J0D01*
G01X685654Y2950166D02*
G01X685654Y3170166D01*
G03X414347Y3170166I-135654J0D01*
G01X414347Y2950166D01*
G03X685654Y2950166I135654J0D01*
G01X950000Y2754346D02*
G01X1056090Y2754346D01*
G01X1079346Y2731090D01*
G01X1079346Y2654273D01*
G03X959974Y2725488I-119372J-64439D01*
G01X739975Y2725488D01*
G03X739975Y2454181I0J-135654D01*
G01X959974Y2454181D01*
G03X1079346Y2525395I0J135654D01*
G01X1079346Y1415288D01*
G03X1125000Y1369634I45654J0D01*
G01X1376492Y1369634D01*
G03X1422146Y1415288I0J45654D01*
G01X1422146Y3182729D01*
G01X1701966Y3182729D01*
G01X1701966Y1956940D01*
G03X1747620Y1911286I45654J0D01*
G01X1900000Y1911286D01*
G03X1945654Y1956940I0J45654D01*
G01X1945654Y3127683D01*
G01X2038880Y3040130D01*
G01X2038880Y2760161D01*
G03X2084534Y2714507I45654J0D01*
G01X2196012Y2714507D01*
G03X2241666Y2760161I0J45654D01*
G01X2241666Y3228988D01*
G03X2228295Y3261270I-45654J0D01*
G01X1857282Y3632282D01*
G03X1825000Y3645654I-32282J-32282D01*
G01X1025000Y3645654D01*
G03X992718Y3632282I0J-45654D01*
G01X917718Y3557282D01*
G03X904346Y3525000I32282J-32282D01*
G01X904346Y2800000D01*
G03X950000Y2754346I45654J0D01*
G01X1346968Y200000D02*
G03X1392622Y154346I45654J0D01*
G01X3100000Y154346D01*
G03X3145654Y200000I0J45654D01*
G01X3145654Y809600D01*
G03X3100000Y855254I-45654J0D01*
G01X1392622Y855254D01*
G03X1346968Y809600I0J-45654D01*
G01X1346968Y200000D01*
G01X1573000Y1153146D02*
G03X1573000Y1396854I0J121854D01*
G03X1573000Y1153146I0J-121854D01*
G01X1827000Y1407146D02*
G03X1827000Y1650854I0J121854D01*
G03X1827000Y1407146I0J-121854D01*
G01X1827000Y899146D02*
G03X1827000Y1142854I0J121854D01*
G03X1827000Y899146I0J-121854D01*
G01X2052402Y1875000D02*
G03X2098056Y1829346I45654J0D01*
G01X3000000Y1829346D01*
G03X3045654Y1875000I0J45654D01*
G01X3045654Y2235000D01*
G03X3000000Y2280654I-45654J0D01*
G01X2098056Y2280654D01*
G03X2052402Y2235000I0J-45654D01*
G01X2052402Y1875000D01*
G01X3079346Y2875000D02*
G03X3092809Y2842627I45654J0D01*
G01X3240733Y2695538D01*
G01X3240733Y1280415D01*
G03X3286387Y1234761I45654J0D01*
G01X3525000Y1234761D01*
G03X3570654Y1280415I0J45654D01*
G01X3570654Y3250000D01*
G03X3557356Y3282208I-45654J0D01*
G01X3220067Y3621045D01*
G03X3187711Y3634490I-32356J-32208D01*
G01X2388836Y3634490D01*
G03X2356554Y3621119I0J-45654D01*
G01X2267718Y3532282D01*
G03X2254346Y3500000I32282J-32282D01*
G01X2254346Y2782620D01*
G03X2300000Y2736966I45654J0D01*
G01X2525000Y2736966D01*
G03X2570654Y2782620I0J45654D01*
G01X2570654Y3204346D01*
G01X3079346Y3204346D01*
G01X3079346Y2875000D01*
G01X2698000Y1142854D02*
G03X2698000Y899146I0J-121854D01*
G03X2698000Y1142854I0J121854D01*
G01X2698000Y1650854D02*
G03X2698000Y1407146I0J-121854D01*
G03X2698000Y1650854I0J121854D01*
G01X2952000Y1396854D02*
G03X2952000Y1153146I0J-121854D01*
G03X2952000Y1396854I0J121854D01*
G01X3735025Y3670820D02*
G01X3515026Y3670820D01*
G03X3515026Y3399512I0J-135654D01*
G01X3735025Y3399512D01*
G03X3850130Y3606950I0J135654D01*
G03X4208321Y4365448I149870J393050D01*
G03X3738148Y3670784I-208321J-365448D01*
G03X3735025Y3670820I-3123J-135618D01*
G01X3579346Y500000D02*
G03X4420654Y500000I420654J0D01*
G03X3579346Y500000I-420654J0D01*
G01X3789346Y3174834D02*
G01X3789346Y2954834D01*
G03X4060653Y2954834I135654J0D01*
G01X4060653Y3174834D01*
G03X3789346Y3174834I-135654J0D01*
G01X1149999Y2850420D02*
G01X1149999Y2824512D01*
G01X1149999Y3269912D02*
G01X1149999Y3295820D01*
G01X1060254Y3060166D02*
G01X1034346Y3060166D01*
G01X1239745Y3060166D02*
G01X1265653Y3060166D01*
G01X1149999Y2850420D02*
G01X1149999Y2824512D01*
G01X1149999Y3269912D02*
G01X1149999Y3295820D01*
G01X1060254Y3060166D02*
G01X1034346Y3060166D01*
G01X1239745Y3060166D02*
G01X1265653Y3060166D01*
G01X3325001Y3274580D02*
G01X3325001Y3300488D01*
G01X3325001Y2855089D02*
G01X3325001Y2829181D01*
G01X3414747Y3064834D02*
G01X3440655Y3064834D01*
G01X3235255Y3064834D02*
G01X3209347Y3064834D01*
G01X125254Y4000000D02*
G01X99346Y4000000D01*
G01X874746Y4000000D02*
G01X900654Y4000000D01*
G01X500000Y4374746D02*
G01X500000Y4400654D01*
G01X500000Y3625254D02*
G01X500000Y3599346D01*
G01X125254Y500000D02*
G01X99346Y500000D01*
G01X874746Y500000D02*
G01X900654Y500000D01*
G01X500000Y874746D02*
G01X500000Y900654D01*
G01X500000Y125254D02*
G01X500000Y99346D01*
G01X550001Y3259912D02*
G01X550001Y3285820D01*
G01X550001Y2860420D02*
G01X550001Y2834512D01*
G01X639746Y3060166D02*
G01X665654Y3060166D01*
G01X460255Y3060166D02*
G01X434347Y3060166D01*
G01X1827000Y945054D02*
G01X1827000Y919146D01*
G01X1827000Y1096946D02*
G01X1827000Y1122854D01*
G01X1751054Y1021000D02*
G01X1725146Y1021000D01*
G01X1902946Y1021000D02*
G01X1928854Y1021000D01*
G01X3925000Y2865089D02*
G01X3925000Y2839181D01*
G01X3925000Y3264580D02*
G01X3925000Y3290488D01*
G01X3835254Y3064834D02*
G01X3809346Y3064834D01*
G01X4014745Y3064834D02*
G01X4040653Y3064834D01*
G01X3625254Y500000D02*
G01X3599346Y500000D01*
G01X4374746Y500000D02*
G01X4400654Y500000D01*
G01X4000000Y874746D02*
G01X4000000Y900654D01*
G01X4000000Y125254D02*
G01X4000000Y99346D01*
G01X3625254Y4000000D02*
G01X3599346Y4000000D01*
G01X4374746Y4000000D02*
G01X4400654Y4000000D01*
G01X4000000Y4374746D02*
G01X4000000Y4400654D01*
G01X4000000Y3625254D02*
G01X4000000Y3599346D01*
G04 Copper End*

G04 Text Start*
G54D13*
G01X2989840Y2212282D02*
G01X2964948Y2147004D01*
G01X2940056Y2212282D02*
G01X2964948Y2147004D01*
G01X2904750Y2212282D02*
G01X2901702Y2209234D01*
G01X2898654Y2212282D01*
G01X2901702Y2215584D01*
G01X2904750Y2212282D01*
G01X2901702Y2190692D02*
G01X2901702Y2147004D01*
G01X2863348Y2190692D02*
G01X2863348Y2147004D01*
G01X2863348Y2177992D02*
G01X2853950Y2187390D01*
G01X2847854Y2190692D01*
G01X2838456Y2190692D01*
G01X2832360Y2187390D01*
G01X2829058Y2177992D01*
G01X2829058Y2147004D01*
G01X2723902Y2212282D02*
G01X2723902Y2147004D01*
G01X2723902Y2212282D02*
G01X2699010Y2147004D01*
G01X2674118Y2212282D02*
G01X2699010Y2147004D01*
G01X2674118Y2212282D02*
G01X2674118Y2147004D01*
G01X2638812Y2212282D02*
G01X2635764Y2209234D01*
G01X2632716Y2212282D01*
G01X2635764Y2215584D01*
G01X2638812Y2212282D01*
G01X2635764Y2190692D02*
G01X2635764Y2147004D01*
G01X2597410Y2190692D02*
G01X2597410Y2147004D01*
G01X2597410Y2177992D02*
G01X2588012Y2187390D01*
G01X2581916Y2190692D01*
G01X2572518Y2190692D01*
G01X2566422Y2187390D01*
G01X2563120Y2177992D01*
G01X2563120Y2147004D01*
G01X2426976Y2212282D02*
G01X2457964Y2168848D01*
G01X2411228Y2168848D01*
G01X2426976Y2212282D02*
G01X2426976Y2147004D01*
G01X2375922Y2174944D02*
G01X2319788Y2174944D01*
G01X2284482Y2199836D02*
G01X2278386Y2203138D01*
G01X2268988Y2212282D01*
G01X2268988Y2147004D01*
G01X2196344Y2203138D02*
G01X2199392Y2209234D01*
G01X2208790Y2212282D01*
G01X2215140Y2212282D01*
G01X2224284Y2209234D01*
G01X2230634Y2199836D01*
G01X2233682Y2184342D01*
G01X2233682Y2168848D01*
G01X2230634Y2156402D01*
G01X2224284Y2150052D01*
G01X2215140Y2147004D01*
G01X2211838Y2147004D01*
G01X2202694Y2150052D01*
G01X2196344Y2156402D01*
G01X2193296Y2165546D01*
G01X2193296Y2168848D01*
G01X2196344Y2177992D01*
G01X2202694Y2184342D01*
G01X2211838Y2187390D01*
G01X2215140Y2187390D01*
G01X2224284Y2184342D01*
G01X2230634Y2177992D01*
G01X2233682Y2168848D01*
G01X2157990Y2212282D02*
G01X2133098Y2147004D01*
G01X2108206Y2212282D02*
G01X2133098Y2147004D01*
G01X2989840Y2092394D02*
G01X2964948Y2026862D01*
G01X2940056Y2092394D02*
G01X2964948Y2026862D01*
G01X2889256Y2070550D02*
G01X2895352Y2067502D01*
G01X2901702Y2061152D01*
G01X2904750Y2052008D01*
G01X2904750Y2045658D01*
G01X2901702Y2036260D01*
G01X2895352Y2030164D01*
G01X2889256Y2026862D01*
G01X2879858Y2026862D01*
G01X2873762Y2030164D01*
G01X2867412Y2036260D01*
G01X2864364Y2045658D01*
G01X2864364Y2052008D01*
G01X2867412Y2061152D01*
G01X2873762Y2067502D01*
G01X2879858Y2070550D01*
G01X2889256Y2070550D01*
G01X2829058Y2070550D02*
G01X2829058Y2039308D01*
G01X2826010Y2030164D01*
G01X2819660Y2026862D01*
G01X2810516Y2026862D01*
G01X2804166Y2030164D01*
G01X2794768Y2039308D01*
G01X2794768Y2070550D02*
G01X2794768Y2026862D01*
G01X2750064Y2092394D02*
G01X2750064Y2039308D01*
G01X2747016Y2030164D01*
G01X2740920Y2026862D01*
G01X2734570Y2026862D01*
G01X2759462Y2070550D02*
G01X2737618Y2070550D01*
G01X2592076Y2092394D02*
G01X2623318Y2092394D01*
G01X2626366Y2064454D01*
G01X2623318Y2067502D01*
G01X2613920Y2070550D01*
G01X2604522Y2070550D01*
G01X2595378Y2067502D01*
G01X2589028Y2061152D01*
G01X2585980Y2052008D01*
G01X2585980Y2045658D01*
G01X2589028Y2036260D01*
G01X2595378Y2030164D01*
G01X2604522Y2026862D01*
G01X2613920Y2026862D01*
G01X2623318Y2030164D01*
G01X2626366Y2033212D01*
G01X2629414Y2039308D01*
G01X2550674Y2055056D02*
G01X2494540Y2055056D01*
G01X2456186Y2076900D02*
G01X2456186Y2079948D01*
G01X2453138Y2086044D01*
G01X2449836Y2089346D01*
G01X2443740Y2092394D01*
G01X2431294Y2092394D01*
G01X2424944Y2089346D01*
G01X2421896Y2086044D01*
G01X2418848Y2079948D01*
G01X2418848Y2073598D01*
G01X2421896Y2067502D01*
G01X2428246Y2058104D01*
G01X2459234Y2026862D01*
G01X2415546Y2026862D01*
G01X2361698Y2092394D02*
G01X2370842Y2089346D01*
G01X2377192Y2079948D01*
G01X2380240Y2064454D01*
G01X2380240Y2055056D01*
G01X2377192Y2039308D01*
G01X2370842Y2030164D01*
G01X2361698Y2026862D01*
G01X2355348Y2026862D01*
G01X2345950Y2030164D01*
G01X2339854Y2039308D01*
G01X2336552Y2055056D01*
G01X2336552Y2064454D01*
G01X2339854Y2079948D01*
G01X2345950Y2089346D01*
G01X2355348Y2092394D01*
G01X2361698Y2092394D01*
G01X2301246Y2092394D02*
G01X2276354Y2026862D01*
G01X2251462Y2092394D02*
G01X2276354Y2026862D01*
G01X2989840Y1972506D02*
G01X2989840Y1906974D01*
G01X2939040Y1950662D02*
G01X2945136Y1947360D01*
G01X2951486Y1941264D01*
G01X2954534Y1931866D01*
G01X2954534Y1925770D01*
G01X2951486Y1916372D01*
G01X2945136Y1910022D01*
G01X2939040Y1906974D01*
G01X2929642Y1906974D01*
G01X2923546Y1910022D01*
G01X2917196Y1916372D01*
G01X2914148Y1925770D01*
G01X2914148Y1931866D01*
G01X2917196Y1941264D01*
G01X2923546Y1947360D01*
G01X2929642Y1950662D01*
G01X2939040Y1950662D01*
G01X2878842Y1950662D02*
G01X2878842Y1919420D01*
G01X2875794Y1910022D01*
G01X2869444Y1906974D01*
G01X2860300Y1906974D01*
G01X2853950Y1910022D01*
G01X2844552Y1919420D01*
G01X2844552Y1950662D02*
G01X2844552Y1906974D01*
G01X2799848Y1972506D02*
G01X2799848Y1919420D01*
G01X2796800Y1910022D01*
G01X2790704Y1906974D01*
G01X2784354Y1906974D01*
G01X2809246Y1950662D02*
G01X2787402Y1950662D01*
G01X2679198Y1972506D02*
G01X2679198Y1906974D01*
G01X2679198Y1972506D02*
G01X2654306Y1906974D01*
G01X2629414Y1972506D02*
G01X2654306Y1906974D01*
G01X2629414Y1972506D02*
G01X2629414Y1906974D01*
G01X2556770Y1950662D02*
G01X2556770Y1906974D01*
G01X2556770Y1941264D02*
G01X2563120Y1947360D01*
G01X2569216Y1950662D01*
G01X2578614Y1950662D01*
G01X2584710Y1947360D01*
G01X2591060Y1941264D01*
G01X2594108Y1931866D01*
G01X2594108Y1925770D01*
G01X2591060Y1916372D01*
G01X2584710Y1910022D01*
G01X2578614Y1906974D01*
G01X2569216Y1906974D01*
G01X2563120Y1910022D01*
G01X2556770Y1916372D01*
G01X2521464Y1950662D02*
G01X2487174Y1906974D01*
G01X2487174Y1950662D02*
G01X2521464Y1906974D01*
G01X2281180Y1972506D02*
G01X2312422Y1928818D01*
G01X2265686Y1928818D01*
G01X2281180Y1972506D02*
G01X2281180Y1906974D01*
G01X2205488Y1972506D02*
G01X2230380Y1906974D01*
G01X2205488Y1972506D02*
G01X2180596Y1906974D01*
G01X2220982Y1928818D02*
G01X2189994Y1928818D01*
G01X3089840Y763880D02*
G01X3045390Y577190D01*
G01X3000940Y763880D02*
G01X3045390Y577190D01*
G01X3000940Y763880D02*
G01X2956490Y577190D01*
G01X2912040Y763880D02*
G01X2956490Y577190D01*
G01X2742368Y701650D02*
G01X2742368Y577190D01*
G01X2742368Y674980D02*
G01X2760148Y692760D01*
G01X2777928Y701650D01*
G01X2804598Y701650D01*
G01X2822378Y692760D01*
G01X2840158Y674980D01*
G01X2849048Y648310D01*
G01X2849048Y630530D01*
G01X2840158Y603860D01*
G01X2822378Y586080D01*
G01X2804598Y577190D01*
G01X2777928Y577190D01*
G01X2760148Y586080D01*
G01X2742368Y603860D01*
G01X2652706Y763880D02*
G01X2652706Y612750D01*
G01X2643816Y586080D01*
G01X2626036Y577190D01*
G01X2608256Y577190D01*
G01X2679376Y701650D02*
G01X2617146Y701650D01*
G01X2438584Y674980D02*
G01X2456364Y692760D01*
G01X2474144Y701650D01*
G01X2500814Y701650D01*
G01X2518594Y692760D01*
G01X2536374Y674980D01*
G01X2545264Y648310D01*
G01X2545264Y630530D01*
G01X2536374Y603860D01*
G01X2518594Y586080D01*
G01X2500814Y577190D01*
G01X2474144Y577190D01*
G01X2456364Y586080D01*
G01X2438584Y603860D01*
G01X2375592Y763880D02*
G01X2375592Y577190D01*
G01X2375592Y666090D02*
G01X2348922Y692760D01*
G01X2331142Y701650D01*
G01X2304472Y701650D01*
G01X2286692Y692760D01*
G01X2277802Y666090D01*
G01X2277802Y577190D01*
G01X2152580Y763880D02*
G01X2152580Y577190D01*
G01X2214810Y763880D02*
G01X2090350Y763880D01*
G01X1982908Y701650D02*
G01X2000688Y692760D01*
G01X2018468Y674980D01*
G01X2027358Y648310D01*
G01X2027358Y630530D01*
G01X2018468Y603860D01*
G01X2000688Y586080D01*
G01X1982908Y577190D01*
G01X1956238Y577190D01*
G01X1938458Y586080D01*
G01X1920678Y603860D01*
G01X1911788Y630530D01*
G01X1911788Y648310D01*
G01X1920678Y674980D01*
G01X1938458Y692760D01*
G01X1956238Y701650D01*
G01X1982908Y701650D01*
G01X1848796Y701650D02*
G01X1813236Y577190D01*
G01X1777676Y701650D02*
G01X1813236Y577190D01*
G01X1777676Y701650D02*
G01X1742116Y577190D01*
G01X1706556Y701650D02*
G01X1742116Y577190D01*
G01X1643564Y648310D02*
G01X1536884Y648310D01*
G01X1536884Y666090D01*
G01X1545774Y683870D01*
G01X1554664Y692760D01*
G01X1572444Y701650D01*
G01X1599114Y701650D01*
G01X1616894Y692760D01*
G01X1634674Y674980D01*
G01X1643564Y648310D01*
G01X1643564Y630530D01*
G01X1634674Y603860D01*
G01X1616894Y586080D01*
G01X1599114Y577190D01*
G01X1572444Y577190D01*
G01X1554664Y586080D01*
G01X1536884Y603860D01*
G01X1473892Y701650D02*
G01X1473892Y577190D01*
G01X1473892Y648310D02*
G01X1465002Y674980D01*
G01X1447222Y692760D01*
G01X1429442Y701650D01*
G01X1402772Y701650D01*
G01X3089840Y459080D02*
G01X3089840Y272390D01*
G01X3089840Y459080D02*
G01X3009830Y459080D01*
G01X2983160Y450190D01*
G01X2974270Y441300D01*
G01X2965380Y423520D01*
G01X2965380Y396850D01*
G01X2974270Y379070D01*
G01X2983160Y370180D01*
G01X3009830Y361290D01*
G01X3089840Y361290D01*
G01X2857938Y396850D02*
G01X2875718Y387960D01*
G01X2893498Y370180D01*
G01X2902388Y343510D01*
G01X2902388Y325730D01*
G01X2893498Y299060D01*
G01X2875718Y281280D01*
G01X2857938Y272390D01*
G01X2831268Y272390D01*
G01X2813488Y281280D01*
G01X2795708Y299060D01*
G01X2786818Y325730D01*
G01X2786818Y343510D01*
G01X2795708Y370180D01*
G01X2813488Y387960D01*
G01X2831268Y396850D01*
G01X2857938Y396850D01*
G01X2723826Y396850D02*
G01X2688266Y272390D01*
G01X2652706Y396850D02*
G01X2688266Y272390D01*
G01X2652706Y396850D02*
G01X2617146Y272390D01*
G01X2581586Y396850D02*
G01X2617146Y272390D01*
G01X2518594Y343510D02*
G01X2411914Y343510D01*
G01X2411914Y361290D01*
G01X2420804Y379070D01*
G01X2429694Y387960D01*
G01X2447474Y396850D01*
G01X2474144Y396850D01*
G01X2491924Y387960D01*
G01X2509704Y370180D01*
G01X2518594Y343510D01*
G01X2518594Y325730D01*
G01X2509704Y299060D01*
G01X2491924Y281280D01*
G01X2474144Y272390D01*
G01X2447474Y272390D01*
G01X2429694Y281280D01*
G01X2411914Y299060D01*
G01X2348922Y396850D02*
G01X2348922Y272390D01*
G01X2348922Y343510D02*
G01X2340032Y370180D01*
G01X2322252Y387960D01*
G01X2304472Y396850D01*
G01X2277802Y396850D01*
G01X2015674Y459080D02*
G01X2015674Y325730D01*
G01X2006784Y299060D01*
G01X1989004Y281280D01*
G01X1962334Y272390D01*
G01X1944554Y272390D01*
G01X1917884Y281280D01*
G01X1900104Y299060D01*
G01X1891214Y325730D01*
G01X1891214Y459080D01*
G01X1828222Y396850D02*
G01X1828222Y272390D01*
G01X1828222Y361290D02*
G01X1801552Y387960D01*
G01X1783772Y396850D01*
G01X1757102Y396850D01*
G01X1739322Y387960D01*
G01X1730432Y361290D01*
G01X1730432Y272390D01*
G01X1667440Y459080D02*
G01X1658550Y450190D01*
G01X1649660Y459080D01*
G01X1658550Y467970D01*
G01X1667440Y459080D01*
G01X1658550Y396850D02*
G01X1658550Y272390D01*
G01X1559998Y459080D02*
G01X1559998Y307950D01*
G01X1551108Y281280D01*
G01X1533328Y272390D01*
G01X1515548Y272390D01*
G01X1586668Y396850D02*
G01X1524438Y396850D01*
G04 Text End*

G04 Pad Start*
G54D14*
G01X1149999Y3060166D03*
G54D15*
G01X550001Y3060166D03*
G54D16*
G01X849975Y2589834D03*
G54D14*
G01X3325001Y3064834D03*
G54D15*
G01X3925000Y3064834D03*
G54D16*
G01X3625026Y3535166D03*
G54D17*
G01X500000Y500000D03*
G01X500000Y4000000D03*
G01X4000000Y4000000D03*
G01X4000000Y500000D03*
G54D19*
G01X1827000Y1529000D03*
G01X1573000Y1275000D03*
G01X1827000Y1021000D03*
G01X2698000Y1021000D03*
G01X2952000Y1275000D03*
G01X2698000Y1529000D03*
G04 Pad End*

G04 Via Start*
G54D20*
G01X225000Y2100000D03*
G01X4350000Y1349987D03*
G01X4350000Y2174988D03*
G01X1977067Y127000D03*
G01X2300000Y127000D03*
G01X2650000Y127000D03*
G01X2975000Y125000D03*
G01X929300Y875000D03*
G01X3075000Y1975000D03*
G01X3325000Y3675000D03*
G01X2750000Y3025006D03*
G01X2250001Y2445001D03*
G01X1450000Y2300001D03*
G01X2430001Y2450001D03*
G01X1650001Y2530002D03*
G01X1225000Y2450000D03*
G01X1275000Y3085166D03*
G01X2028742Y3326172D03*
G01X2122172Y3232743D03*
G01X2437800Y3310500D03*
G01X2366213Y3244602D03*
G01X2975001Y3289834D03*
G01X1225000Y2357995D03*
G01X3384260Y2175026D03*
G01X232462Y1349199D03*
G01X3375000Y1350000D03*
G01X1250000Y1550000D03*
G01X553654Y1061654D03*
G01X553654Y1569654D03*
G01X553654Y2585654D03*
G01X1569654Y1569654D03*
G01X1569654Y2077654D03*
G01X2077654Y3601654D03*
G01X2585654Y4109654D03*
G01X3093654Y1061654D03*
G01X3093654Y1569654D03*
G01X3093654Y2585654D03*
G01X3601654Y1061654D03*
G01X3601654Y2585654D03*
G01X3601654Y3093654D03*
G01X4109654Y1061654D03*
G01X4109654Y1569654D03*
G01X4109654Y2077654D03*
G01X4109654Y2585654D03*
G01X4109654Y3093654D03*
G01X1825000Y3075000D03*
G01X1825000Y2025000D03*
G04 Via End*

M02*

