G04 Layer: TopPasteMaskLayer*
G04 EasyEDA Pro v2.2.43.4, 2025-10-30 16:07:04*
G04 Gerber Generator version 0.3*
G04 Scale: 100 percent, Rotated: No, Reflected: No*
G04 Dimensions in millimeters*
G04 Leading zeros omitted, absolute positions, 4 integers and 5 decimals*
G04 Generated by one-click*
%FSLAX45Y45*%
%MOMM*%
%ADD10R,3.49999X1.2*%
%ADD11R,1.4X5.49999*%
%ADD12R,0.6X0.25001*%
%ADD13R,0.25001X0.65001*%
%ADD14R,0.25001X0.6*%
%ADD15R,0.25001X3.39999*%
%ADD16R,0.3303X3.39999*%
%ADD17R,0.33X3.39999*%
%ADD18R,0.8X0.9*%
G75*


G04 PolygonModel Start*
G36*
G01X1054503Y486000D02*
G01X1054503Y613998D01*
G01X1059504Y618999D01*
G01X1174505Y618999D01*
G01X1179504Y613998D01*
G01X1180007Y572995D01*
G01X1135005Y572995D01*
G01X1135005Y527996D01*
G01X1179006Y527996D01*
G01X1179504Y486000D01*
G01X1174505Y480998D01*
G01X1059504Y480998D01*
G01X1054503Y486000D01*
G37*
G36*
G01X1395498Y614000D02*
G01X1395498Y486002D01*
G01X1390496Y481001D01*
G01X1275495Y481001D01*
G01X1270497Y486002D01*
G01X1269994Y527005D01*
G01X1314995Y527005D01*
G01X1314995Y572004D01*
G01X1270994Y572004D01*
G01X1270497Y614000D01*
G01X1275495Y619002D01*
G01X1390496Y619002D01*
G01X1395498Y614000D01*
G37*
G36*
G01X2716068Y379502D02*
G01X2588070Y379502D01*
G01X2583068Y384504D01*
G01X2583068Y499505D01*
G01X2588070Y504503D01*
G01X2629073Y505006D01*
G01X2629073Y460005D01*
G01X2674071Y460005D01*
G01X2674071Y504006D01*
G01X2716068Y504503D01*
G01X2721069Y499505D01*
G01X2721069Y384504D01*
G01X2716068Y379502D01*
G37*
G36*
G01X2588067Y720497D02*
G01X2716065Y720497D01*
G01X2721066Y715496D01*
G01X2721066Y600495D01*
G01X2716065Y595496D01*
G01X2675062Y594993D01*
G01X2675062Y639995D01*
G01X2630063Y639995D01*
G01X2630063Y595994D01*
G01X2588067Y595496D01*
G01X2583066Y600495D01*
G01X2583066Y715496D01*
G01X2588067Y720497D01*
G37*
G36*
G01X3250109Y3421499D02*
G01X3122111Y3421499D01*
G01X3117110Y3426501D01*
G01X3117110Y3541502D01*
G01X3122111Y3546500D01*
G01X3163114Y3547003D01*
G01X3163114Y3502002D01*
G01X3208113Y3502002D01*
G01X3208113Y3546003D01*
G01X3250109Y3546500D01*
G01X3255110Y3541502D01*
G01X3255110Y3426501D01*
G01X3250109Y3421499D01*
G37*
G36*
G01X3122108Y3762494D02*
G01X3250107Y3762494D01*
G01X3255108Y3757493D01*
G01X3255108Y3642492D01*
G01X3250107Y3637493D01*
G01X3209103Y3636990D01*
G01X3209103Y3681992D01*
G01X3164105Y3681992D01*
G01X3164105Y3637991D01*
G01X3122108Y3637493D01*
G01X3117107Y3642492D01*
G01X3117107Y3757493D01*
G01X3122108Y3762494D01*
G37*
G36*
G01X1587822Y2570653D02*
G01X1459824Y2570653D01*
G01X1454823Y2575654D01*
G01X1454823Y2690655D01*
G01X1459824Y2695654D01*
G01X1500827Y2696157D01*
G01X1500827Y2651156D01*
G01X1545826Y2651156D01*
G01X1545826Y2695156D01*
G01X1587822Y2695654D01*
G01X1592823Y2690655D01*
G01X1592823Y2575654D01*
G01X1587822Y2570653D01*
G37*
G36*
G01X1587822Y2785654D02*
G01X1545826Y2785656D01*
G01X1545826Y2830155D01*
G01X1500827Y2830155D01*
G01X1500827Y2786157D01*
G01X1459824Y2785654D01*
G01X1454823Y2790655D01*
G01X1454823Y2905654D01*
G01X1459824Y2910655D01*
G01X1587822Y2910655D01*
G01X1592823Y2905654D01*
G01X1592823Y2790655D01*
G01X1587822Y2785654D01*
G37*
G36*
G01X2724436Y2471412D02*
G01X2852434Y2471412D01*
G01X2857435Y2466410D01*
G01X2857435Y2351409D01*
G01X2852434Y2346411D01*
G01X2811431Y2345908D01*
G01X2811431Y2390909D01*
G01X2766432Y2390909D01*
G01X2766432Y2346908D01*
G01X2724436Y2346411D01*
G01X2719434Y2351409D01*
G01X2719434Y2466410D01*
G01X2724436Y2471412D01*
G37*
G36*
G01X2724436Y2256411D02*
G01X2766432Y2256408D01*
G01X2766432Y2211910D01*
G01X2811431Y2211910D01*
G01X2811431Y2255908D01*
G01X2852434Y2256411D01*
G01X2857435Y2251410D01*
G01X2857435Y2136411D01*
G01X2852434Y2131410D01*
G01X2724436Y2131410D01*
G01X2719434Y2136411D01*
G01X2719434Y2251410D01*
G01X2724436Y2256411D01*
G37*
G36*
G01X1375967Y3102996D02*
G01X1375967Y3230995D01*
G01X1380968Y3235996D01*
G01X1495969Y3235996D01*
G01X1500968Y3230995D01*
G01X1501471Y3189991D01*
G01X1456470Y3189991D01*
G01X1456470Y3144993D01*
G01X1500470Y3144993D01*
G01X1500968Y3102996D01*
G01X1495969Y3097995D01*
G01X1380968Y3097995D01*
G01X1375967Y3102996D01*
G37*
G36*
G01X1590968Y3102996D02*
G01X1590970Y3144993D01*
G01X1635469Y3144993D01*
G01X1635469Y3189991D01*
G01X1591471Y3189991D01*
G01X1590968Y3230995D01*
G01X1595969Y3235996D01*
G01X1710968Y3235996D01*
G01X1715969Y3230995D01*
G01X1715969Y3102996D01*
G01X1710968Y3097995D01*
G01X1595969Y3097995D01*
G01X1590968Y3102996D01*
G37*
G36*
G01X1508500Y2236067D02*
G01X1508500Y2364066D01*
G01X1513501Y2369067D01*
G01X1628502Y2369067D01*
G01X1633501Y2364066D01*
G01X1634004Y2323062D01*
G01X1589003Y2323062D01*
G01X1589003Y2278064D01*
G01X1633003Y2278064D01*
G01X1633501Y2236067D01*
G01X1628502Y2231066D01*
G01X1513501Y2231066D01*
G01X1508500Y2236067D01*
G37*
G36*
G01X1723501Y2236067D02*
G01X1723504Y2278064D01*
G01X1768002Y2278064D01*
G01X1768002Y2323062D01*
G01X1724004Y2323062D01*
G01X1723501Y2364066D01*
G01X1728502Y2369067D01*
G01X1843501Y2369067D01*
G01X1848502Y2364066D01*
G01X1848502Y2236067D01*
G01X1843501Y2231066D01*
G01X1728502Y2231066D01*
G01X1723501Y2236067D01*
G37*
G36*
G01X1544746Y4220919D02*
G01X1544746Y4092920D01*
G01X1539745Y4087919D01*
G01X1424744Y4087919D01*
G01X1419745Y4092920D01*
G01X1419242Y4133924D01*
G01X1464243Y4133924D01*
G01X1464243Y4178922D01*
G01X1420243Y4178922D01*
G01X1419745Y4220919D01*
G01X1424744Y4225920D01*
G01X1539745Y4225920D01*
G01X1544746Y4220919D01*
G37*
G36*
G01X1203751Y4092918D02*
G01X1203751Y4220916D01*
G01X1208752Y4225917D01*
G01X1323754Y4225917D01*
G01X1328752Y4220916D01*
G01X1329255Y4179913D01*
G01X1284254Y4179913D01*
G01X1284254Y4134914D01*
G01X1328254Y4134914D01*
G01X1328752Y4092918D01*
G01X1323754Y4087917D01*
G01X1208752Y4087917D01*
G01X1203751Y4092918D01*
G37*
G36*
G01X2903968Y4092918D02*
G01X2903968Y4220916D01*
G01X2908969Y4225917D01*
G01X3023970Y4225917D01*
G01X3028969Y4220916D01*
G01X3029472Y4179913D01*
G01X2984471Y4179913D01*
G01X2984471Y4134914D01*
G01X3028471Y4134914D01*
G01X3028969Y4092918D01*
G01X3023970Y4087917D01*
G01X2908969Y4087917D01*
G01X2903968Y4092918D01*
G37*
G36*
G01X3244963Y4220919D02*
G01X3244963Y4092920D01*
G01X3239962Y4087919D01*
G01X3124961Y4087919D01*
G01X3119962Y4092920D01*
G01X3119459Y4133924D01*
G01X3164460Y4133924D01*
G01X3164460Y4178922D01*
G01X3120460Y4178922D01*
G01X3119962Y4220919D01*
G01X3124961Y4225920D01*
G01X3239962Y4225920D01*
G01X3244963Y4220919D01*
G37*
G36*
G01X2729503Y2561000D02*
G01X2729503Y2688998D01*
G01X2734504Y2693999D01*
G01X2849505Y2693999D01*
G01X2854504Y2688998D01*
G01X2855006Y2647995D01*
G01X2810005Y2647995D01*
G01X2810005Y2602996D01*
G01X2854006Y2602996D01*
G01X2854504Y2561000D01*
G01X2849505Y2555998D01*
G01X2734504Y2555998D01*
G01X2729503Y2561000D01*
G37*
G36*
G01X3070498Y2689000D02*
G01X3070498Y2561002D01*
G01X3065496Y2556001D01*
G01X2950495Y2556001D01*
G01X2945497Y2561002D01*
G01X2944994Y2602005D01*
G01X2989995Y2602005D01*
G01X2989995Y2647004D01*
G01X2945994Y2647004D01*
G01X2945497Y2689000D01*
G01X2950495Y2694002D01*
G01X3065496Y2694002D01*
G01X3070498Y2689000D01*
G37*
G36*
G01X1055790Y795315D02*
G01X1055790Y923313D01*
G01X1060792Y928314D01*
G01X1175793Y928314D01*
G01X1180791Y923313D01*
G01X1181294Y882310D01*
G01X1136293Y882310D01*
G01X1136293Y837311D01*
G01X1180294Y837311D01*
G01X1180791Y795315D01*
G01X1175793Y790313D01*
G01X1060792Y790313D01*
G01X1055790Y795315D01*
G37*
G36*
G01X1396785Y923315D02*
G01X1396785Y795317D01*
G01X1391784Y790316D01*
G01X1276783Y790316D01*
G01X1271784Y795317D01*
G01X1271281Y836320D01*
G01X1316283Y836320D01*
G01X1316283Y881319D01*
G01X1272282Y881319D01*
G01X1271784Y923315D01*
G01X1276783Y928317D01*
G01X1391784Y928317D01*
G01X1396785Y923315D01*
G37*
G36*
G01X2357778Y379502D02*
G01X2229779Y379502D01*
G01X2224778Y384504D01*
G01X2224778Y499505D01*
G01X2229779Y504503D01*
G01X2270783Y505006D01*
G01X2270783Y460005D01*
G01X2315781Y460005D01*
G01X2315781Y504006D01*
G01X2357778Y504503D01*
G01X2362779Y499505D01*
G01X2362779Y384504D01*
G01X2357778Y379502D01*
G37*
G36*
G01X2229777Y720497D02*
G01X2357775Y720497D01*
G01X2362776Y715496D01*
G01X2362776Y600495D01*
G01X2357775Y595496D01*
G01X2316772Y594993D01*
G01X2316772Y639995D01*
G01X2271773Y639995D01*
G01X2271773Y595994D01*
G01X2229777Y595496D01*
G01X2224776Y600495D01*
G01X2224776Y715496D01*
G01X2229777Y720497D01*
G37*
G36*
G01X2040737Y379502D02*
G01X1912739Y379502D01*
G01X1907738Y384504D01*
G01X1907738Y499505D01*
G01X1912739Y504503D01*
G01X1953742Y505006D01*
G01X1953742Y460005D01*
G01X1998741Y460005D01*
G01X1998741Y504006D01*
G01X2040737Y504503D01*
G01X2045738Y499505D01*
G01X2045738Y384504D01*
G01X2040737Y379502D01*
G37*
G36*
G01X1912736Y720497D02*
G01X2040735Y720497D01*
G01X2045736Y715496D01*
G01X2045736Y600495D01*
G01X2040735Y595496D01*
G01X1999731Y594993D01*
G01X1999731Y639995D01*
G01X1954733Y639995D01*
G01X1954733Y595994D01*
G01X1912736Y595496D01*
G01X1907735Y600495D01*
G01X1907735Y715496D01*
G01X1912736Y720497D01*
G37*
G36*
G01X3039001Y379502D02*
G01X2911002Y379502D01*
G01X2906001Y384504D01*
G01X2906001Y499505D01*
G01X2911002Y504503D01*
G01X2952006Y505006D01*
G01X2952006Y460005D01*
G01X2997004Y460005D01*
G01X2997004Y504006D01*
G01X3039001Y504503D01*
G01X3044002Y499505D01*
G01X3044002Y384504D01*
G01X3039001Y379502D01*
G37*
G36*
G01X2911000Y720497D02*
G01X3038998Y720497D01*
G01X3043999Y715496D01*
G01X3043999Y600495D01*
G01X3038998Y595496D01*
G01X2997995Y594993D01*
G01X2997995Y639995D01*
G01X2952996Y639995D01*
G01X2952996Y595994D01*
G01X2911000Y595496D01*
G01X2905999Y600495D01*
G01X2905999Y715496D01*
G01X2911000Y720497D01*
G37*
G36*
G01X1604855Y1743622D02*
G01X1684855Y1743622D01*
G01X1689856Y1748623D01*
G01X1689856Y1771420D01*
G01X1652856Y1771420D01*
G01X1652856Y1804420D01*
G01X1689856Y1804420D01*
G01X1689856Y1828623D01*
G01X1684855Y1833622D01*
G01X1604855Y1833622D01*
G01X1599857Y1828623D01*
G01X1599857Y1748623D01*
G01X1604855Y1743622D01*
G37*
G36*
G01X1843859Y1833619D02*
G01X1763859Y1833619D01*
G01X1758858Y1828618D01*
G01X1758858Y1805822D01*
G01X1795858Y1805822D01*
G01X1795858Y1772822D01*
G01X1758858Y1772822D01*
G01X1758858Y1748618D01*
G01X1763859Y1743620D01*
G01X1843859Y1743620D01*
G01X1848858Y1748618D01*
G01X1848858Y1828618D01*
G01X1843859Y1833619D01*
G37*
G36*
G01X2498203Y1883019D02*
G01X2370204Y1883019D01*
G01X2365203Y1888020D01*
G01X2365203Y2003021D01*
G01X2370204Y2008020D01*
G01X2411208Y2008523D01*
G01X2411208Y1963522D01*
G01X2456206Y1963522D01*
G01X2456206Y2007522D01*
G01X2498203Y2008020D01*
G01X2503204Y2003021D01*
G01X2503204Y1888020D01*
G01X2498203Y1883019D01*
G37*
G36*
G01X2498203Y2098020D02*
G01X2456206Y2098022D01*
G01X2456206Y2142520D01*
G01X2411208Y2142520D01*
G01X2411208Y2098523D01*
G01X2370204Y2098020D01*
G01X2365203Y2103021D01*
G01X2365203Y2218019D01*
G01X2370204Y2223021D01*
G01X2498203Y2223021D01*
G01X2503204Y2218019D01*
G01X2503204Y2103021D01*
G01X2498203Y2098020D01*
G37*
G36*
G01X2070202Y2221682D02*
G01X2198200Y2221682D01*
G01X2203201Y2216680D01*
G01X2203201Y2101679D01*
G01X2198200Y2096681D01*
G01X2157197Y2096178D01*
G01X2157197Y2141179D01*
G01X2112198Y2141179D01*
G01X2112198Y2097178D01*
G01X2070202Y2096681D01*
G01X2065201Y2101679D01*
G01X2065201Y2216680D01*
G01X2070202Y2221682D01*
G37*
G36*
G01X2070202Y2006681D02*
G01X2112198Y2006678D01*
G01X2112198Y1962180D01*
G01X2157197Y1962180D01*
G01X2157197Y2006178D01*
G01X2198200Y2006681D01*
G01X2203201Y2001680D01*
G01X2203201Y1886681D01*
G01X2198200Y1881680D01*
G01X2070202Y1881680D01*
G01X2065201Y1886681D01*
G01X2065201Y2001680D01*
G01X2070202Y2006681D01*
G37*

G04 Pad Start*
G54D10*
G01X4116987Y2174988D03*
G01X3583003Y2174988D03*
G01X4116987Y1349987D03*
G01X3583003Y1349987D03*
G54D11*
G01X2442006Y3945000D03*
G01X2037994Y3945000D03*
G54D12*
G01X2010001Y3025006D03*
G01X2010001Y2974994D03*
G01X2010001Y2925007D03*
G01X2010001Y2874994D03*
G54D13*
G01X2046000Y2812500D03*
G54D14*
G01X2096013Y2810000D03*
G54D15*
G01X2146000Y2950000D03*
G01X2196012Y2950000D03*
G54D17*
G01X2250000Y2950000D03*
G54D15*
G01X2304013Y2950000D03*
G01X2354000Y2950000D03*
G54D14*
G01X2404013Y2810000D03*
G54D13*
G01X2454000Y2812500D03*
G54D12*
G01X2490000Y2874994D03*
G01X2490000Y2925007D03*
G01X2490000Y2974994D03*
G01X2490000Y3025006D03*
G54D13*
G01X2454000Y3087501D03*
G54D14*
G01X2404013Y3090000D03*
G54D13*
G01X2046000Y3087501D03*
G54D14*
G01X2095987Y3090000D03*
G54D18*
G01X2933099Y1973227D03*
G01X2793094Y1973227D03*
G54D10*
G01X458013Y2100013D03*
G01X991997Y2100013D03*
G01X458013Y1350013D03*
G01X991997Y1350013D03*
G04 Pad End*

M02*

