G04 Layer: TopSilkscreenLayer*
G04 EasyEDA Pro v2.2.43.4, 2025-10-30 16:07:04*
G04 Gerber Generator version 0.3*
G04 Scale: 100 percent, Rotated: No, Reflected: No*
G04 Dimensions in millimeters*
G04 Leading zeros omitted, absolute positions, 4 integers and 5 decimals*
G04 Generated by one-click*
%FSLAX45Y45*%
%MOMM*%
%ADD10C,0.203*%
%ADD11C,0.1524*%
%ADD12C,0.254*%
%ADD13C,0.152*%
%ADD14C,0.2*%
%ADD15C,0.1215*%
G75*


G04 Text Start*
G54D10*
G01X950160Y3899082D02*
G01X950160Y3712392D01*
G01X1013152Y3899082D02*
G01X1013152Y3712392D01*
G01X1013152Y3899082D02*
G01X1137612Y3712392D01*
G01X1137612Y3899082D02*
G01X1137612Y3712392D01*
G01X3138500Y4034080D02*
G01X3120720Y4025190D01*
G01X3102940Y4007410D01*
G01X3094050Y3989630D01*
G01X3085160Y3962960D01*
G01X3085160Y3918510D01*
G01X3094050Y3891840D01*
G01X3102940Y3874060D01*
G01X3120720Y3856280D01*
G01X3138500Y3847390D01*
G01X3174060Y3847390D01*
G01X3191840Y3856280D01*
G01X3209620Y3874060D01*
G01X3218510Y3891840D01*
G01X3227400Y3918510D01*
G01X3227400Y3962960D01*
G01X3218510Y3989630D01*
G01X3209620Y4007410D01*
G01X3191840Y4025190D01*
G01X3174060Y4034080D01*
G01X3138500Y4034080D01*
G01X3290392Y4034080D02*
G01X3290392Y3900730D01*
G01X3299282Y3874060D01*
G01X3317062Y3856280D01*
G01X3343732Y3847390D01*
G01X3361512Y3847390D01*
G01X3388182Y3856280D01*
G01X3405962Y3874060D01*
G01X3414852Y3900730D01*
G01X3414852Y4034080D01*
G01X3540074Y4034080D02*
G01X3540074Y3847390D01*
G01X3477844Y4034080D02*
G01X3602304Y4034080D01*
G01X1035160Y336074D02*
G01X1092564Y185452D01*
G01X1149968Y336074D02*
G01X1092564Y185452D01*
G01X1204832Y307372D02*
G01X1219056Y314484D01*
G01X1240646Y336074D01*
G01X1240646Y185452D01*
G01X1302622Y221266D02*
G01X1295510Y214154D01*
G01X1302622Y207042D01*
G01X1309734Y214154D01*
G01X1302622Y221266D01*
G01X1407524Y336074D02*
G01X1385934Y328962D01*
G01X1371710Y307372D01*
G01X1364598Y271558D01*
G01X1364598Y249968D01*
G01X1371710Y214154D01*
G01X1385934Y192564D01*
G01X1407524Y185452D01*
G01X1422002Y185452D01*
G01X1443338Y192564D01*
G01X1457816Y214154D01*
G01X1464928Y249968D01*
G01X1464928Y271558D01*
G01X1457816Y307372D01*
G01X1443338Y328962D01*
G01X1422002Y336074D01*
G01X1407524Y336074D01*
G54D11*
G01X1504102Y603740D02*
G01X1501054Y610090D01*
G01X1494704Y616186D01*
G01X1488608Y619234D01*
G01X1476162Y619234D01*
G01X1470066Y616186D01*
G01X1463716Y610090D01*
G01X1460668Y603740D01*
G01X1457620Y594596D01*
G01X1457620Y579102D01*
G01X1460668Y569704D01*
G01X1463716Y563608D01*
G01X1470066Y557258D01*
G01X1476162Y554210D01*
G01X1488608Y554210D01*
G01X1494704Y557258D01*
G01X1501054Y563608D01*
G01X1504102Y569704D01*
G01X1534328Y619234D02*
G01X1537376Y616186D01*
G01X1540424Y619234D01*
G01X1537376Y622282D01*
G01X1534328Y619234D01*
G01X1537376Y597644D02*
G01X1537376Y554210D01*
G01X1570650Y597644D02*
G01X1570650Y554210D01*
G01X1570650Y585198D02*
G01X1579794Y594596D01*
G01X1585890Y597644D01*
G01X1595288Y597644D01*
G01X1601384Y594596D01*
G01X1604686Y585198D01*
G01X1604686Y554210D01*
G01X1634912Y597644D02*
G01X1668948Y554210D01*
G01X1668948Y597644D02*
G01X1634912Y554210D01*
G01X1702222Y603740D02*
G01X1702222Y606788D01*
G01X1705270Y613138D01*
G01X1708318Y616186D01*
G01X1714414Y619234D01*
G01X1726860Y619234D01*
G01X1733210Y616186D01*
G01X1736258Y613138D01*
G01X1739306Y606788D01*
G01X1739306Y600692D01*
G01X1736258Y594596D01*
G01X1729908Y585198D01*
G01X1699174Y554210D01*
G01X1742354Y554210D01*
G01X3462105Y2611677D02*
G01X3459057Y2618027D01*
G01X3452707Y2624123D01*
G01X3446611Y2627171D01*
G01X3434165Y2627171D01*
G01X3428069Y2624123D01*
G01X3421719Y2618027D01*
G01X3418671Y2611677D01*
G01X3415623Y2602533D01*
G01X3415623Y2587039D01*
G01X3418671Y2577641D01*
G01X3421719Y2571545D01*
G01X3428069Y2565195D01*
G01X3434165Y2562147D01*
G01X3446611Y2562147D01*
G01X3452707Y2565195D01*
G01X3459057Y2571545D01*
G01X3462105Y2577641D01*
G01X3507571Y2605581D02*
G01X3501475Y2602533D01*
G01X3495379Y2596183D01*
G01X3492331Y2587039D01*
G01X3492331Y2580689D01*
G01X3495379Y2571545D01*
G01X3501475Y2565195D01*
G01X3507571Y2562147D01*
G01X3516969Y2562147D01*
G01X3523065Y2565195D01*
G01X3529415Y2571545D01*
G01X3532463Y2580689D01*
G01X3532463Y2587039D01*
G01X3529415Y2596183D01*
G01X3523065Y2602533D01*
G01X3516969Y2605581D01*
G01X3507571Y2605581D01*
G01X3562689Y2605581D02*
G01X3562689Y2574593D01*
G01X3565737Y2565195D01*
G01X3571833Y2562147D01*
G01X3581231Y2562147D01*
G01X3587327Y2565195D01*
G01X3596725Y2574593D01*
G01X3596725Y2605581D02*
G01X3596725Y2562147D01*
G01X3636095Y2627171D02*
G01X3636095Y2574593D01*
G01X3639143Y2565195D01*
G01X3645493Y2562147D01*
G01X3651589Y2562147D01*
G01X3626951Y2605581D02*
G01X3648541Y2605581D01*
G01X3681815Y2614725D02*
G01X3687911Y2618027D01*
G01X3697055Y2627171D01*
G01X3697055Y2562147D01*
G01X3462105Y1786677D02*
G01X3459057Y1793027D01*
G01X3452707Y1799123D01*
G01X3446611Y1802171D01*
G01X3434165Y1802171D01*
G01X3428069Y1799123D01*
G01X3421719Y1793027D01*
G01X3418671Y1786677D01*
G01X3415623Y1777533D01*
G01X3415623Y1762039D01*
G01X3418671Y1752641D01*
G01X3421719Y1746545D01*
G01X3428069Y1740195D01*
G01X3434165Y1737147D01*
G01X3446611Y1737147D01*
G01X3452707Y1740195D01*
G01X3459057Y1746545D01*
G01X3462105Y1752641D01*
G01X3507571Y1780581D02*
G01X3501475Y1777533D01*
G01X3495379Y1771183D01*
G01X3492331Y1762039D01*
G01X3492331Y1755689D01*
G01X3495379Y1746545D01*
G01X3501475Y1740195D01*
G01X3507571Y1737147D01*
G01X3516969Y1737147D01*
G01X3523065Y1740195D01*
G01X3529415Y1746545D01*
G01X3532463Y1755689D01*
G01X3532463Y1762039D01*
G01X3529415Y1771183D01*
G01X3523065Y1777533D01*
G01X3516969Y1780581D01*
G01X3507571Y1780581D01*
G01X3562689Y1780581D02*
G01X3562689Y1749593D01*
G01X3565737Y1740195D01*
G01X3571833Y1737147D01*
G01X3581231Y1737147D01*
G01X3587327Y1740195D01*
G01X3596725Y1749593D01*
G01X3596725Y1780581D02*
G01X3596725Y1737147D01*
G01X3636095Y1802171D02*
G01X3636095Y1749593D01*
G01X3639143Y1740195D01*
G01X3645493Y1737147D01*
G01X3651589Y1737147D01*
G01X3626951Y1780581D02*
G01X3648541Y1780581D01*
G01X3684863Y1786677D02*
G01X3684863Y1789725D01*
G01X3687911Y1796075D01*
G01X3690959Y1799123D01*
G01X3697055Y1802171D01*
G01X3709501Y1802171D01*
G01X3715851Y1799123D01*
G01X3718899Y1796075D01*
G01X3721947Y1789725D01*
G01X3721947Y1783629D01*
G01X3718899Y1777533D01*
G01X3712549Y1768135D01*
G01X3681815Y1737147D01*
G01X3724995Y1737147D01*
G01X2462647Y400122D02*
G01X2456297Y397074D01*
G01X2450201Y390724D01*
G01X2447153Y384628D01*
G01X2447153Y372182D01*
G01X2450201Y366086D01*
G01X2456297Y359736D01*
G01X2462647Y356688D01*
G01X2471791Y353640D01*
G01X2487285Y353640D01*
G01X2496683Y356688D01*
G01X2502779Y359736D01*
G01X2509129Y366086D01*
G01X2512177Y372182D01*
G01X2512177Y384628D01*
G01X2509129Y390724D01*
G01X2502779Y397074D01*
G01X2496683Y400122D01*
G01X2468743Y445588D02*
G01X2471791Y439492D01*
G01X2478141Y433396D01*
G01X2487285Y430348D01*
G01X2493635Y430348D01*
G01X2502779Y433396D01*
G01X2509129Y439492D01*
G01X2512177Y445588D01*
G01X2512177Y454986D01*
G01X2509129Y461082D01*
G01X2502779Y467432D01*
G01X2493635Y470480D01*
G01X2487285Y470480D01*
G01X2478141Y467432D01*
G01X2471791Y461082D01*
G01X2468743Y454986D01*
G01X2468743Y445588D01*
G01X2468743Y500706D02*
G01X2499731Y500706D01*
G01X2509129Y503754D01*
G01X2512177Y509850D01*
G01X2512177Y519248D01*
G01X2509129Y525344D01*
G01X2499731Y534742D01*
G01X2468743Y534742D02*
G01X2512177Y534742D01*
G01X2447153Y574112D02*
G01X2499731Y574112D01*
G01X2509129Y577160D01*
G01X2512177Y583510D01*
G01X2512177Y589606D01*
G01X2468743Y564968D02*
G01X2468743Y586558D01*
G01X2468743Y619832D02*
G01X2512177Y653868D01*
G01X2468743Y653868D02*
G01X2512177Y619832D01*
G01X-215078Y3629799D02*
G01X-215078Y3564775D01*
G01X-215078Y3629799D02*
G01X-193488Y3629799D01*
G01X-184090Y3626751D01*
G01X-177994Y3620655D01*
G01X-174946Y3614305D01*
G01X-171644Y3605161D01*
G01X-171644Y3589667D01*
G01X-174946Y3580269D01*
G01X-177994Y3574173D01*
G01X-184090Y3567823D01*
G01X-193488Y3564775D01*
G01X-215078Y3564775D01*
G01X-95190Y3614305D02*
G01X-98238Y3620655D01*
G01X-104334Y3626751D01*
G01X-110684Y3629799D01*
G01X-122876Y3629799D01*
G01X-129226Y3626751D01*
G01X-135322Y3620655D01*
G01X-138370Y3614305D01*
G01X-141418Y3605161D01*
G01X-141418Y3589667D01*
G01X-138370Y3580269D01*
G01X-135322Y3574173D01*
G01X-129226Y3567823D01*
G01X-122876Y3564775D01*
G01X-110684Y3564775D01*
G01X-104334Y3567823D01*
G01X-98238Y3574173D01*
G01X-95190Y3580269D01*
G01X-64964Y3617353D02*
G01X-58868Y3620655D01*
G01X-49724Y3629799D01*
G01X-49724Y3564775D01*
G01X4690078Y2495201D02*
G01X4690078Y2560225D01*
G01X4690078Y2495201D02*
G01X4668488Y2495201D01*
G01X4659090Y2498249D01*
G01X4652994Y2504345D01*
G01X4649946Y2510695D01*
G01X4646644Y2519839D01*
G01X4646644Y2535333D01*
G01X4649946Y2544731D01*
G01X4652994Y2550827D01*
G01X4659090Y2557177D01*
G01X4668488Y2560225D01*
G01X4690078Y2560225D01*
G01X4570190Y2510695D02*
G01X4573238Y2504345D01*
G01X4579334Y2498249D01*
G01X4585684Y2495201D01*
G01X4597876Y2495201D01*
G01X4604226Y2498249D01*
G01X4610322Y2504345D01*
G01X4613370Y2510695D01*
G01X4616418Y2519839D01*
G01X4616418Y2535333D01*
G01X4613370Y2544731D01*
G01X4610322Y2550827D01*
G01X4604226Y2557177D01*
G01X4597876Y2560225D01*
G01X4585684Y2560225D01*
G01X4579334Y2557177D01*
G01X4573238Y2550827D01*
G01X4570190Y2544731D01*
G01X4536916Y2510695D02*
G01X4536916Y2507647D01*
G01X4533868Y2501297D01*
G01X4530820Y2498249D01*
G01X4524724Y2495201D01*
G01X4512278Y2495201D01*
G01X4505928Y2498249D01*
G01X4502880Y2501297D01*
G01X4499832Y2507647D01*
G01X4499832Y2513743D01*
G01X4502880Y2519839D01*
G01X4509230Y2529237D01*
G01X4539964Y2560225D01*
G01X4496784Y2560225D01*
G01X1904720Y4394834D02*
G01X1904720Y4329810D01*
G01X1904720Y4329810D02*
G01X1941804Y4329810D01*
G01X1972030Y4382388D02*
G01X1978126Y4385690D01*
G01X1987270Y4394834D01*
G01X1987270Y4329810D01*
G01X1938535Y3226935D02*
G01X1938535Y3180453D01*
G01X1941583Y3171309D01*
G01X1947933Y3164959D01*
G01X1957077Y3161911D01*
G01X1963427Y3161911D01*
G01X1972571Y3164959D01*
G01X1978667Y3171309D01*
G01X1981969Y3180453D01*
G01X1981969Y3226935D01*
G01X2012195Y3214489D02*
G01X2018291Y3217791D01*
G01X2027435Y3226935D01*
G01X2027435Y3161911D01*
G01X832620Y194234D02*
G01X832620Y129210D01*
G01X832620Y194234D02*
G01X857512Y129210D01*
G01X882150Y194234D02*
G01X857512Y129210D01*
G01X882150Y194234D02*
G01X882150Y129210D01*
G01X912376Y194234D02*
G01X912376Y129210D01*
G01X955556Y194234D02*
G01X955556Y129210D01*
G01X912376Y163246D02*
G01X955556Y163246D01*
G01X985782Y181788D02*
G01X991878Y185090D01*
G01X1001022Y194234D01*
G01X1001022Y129210D01*
G01X807620Y4419234D02*
G01X807620Y4354210D01*
G01X807620Y4419234D02*
G01X832512Y4354210D01*
G01X857150Y4419234D02*
G01X832512Y4354210D01*
G01X857150Y4419234D02*
G01X857150Y4354210D01*
G01X887376Y4419234D02*
G01X887376Y4354210D01*
G01X930556Y4419234D02*
G01X930556Y4354210D01*
G01X887376Y4388246D02*
G01X930556Y4388246D01*
G01X963830Y4403740D02*
G01X963830Y4406788D01*
G01X966878Y4413138D01*
G01X969926Y4416186D01*
G01X976022Y4419234D01*
G01X988468Y4419234D01*
G01X994818Y4416186D01*
G01X997866Y4413138D01*
G01X1000914Y4406788D01*
G01X1000914Y4400692D01*
G01X997866Y4394596D01*
G01X991516Y4385198D01*
G01X960782Y4354210D01*
G01X1003962Y4354210D01*
G01X3557620Y4419234D02*
G01X3557620Y4354210D01*
G01X3557620Y4419234D02*
G01X3582512Y4354210D01*
G01X3607150Y4419234D02*
G01X3582512Y4354210D01*
G01X3607150Y4419234D02*
G01X3607150Y4354210D01*
G01X3637376Y4419234D02*
G01X3637376Y4354210D01*
G01X3680556Y4419234D02*
G01X3680556Y4354210D01*
G01X3637376Y4388246D02*
G01X3680556Y4388246D01*
G01X3716878Y4419234D02*
G01X3750914Y4419234D01*
G01X3732372Y4394596D01*
G01X3741516Y4394596D01*
G01X3747866Y4391548D01*
G01X3750914Y4388246D01*
G01X3753962Y4379102D01*
G01X3753962Y4372752D01*
G01X3750914Y4363608D01*
G01X3744818Y4357258D01*
G01X3735420Y4354210D01*
G01X3726022Y4354210D01*
G01X3716878Y4357258D01*
G01X3713830Y4360560D01*
G01X3710782Y4366656D01*
G01X3507620Y194234D02*
G01X3507620Y129210D01*
G01X3507620Y194234D02*
G01X3532512Y129210D01*
G01X3557150Y194234D02*
G01X3532512Y129210D01*
G01X3557150Y194234D02*
G01X3557150Y129210D01*
G01X3587376Y194234D02*
G01X3587376Y129210D01*
G01X3630556Y194234D02*
G01X3630556Y129210D01*
G01X3587376Y163246D02*
G01X3630556Y163246D01*
G01X3691516Y194234D02*
G01X3660782Y151054D01*
G01X3707010Y151054D01*
G01X3691516Y194234D02*
G01X3691516Y129210D01*
G01X2996688Y3442119D02*
G01X2990338Y3439071D01*
G01X2984242Y3432721D01*
G01X2981194Y3426625D01*
G01X2981194Y3414179D01*
G01X2984242Y3408083D01*
G01X2990338Y3401733D01*
G01X2996688Y3398685D01*
G01X3005832Y3395637D01*
G01X3021326Y3395637D01*
G01X3030724Y3398685D01*
G01X3036820Y3401733D01*
G01X3043170Y3408083D01*
G01X3046218Y3414179D01*
G01X3046218Y3426625D01*
G01X3043170Y3432721D01*
G01X3036820Y3439071D01*
G01X3030724Y3442119D01*
G01X3002784Y3472345D02*
G01X3046218Y3490887D01*
G01X3002784Y3509429D02*
G01X3046218Y3490887D01*
G01X3012182Y3576739D02*
G01X3005832Y3570389D01*
G01X3002784Y3564293D01*
G01X3002784Y3554895D01*
G01X3005832Y3548799D01*
G01X3012182Y3542703D01*
G01X3021326Y3539655D01*
G01X3027676Y3539655D01*
G01X3036820Y3542703D01*
G01X3043170Y3548799D01*
G01X3046218Y3554895D01*
G01X3046218Y3564293D01*
G01X3043170Y3570389D01*
G01X3036820Y3576739D01*
G01X3012182Y3644049D02*
G01X3005832Y3637699D01*
G01X3002784Y3631603D01*
G01X3002784Y3622205D01*
G01X3005832Y3616109D01*
G01X3012182Y3610013D01*
G01X3021326Y3606965D01*
G01X3027676Y3606965D01*
G01X3036820Y3610013D01*
G01X3043170Y3616109D01*
G01X3046218Y3622205D01*
G01X3046218Y3631603D01*
G01X3043170Y3637699D01*
G01X3036820Y3644049D01*
G01X1317558Y2564542D02*
G01X1382582Y2564542D01*
G01X1317558Y2564542D02*
G01X1317558Y2592482D01*
G01X1320606Y2601626D01*
G01X1323654Y2604674D01*
G01X1330004Y2607976D01*
G01X1336100Y2607976D01*
G01X1342196Y2604674D01*
G01X1345244Y2601626D01*
G01X1348546Y2592482D01*
G01X1348546Y2564542D01*
G01X1348546Y2586132D02*
G01X1382582Y2607976D01*
G01X1348546Y2675286D02*
G01X1342196Y2668936D01*
G01X1339148Y2662840D01*
G01X1339148Y2653442D01*
G01X1342196Y2647346D01*
G01X1348546Y2641250D01*
G01X1357690Y2638202D01*
G01X1364040Y2638202D01*
G01X1373184Y2641250D01*
G01X1379534Y2647346D01*
G01X1382582Y2653442D01*
G01X1382582Y2662840D01*
G01X1379534Y2668936D01*
G01X1373184Y2675286D01*
G01X1348546Y2742596D02*
G01X1342196Y2736246D01*
G01X1339148Y2730150D01*
G01X1339148Y2720752D01*
G01X1342196Y2714656D01*
G01X1348546Y2708560D01*
G01X1357690Y2705512D01*
G01X1364040Y2705512D01*
G01X1373184Y2708560D01*
G01X1379534Y2714656D01*
G01X1382582Y2720752D01*
G01X1382582Y2730150D01*
G01X1379534Y2736246D01*
G01X1373184Y2742596D01*
G01X2994699Y2477523D02*
G01X2929675Y2477523D01*
G01X2994699Y2477523D02*
G01X2994699Y2449583D01*
G01X2991651Y2440439D01*
G01X2988603Y2437391D01*
G01X2982253Y2434089D01*
G01X2976157Y2434089D01*
G01X2970061Y2437391D01*
G01X2967013Y2440439D01*
G01X2963711Y2449583D01*
G01X2963711Y2477523D01*
G01X2963711Y2455933D02*
G01X2929675Y2434089D01*
G01X2963711Y2366779D02*
G01X2970061Y2373129D01*
G01X2973109Y2379225D01*
G01X2973109Y2388623D01*
G01X2970061Y2394719D01*
G01X2963711Y2400815D01*
G01X2954567Y2403863D01*
G01X2948217Y2403863D01*
G01X2939073Y2400815D01*
G01X2932723Y2394719D01*
G01X2929675Y2388623D01*
G01X2929675Y2379225D01*
G01X2932723Y2373129D01*
G01X2939073Y2366779D01*
G01X2973109Y2321313D02*
G01X2970061Y2327409D01*
G01X2963711Y2333505D01*
G01X2954567Y2336553D01*
G01X2948217Y2336553D01*
G01X2939073Y2333505D01*
G01X2932723Y2327409D01*
G01X2929675Y2321313D01*
G01X2929675Y2311915D01*
G01X2932723Y2305819D01*
G01X2939073Y2299469D01*
G01X2948217Y2296421D01*
G01X2954567Y2296421D01*
G01X2963711Y2299469D01*
G01X2970061Y2305819D01*
G01X2973109Y2311915D01*
G01X2973109Y2321313D01*
G01X2973109Y2266195D02*
G01X2929675Y2266195D01*
G01X2960663Y2266195D02*
G01X2970061Y2257051D01*
G01X2973109Y2250955D01*
G01X2973109Y2241557D01*
G01X2970061Y2235461D01*
G01X2960663Y2232159D01*
G01X2929675Y2232159D01*
G01X2960663Y2232159D02*
G01X2970061Y2223015D01*
G01X2973109Y2216665D01*
G01X2973109Y2207521D01*
G01X2970061Y2201425D01*
G01X2960663Y2198123D01*
G01X2929675Y2198123D01*
G01X2973109Y2167897D02*
G01X2908085Y2167897D01*
G01X2963711Y2167897D02*
G01X2970061Y2161801D01*
G01X2973109Y2155705D01*
G01X2973109Y2146307D01*
G01X2970061Y2140211D01*
G01X2963711Y2133861D01*
G01X2954567Y2130813D01*
G01X2948217Y2130813D01*
G01X2939073Y2133861D01*
G01X2932723Y2140211D01*
G01X2929675Y2146307D01*
G01X2929675Y2155705D01*
G01X2932723Y2161801D01*
G01X2939073Y2167897D01*
G01X1369856Y3373260D02*
G01X1369856Y3308236D01*
G01X1369856Y3373260D02*
G01X1397796Y3373260D01*
G01X1406940Y3370212D01*
G01X1409988Y3367164D01*
G01X1413290Y3360814D01*
G01X1413290Y3354718D01*
G01X1409988Y3348622D01*
G01X1406940Y3345574D01*
G01X1397796Y3342272D01*
G01X1369856Y3342272D01*
G01X1391446Y3342272D02*
G01X1413290Y3308236D01*
G01X1443516Y3351670D02*
G01X1443516Y3286646D01*
G01X1443516Y3342272D02*
G01X1449612Y3348622D01*
G01X1455708Y3351670D01*
G01X1465106Y3351670D01*
G01X1471202Y3348622D01*
G01X1477552Y3342272D01*
G01X1480600Y3333128D01*
G01X1480600Y3326778D01*
G01X1477552Y3317634D01*
G01X1471202Y3311284D01*
G01X1465106Y3308236D01*
G01X1455708Y3308236D01*
G01X1449612Y3311284D01*
G01X1443516Y3317634D01*
G01X1547910Y3351670D02*
G01X1547910Y3302140D01*
G01X1544862Y3292742D01*
G01X1541560Y3289694D01*
G01X1535464Y3286646D01*
G01X1526066Y3286646D01*
G01X1519970Y3289694D01*
G01X1547910Y3342272D02*
G01X1541560Y3348622D01*
G01X1535464Y3351670D01*
G01X1526066Y3351670D01*
G01X1519970Y3348622D01*
G01X1513874Y3342272D01*
G01X1510826Y3333128D01*
G01X1510826Y3326778D01*
G01X1513874Y3317634D01*
G01X1519970Y3311284D01*
G01X1526066Y3308236D01*
G01X1535464Y3308236D01*
G01X1541560Y3311284D01*
G01X1547910Y3317634D01*
G01X1502389Y2506331D02*
G01X1502389Y2441307D01*
G01X1502389Y2506331D02*
G01X1530329Y2506331D01*
G01X1539473Y2503283D01*
G01X1542521Y2500235D01*
G01X1545823Y2493885D01*
G01X1545823Y2487789D01*
G01X1542521Y2481693D01*
G01X1539473Y2478645D01*
G01X1530329Y2475343D01*
G01X1502389Y2475343D01*
G01X1523979Y2475343D02*
G01X1545823Y2441307D01*
G01X1585193Y2506331D02*
G01X1585193Y2453753D01*
G01X1588241Y2444355D01*
G01X1594591Y2441307D01*
G01X1600687Y2441307D01*
G01X1576049Y2484741D02*
G01X1597639Y2484741D01*
G01X1524126Y3967498D02*
G01X1527174Y3961148D01*
G01X1533524Y3955052D01*
G01X1539620Y3952004D01*
G01X1552066Y3952004D01*
G01X1558162Y3955052D01*
G01X1564512Y3961148D01*
G01X1567560Y3967498D01*
G01X1570608Y3976642D01*
G01X1570608Y3992136D01*
G01X1567560Y4001534D01*
G01X1564512Y4007630D01*
G01X1558162Y4013980D01*
G01X1552066Y4017028D01*
G01X1539620Y4017028D01*
G01X1533524Y4013980D01*
G01X1527174Y4007630D01*
G01X1524126Y4001534D01*
G01X1493900Y3952004D02*
G01X1493900Y4017028D01*
G01X1493900Y3982992D02*
G01X1487804Y3976642D01*
G01X1481708Y3973594D01*
G01X1472310Y3973594D01*
G01X1466214Y3976642D01*
G01X1459864Y3982992D01*
G01X1456816Y3992136D01*
G01X1456816Y3998486D01*
G01X1459864Y4007630D01*
G01X1466214Y4013980D01*
G01X1472310Y4017028D01*
G01X1481708Y4017028D01*
G01X1487804Y4013980D01*
G01X1493900Y4007630D01*
G01X1411350Y3973594D02*
G01X1417446Y3976642D01*
G01X1423542Y3982992D01*
G01X1426590Y3992136D01*
G01X1426590Y3998486D01*
G01X1423542Y4007630D01*
G01X1417446Y4013980D01*
G01X1411350Y4017028D01*
G01X1401952Y4017028D01*
G01X1395856Y4013980D01*
G01X1389506Y4007630D01*
G01X1386458Y3998486D01*
G01X1386458Y3992136D01*
G01X1389506Y3982992D01*
G01X1395856Y3976642D01*
G01X1401952Y3973594D01*
G01X1411350Y3973594D01*
G01X1340992Y3973594D02*
G01X1347088Y3976642D01*
G01X1353184Y3982992D01*
G01X1356232Y3992136D01*
G01X1356232Y3998486D01*
G01X1353184Y4007630D01*
G01X1347088Y4013980D01*
G01X1340992Y4017028D01*
G01X1331594Y4017028D01*
G01X1325498Y4013980D01*
G01X1319148Y4007630D01*
G01X1316100Y3998486D01*
G01X1316100Y3992136D01*
G01X1319148Y3982992D01*
G01X1325498Y3976642D01*
G01X1331594Y3973594D01*
G01X1340992Y3973594D01*
G01X1276730Y3952004D02*
G01X1276730Y4004582D01*
G01X1273682Y4013980D01*
G01X1267332Y4017028D01*
G01X1261236Y4017028D01*
G01X1285874Y3973594D02*
G01X1264284Y3973594D01*
G01X1231010Y3964450D02*
G01X1224914Y3961148D01*
G01X1215770Y3952004D01*
G01X1215770Y4017028D01*
G01X2924588Y4346339D02*
G01X2921540Y4352689D01*
G01X2915190Y4358785D01*
G01X2909094Y4361833D01*
G01X2896648Y4361833D01*
G01X2890552Y4358785D01*
G01X2884202Y4352689D01*
G01X2881154Y4346339D01*
G01X2878106Y4337195D01*
G01X2878106Y4321701D01*
G01X2881154Y4312303D01*
G01X2884202Y4306207D01*
G01X2890552Y4299857D01*
G01X2896648Y4296809D01*
G01X2909094Y4296809D01*
G01X2915190Y4299857D01*
G01X2921540Y4306207D01*
G01X2924588Y4312303D01*
G01X2954814Y4361833D02*
G01X2954814Y4296809D01*
G01X2954814Y4330845D02*
G01X2960910Y4337195D01*
G01X2967006Y4340243D01*
G01X2976404Y4340243D01*
G01X2982500Y4337195D01*
G01X2988850Y4330845D01*
G01X2991898Y4321701D01*
G01X2991898Y4315351D01*
G01X2988850Y4306207D01*
G01X2982500Y4299857D01*
G01X2976404Y4296809D01*
G01X2967006Y4296809D01*
G01X2960910Y4299857D01*
G01X2954814Y4306207D01*
G01X3037364Y4340243D02*
G01X3031268Y4337195D01*
G01X3025172Y4330845D01*
G01X3022124Y4321701D01*
G01X3022124Y4315351D01*
G01X3025172Y4306207D01*
G01X3031268Y4299857D01*
G01X3037364Y4296809D01*
G01X3046762Y4296809D01*
G01X3052858Y4299857D01*
G01X3059208Y4306207D01*
G01X3062256Y4315351D01*
G01X3062256Y4321701D01*
G01X3059208Y4330845D01*
G01X3052858Y4337195D01*
G01X3046762Y4340243D01*
G01X3037364Y4340243D01*
G01X3107722Y4340243D02*
G01X3101626Y4337195D01*
G01X3095530Y4330845D01*
G01X3092482Y4321701D01*
G01X3092482Y4315351D01*
G01X3095530Y4306207D01*
G01X3101626Y4299857D01*
G01X3107722Y4296809D01*
G01X3117120Y4296809D01*
G01X3123216Y4299857D01*
G01X3129566Y4306207D01*
G01X3132614Y4315351D01*
G01X3132614Y4321701D01*
G01X3129566Y4330845D01*
G01X3123216Y4337195D01*
G01X3117120Y4340243D01*
G01X3107722Y4340243D01*
G01X3171984Y4361833D02*
G01X3171984Y4309255D01*
G01X3175032Y4299857D01*
G01X3181382Y4296809D01*
G01X3187478Y4296809D01*
G01X3162840Y4340243D02*
G01X3184430Y4340243D01*
G01X3220752Y4346339D02*
G01X3220752Y4349387D01*
G01X3223800Y4355737D01*
G01X3226848Y4358785D01*
G01X3232944Y4361833D01*
G01X3245390Y4361833D01*
G01X3251740Y4358785D01*
G01X3254788Y4355737D01*
G01X3257836Y4349387D01*
G01X3257836Y4343291D01*
G01X3254788Y4337195D01*
G01X3248438Y4327797D01*
G01X3217704Y4296809D01*
G01X3260884Y4296809D01*
G01X2779102Y1853740D02*
G01X2776054Y1860090D01*
G01X2769704Y1866186D01*
G01X2763608Y1869234D01*
G01X2751162Y1869234D01*
G01X2745066Y1866186D01*
G01X2738716Y1860090D01*
G01X2735668Y1853740D01*
G01X2732620Y1844596D01*
G01X2732620Y1829102D01*
G01X2735668Y1819704D01*
G01X2738716Y1813608D01*
G01X2745066Y1807258D01*
G01X2751162Y1804210D01*
G01X2763608Y1804210D01*
G01X2769704Y1807258D01*
G01X2776054Y1813608D01*
G01X2779102Y1819704D01*
G01X2846412Y1838246D02*
G01X2840062Y1844596D01*
G01X2833966Y1847644D01*
G01X2824568Y1847644D01*
G01X2818472Y1844596D01*
G01X2812376Y1838246D01*
G01X2809328Y1829102D01*
G01X2809328Y1822752D01*
G01X2812376Y1813608D01*
G01X2818472Y1807258D01*
G01X2824568Y1804210D01*
G01X2833966Y1804210D01*
G01X2840062Y1807258D01*
G01X2846412Y1813608D01*
G01X2891878Y1847644D02*
G01X2885782Y1844596D01*
G01X2879686Y1838246D01*
G01X2876638Y1829102D01*
G01X2876638Y1822752D01*
G01X2879686Y1813608D01*
G01X2885782Y1807258D01*
G01X2891878Y1804210D01*
G01X2901276Y1804210D01*
G01X2907372Y1807258D01*
G01X2913722Y1813608D01*
G01X2916770Y1822752D01*
G01X2916770Y1829102D01*
G01X2913722Y1838246D01*
G01X2907372Y1844596D01*
G01X2901276Y1847644D01*
G01X2891878Y1847644D01*
G01X2946996Y1847644D02*
G01X2946996Y1804210D01*
G01X2946996Y1835198D02*
G01X2956140Y1844596D01*
G01X2962236Y1847644D01*
G01X2971634Y1847644D01*
G01X2977730Y1844596D01*
G01X2981032Y1835198D01*
G01X2981032Y1804210D01*
G01X2981032Y1835198D02*
G01X2990176Y1844596D01*
G01X2996526Y1847644D01*
G01X3005670Y1847644D01*
G01X3011766Y1844596D01*
G01X3015068Y1835198D01*
G01X3015068Y1804210D01*
G01X3045294Y1847644D02*
G01X3045294Y1782620D01*
G01X3045294Y1838246D02*
G01X3051390Y1844596D01*
G01X3057486Y1847644D01*
G01X3066884Y1847644D01*
G01X3072980Y1844596D01*
G01X3079330Y1838246D01*
G01X3082378Y1829102D01*
G01X3082378Y1822752D01*
G01X3079330Y1813608D01*
G01X3072980Y1807258D01*
G01X3066884Y1804210D01*
G01X3057486Y1804210D01*
G01X3051390Y1807258D01*
G01X3045294Y1813608D01*
G01X3112604Y1856788D02*
G01X3118700Y1860090D01*
G01X3127844Y1869234D01*
G01X3127844Y1804210D01*
G01X2750122Y2814421D02*
G01X2747074Y2820771D01*
G01X2740724Y2826867D01*
G01X2734628Y2829915D01*
G01X2722182Y2829915D01*
G01X2716086Y2826867D01*
G01X2709736Y2820771D01*
G01X2706688Y2814421D01*
G01X2703640Y2805277D01*
G01X2703640Y2789783D01*
G01X2706688Y2780385D01*
G01X2709736Y2774289D01*
G01X2716086Y2767939D01*
G01X2722182Y2764891D01*
G01X2734628Y2764891D01*
G01X2740724Y2767939D01*
G01X2747074Y2774289D01*
G01X2750122Y2780385D01*
G01X2817432Y2798927D02*
G01X2811082Y2805277D01*
G01X2804986Y2808325D01*
G01X2795588Y2808325D01*
G01X2789492Y2805277D01*
G01X2783396Y2798927D01*
G01X2780348Y2789783D01*
G01X2780348Y2783433D01*
G01X2783396Y2774289D01*
G01X2789492Y2767939D01*
G01X2795588Y2764891D01*
G01X2804986Y2764891D01*
G01X2811082Y2767939D01*
G01X2817432Y2774289D01*
G01X2862898Y2808325D02*
G01X2856802Y2805277D01*
G01X2850706Y2798927D01*
G01X2847658Y2789783D01*
G01X2847658Y2783433D01*
G01X2850706Y2774289D01*
G01X2856802Y2767939D01*
G01X2862898Y2764891D01*
G01X2872296Y2764891D01*
G01X2878392Y2767939D01*
G01X2884742Y2774289D01*
G01X2887790Y2783433D01*
G01X2887790Y2789783D01*
G01X2884742Y2798927D01*
G01X2878392Y2805277D01*
G01X2872296Y2808325D01*
G01X2862898Y2808325D01*
G01X2918016Y2808325D02*
G01X2918016Y2764891D01*
G01X2918016Y2795879D02*
G01X2927160Y2805277D01*
G01X2933256Y2808325D01*
G01X2942654Y2808325D01*
G01X2948750Y2805277D01*
G01X2952052Y2795879D01*
G01X2952052Y2764891D01*
G01X2952052Y2795879D02*
G01X2961196Y2805277D01*
G01X2967546Y2808325D01*
G01X2976690Y2808325D01*
G01X2982786Y2805277D01*
G01X2986088Y2795879D01*
G01X2986088Y2764891D01*
G01X3016314Y2808325D02*
G01X3016314Y2743301D01*
G01X3016314Y2798927D02*
G01X3022410Y2805277D01*
G01X3028506Y2808325D01*
G01X3037904Y2808325D01*
G01X3044000Y2805277D01*
G01X3050350Y2798927D01*
G01X3053398Y2789783D01*
G01X3053398Y2783433D01*
G01X3050350Y2774289D01*
G01X3044000Y2767939D01*
G01X3037904Y2764891D01*
G01X3028506Y2764891D01*
G01X3022410Y2767939D01*
G01X3016314Y2774289D01*
G01X3086672Y2814421D02*
G01X3086672Y2817469D01*
G01X3089720Y2823819D01*
G01X3092768Y2826867D01*
G01X3098864Y2829915D01*
G01X3111310Y2829915D01*
G01X3117660Y2826867D01*
G01X3120708Y2823819D01*
G01X3123756Y2817469D01*
G01X3123756Y2811373D01*
G01X3120708Y2805277D01*
G01X3114358Y2795879D01*
G01X3083624Y2764891D01*
G01X3126804Y2764891D01*
G01X1170898Y1721260D02*
G01X1173946Y1714910D01*
G01X1180296Y1708814D01*
G01X1186392Y1705766D01*
G01X1198838Y1705766D01*
G01X1204934Y1708814D01*
G01X1211284Y1714910D01*
G01X1214332Y1721260D01*
G01X1217380Y1730404D01*
G01X1217380Y1745898D01*
G01X1214332Y1755296D01*
G01X1211284Y1761392D01*
G01X1204934Y1767742D01*
G01X1198838Y1770790D01*
G01X1186392Y1770790D01*
G01X1180296Y1767742D01*
G01X1173946Y1761392D01*
G01X1170898Y1755296D01*
G01X1140672Y1705766D02*
G01X1137624Y1708814D01*
G01X1134576Y1705766D01*
G01X1137624Y1702718D01*
G01X1140672Y1705766D01*
G01X1137624Y1727356D02*
G01X1137624Y1770790D01*
G01X1104350Y1727356D02*
G01X1104350Y1770790D01*
G01X1104350Y1739802D02*
G01X1095206Y1730404D01*
G01X1089110Y1727356D01*
G01X1079712Y1727356D01*
G01X1073616Y1730404D01*
G01X1070314Y1739802D01*
G01X1070314Y1770790D01*
G01X1040088Y1718212D02*
G01X1033992Y1714910D01*
G01X1024848Y1705766D01*
G01X1024848Y1770790D01*
G01X1145898Y971260D02*
G01X1148946Y964910D01*
G01X1155296Y958814D01*
G01X1161392Y955766D01*
G01X1173838Y955766D01*
G01X1179934Y958814D01*
G01X1186284Y964910D01*
G01X1189332Y971260D01*
G01X1192380Y980404D01*
G01X1192380Y995898D01*
G01X1189332Y1005296D01*
G01X1186284Y1011392D01*
G01X1179934Y1017742D01*
G01X1173838Y1020790D01*
G01X1161392Y1020790D01*
G01X1155296Y1017742D01*
G01X1148946Y1011392D01*
G01X1145898Y1005296D01*
G01X1115672Y955766D02*
G01X1112624Y958814D01*
G01X1109576Y955766D01*
G01X1112624Y952718D01*
G01X1115672Y955766D01*
G01X1112624Y977356D02*
G01X1112624Y1020790D01*
G01X1079350Y977356D02*
G01X1079350Y1020790D01*
G01X1079350Y989802D02*
G01X1070206Y980404D01*
G01X1064110Y977356D01*
G01X1054712Y977356D01*
G01X1048616Y980404D01*
G01X1045314Y989802D01*
G01X1045314Y1020790D01*
G01X1012040Y971260D02*
G01X1012040Y968212D01*
G01X1008992Y961862D01*
G01X1005944Y958814D01*
G01X999848Y955766D01*
G01X987402Y955766D01*
G01X981052Y958814D01*
G01X978004Y961862D01*
G01X974956Y968212D01*
G01X974956Y974308D01*
G01X978004Y980404D01*
G01X984354Y989802D01*
G01X1015088Y1020790D01*
G01X971908Y1020790D01*
G01X1529102Y878740D02*
G01X1526054Y885090D01*
G01X1519704Y891186D01*
G01X1513608Y894234D01*
G01X1501162Y894234D01*
G01X1495066Y891186D01*
G01X1488716Y885090D01*
G01X1485668Y878740D01*
G01X1482620Y869596D01*
G01X1482620Y854102D01*
G01X1485668Y844704D01*
G01X1488716Y838608D01*
G01X1495066Y832258D01*
G01X1501162Y829210D01*
G01X1513608Y829210D01*
G01X1519704Y832258D01*
G01X1526054Y838608D01*
G01X1529102Y844704D01*
G01X1559328Y894234D02*
G01X1562376Y891186D01*
G01X1565424Y894234D01*
G01X1562376Y897282D01*
G01X1559328Y894234D01*
G01X1562376Y872644D02*
G01X1562376Y829210D01*
G01X1595650Y872644D02*
G01X1595650Y829210D01*
G01X1595650Y860198D02*
G01X1604794Y869596D01*
G01X1610890Y872644D01*
G01X1620288Y872644D01*
G01X1626384Y869596D01*
G01X1629686Y860198D01*
G01X1629686Y829210D01*
G01X1659912Y872644D02*
G01X1693948Y829210D01*
G01X1693948Y872644D02*
G01X1659912Y829210D01*
G01X1724174Y881788D02*
G01X1730270Y885090D01*
G01X1739414Y894234D01*
G01X1739414Y829210D01*
G01X2104357Y400122D02*
G01X2098007Y397074D01*
G01X2091911Y390724D01*
G01X2088863Y384628D01*
G01X2088863Y372182D01*
G01X2091911Y366086D01*
G01X2098007Y359736D01*
G01X2104357Y356688D01*
G01X2113501Y353640D01*
G01X2128995Y353640D01*
G01X2138393Y356688D01*
G01X2144489Y359736D01*
G01X2150839Y366086D01*
G01X2153887Y372182D01*
G01X2153887Y384628D01*
G01X2150839Y390724D01*
G01X2144489Y397074D01*
G01X2138393Y400122D01*
G01X2110453Y445588D02*
G01X2113501Y439492D01*
G01X2119851Y433396D01*
G01X2128995Y430348D01*
G01X2135345Y430348D01*
G01X2144489Y433396D01*
G01X2150839Y439492D01*
G01X2153887Y445588D01*
G01X2153887Y454986D01*
G01X2150839Y461082D01*
G01X2144489Y467432D01*
G01X2135345Y470480D01*
G01X2128995Y470480D01*
G01X2119851Y467432D01*
G01X2113501Y461082D01*
G01X2110453Y454986D01*
G01X2110453Y445588D01*
G01X2110453Y500706D02*
G01X2141441Y500706D01*
G01X2150839Y503754D01*
G01X2153887Y509850D01*
G01X2153887Y519248D01*
G01X2150839Y525344D01*
G01X2141441Y534742D01*
G01X2110453Y534742D02*
G01X2153887Y534742D01*
G01X2088863Y574112D02*
G01X2141441Y574112D01*
G01X2150839Y577160D01*
G01X2153887Y583510D01*
G01X2153887Y589606D01*
G01X2110453Y564968D02*
G01X2110453Y586558D01*
G01X2110453Y619832D02*
G01X2153887Y653868D01*
G01X2110453Y653868D02*
G01X2153887Y619832D01*
G01X2101309Y684094D02*
G01X2098007Y690190D01*
G01X2088863Y699334D01*
G01X2153887Y699334D01*
G01X1787316Y400122D02*
G01X1780966Y397074D01*
G01X1774870Y390724D01*
G01X1771822Y384628D01*
G01X1771822Y372182D01*
G01X1774870Y366086D01*
G01X1780966Y359736D01*
G01X1787316Y356688D01*
G01X1796460Y353640D01*
G01X1811954Y353640D01*
G01X1821352Y356688D01*
G01X1827448Y359736D01*
G01X1833798Y366086D01*
G01X1836846Y372182D01*
G01X1836846Y384628D01*
G01X1833798Y390724D01*
G01X1827448Y397074D01*
G01X1821352Y400122D01*
G01X1793412Y445588D02*
G01X1796460Y439492D01*
G01X1802810Y433396D01*
G01X1811954Y430348D01*
G01X1818304Y430348D01*
G01X1827448Y433396D01*
G01X1833798Y439492D01*
G01X1836846Y445588D01*
G01X1836846Y454986D01*
G01X1833798Y461082D01*
G01X1827448Y467432D01*
G01X1818304Y470480D01*
G01X1811954Y470480D01*
G01X1802810Y467432D01*
G01X1796460Y461082D01*
G01X1793412Y454986D01*
G01X1793412Y445588D01*
G01X1793412Y500706D02*
G01X1824400Y500706D01*
G01X1833798Y503754D01*
G01X1836846Y509850D01*
G01X1836846Y519248D01*
G01X1833798Y525344D01*
G01X1824400Y534742D01*
G01X1793412Y534742D02*
G01X1836846Y534742D01*
G01X1771822Y574112D02*
G01X1824400Y574112D01*
G01X1833798Y577160D01*
G01X1836846Y583510D01*
G01X1836846Y589606D01*
G01X1793412Y564968D02*
G01X1793412Y586558D01*
G01X1793412Y619832D02*
G01X1836846Y653868D01*
G01X1793412Y653868D02*
G01X1836846Y619832D01*
G01X1787316Y687142D02*
G01X1784268Y687142D01*
G01X1777918Y690190D01*
G01X1774870Y693238D01*
G01X1771822Y699334D01*
G01X1771822Y711780D01*
G01X1774870Y718130D01*
G01X1777918Y721178D01*
G01X1784268Y724226D01*
G01X1790364Y724226D01*
G01X1796460Y721178D01*
G01X1805858Y714828D01*
G01X1836846Y684094D01*
G01X1836846Y727274D01*
G01X2785580Y400122D02*
G01X2779230Y397074D01*
G01X2773134Y390724D01*
G01X2770086Y384628D01*
G01X2770086Y372182D01*
G01X2773134Y366086D01*
G01X2779230Y359736D01*
G01X2785580Y356688D01*
G01X2794724Y353640D01*
G01X2810218Y353640D01*
G01X2819616Y356688D01*
G01X2825712Y359736D01*
G01X2832062Y366086D01*
G01X2835110Y372182D01*
G01X2835110Y384628D01*
G01X2832062Y390724D01*
G01X2825712Y397074D01*
G01X2819616Y400122D01*
G01X2791676Y445588D02*
G01X2794724Y439492D01*
G01X2801074Y433396D01*
G01X2810218Y430348D01*
G01X2816568Y430348D01*
G01X2825712Y433396D01*
G01X2832062Y439492D01*
G01X2835110Y445588D01*
G01X2835110Y454986D01*
G01X2832062Y461082D01*
G01X2825712Y467432D01*
G01X2816568Y470480D01*
G01X2810218Y470480D01*
G01X2801074Y467432D01*
G01X2794724Y461082D01*
G01X2791676Y454986D01*
G01X2791676Y445588D01*
G01X2791676Y500706D02*
G01X2822664Y500706D01*
G01X2832062Y503754D01*
G01X2835110Y509850D01*
G01X2835110Y519248D01*
G01X2832062Y525344D01*
G01X2822664Y534742D01*
G01X2791676Y534742D02*
G01X2835110Y534742D01*
G01X2770086Y574112D02*
G01X2822664Y574112D01*
G01X2832062Y577160D01*
G01X2835110Y583510D01*
G01X2835110Y589606D01*
G01X2791676Y564968D02*
G01X2791676Y586558D01*
G01X2791676Y619832D02*
G01X2835110Y653868D01*
G01X2791676Y653868D02*
G01X2835110Y619832D01*
G01X2770086Y690190D02*
G01X2770086Y724226D01*
G01X2794724Y705684D01*
G01X2794724Y714828D01*
G01X2797772Y721178D01*
G01X2801074Y724226D01*
G01X2810218Y727274D01*
G01X2816568Y727274D01*
G01X2825712Y724226D01*
G01X2832062Y718130D01*
G01X2835110Y708732D01*
G01X2835110Y699334D01*
G01X2832062Y690190D01*
G01X2828760Y687142D01*
G01X2822664Y684094D01*
G01X1792380Y1880766D02*
G01X1792380Y1945790D01*
G01X1792380Y1880766D02*
G01X1764440Y1880766D01*
G01X1755296Y1883814D01*
G01X1752248Y1886862D01*
G01X1748946Y1893212D01*
G01X1748946Y1899308D01*
G01X1752248Y1905404D01*
G01X1755296Y1908452D01*
G01X1764440Y1911754D01*
G01X1792380Y1911754D01*
G01X1770790Y1911754D02*
G01X1748946Y1945790D01*
G01X1718720Y1920898D02*
G01X1681636Y1920898D01*
G01X1681636Y1914802D01*
G01X1684684Y1908452D01*
G01X1687986Y1905404D01*
G01X1694082Y1902356D01*
G01X1703480Y1902356D01*
G01X1709576Y1905404D01*
G01X1715672Y1911754D01*
G01X1718720Y1920898D01*
G01X1718720Y1927248D01*
G01X1715672Y1936392D01*
G01X1709576Y1942742D01*
G01X1703480Y1945790D01*
G01X1694082Y1945790D01*
G01X1687986Y1942742D01*
G01X1681636Y1936392D01*
G01X1651410Y1902356D02*
G01X1651410Y1945790D01*
G01X1651410Y1914802D02*
G01X1642266Y1905404D01*
G01X1636170Y1902356D01*
G01X1626772Y1902356D01*
G01X1620676Y1905404D01*
G01X1617374Y1914802D01*
G01X1617374Y1945790D01*
G01X1578004Y1880766D02*
G01X1578004Y1933344D01*
G01X1574956Y1942742D01*
G01X1568606Y1945790D01*
G01X1562510Y1945790D01*
G01X1587148Y1902356D02*
G01X1565558Y1902356D01*
G01X2555766Y1807620D02*
G01X2620790Y1807620D01*
G01X2555766Y1807620D02*
G01X2555766Y1835560D01*
G01X2558814Y1844704D01*
G01X2561862Y1847752D01*
G01X2568212Y1851054D01*
G01X2574308Y1851054D01*
G01X2580404Y1847752D01*
G01X2583452Y1844704D01*
G01X2586754Y1835560D01*
G01X2586754Y1807620D01*
G01X2586754Y1829210D02*
G01X2620790Y1851054D01*
G01X2555766Y1905918D02*
G01X2555766Y1899822D01*
G01X2558814Y1893472D01*
G01X2568212Y1890424D01*
G01X2620790Y1890424D01*
G01X2577356Y1881280D02*
G01X2577356Y1902870D01*
G01X2555766Y1936144D02*
G01X2620790Y1936144D01*
G01X2586754Y1936144D02*
G01X2580404Y1942240D01*
G01X2577356Y1948336D01*
G01X2577356Y1957734D01*
G01X2580404Y1963830D01*
G01X2586754Y1970180D01*
G01X2595898Y1973228D01*
G01X2602248Y1973228D01*
G01X2611392Y1970180D01*
G01X2617742Y1963830D01*
G01X2620790Y1957734D01*
G01X2620790Y1948336D01*
G01X2617742Y1942240D01*
G01X2611392Y1936144D01*
G01X2555766Y2003454D02*
G01X2620790Y2003454D01*
G01X2586754Y2003454D02*
G01X2580404Y2009550D01*
G01X2577356Y2015646D01*
G01X2577356Y2025044D01*
G01X2580404Y2031140D01*
G01X2586754Y2037490D01*
G01X2595898Y2040538D01*
G01X2602248Y2040538D01*
G01X2611392Y2037490D01*
G01X2617742Y2031140D01*
G01X2620790Y2025044D01*
G01X2620790Y2015646D01*
G01X2617742Y2009550D01*
G01X2611392Y2003454D01*
G01X1994234Y2217380D02*
G01X1929210Y2217380D01*
G01X1994234Y2217380D02*
G01X1994234Y2189440D01*
G01X1991186Y2180296D01*
G01X1988138Y2177248D01*
G01X1981788Y2173946D01*
G01X1975692Y2173946D01*
G01X1969596Y2177248D01*
G01X1966548Y2180296D01*
G01X1963246Y2189440D01*
G01X1963246Y2217380D01*
G01X1963246Y2195790D02*
G01X1929210Y2173946D01*
G01X1994234Y2119082D02*
G01X1994234Y2125178D01*
G01X1991186Y2131528D01*
G01X1981788Y2134576D01*
G01X1929210Y2134576D01*
G01X1972644Y2143720D02*
G01X1972644Y2122130D01*
G01X1994234Y2088856D02*
G01X1929210Y2088856D01*
G01X1963246Y2088856D02*
G01X1969596Y2082760D01*
G01X1972644Y2076664D01*
G01X1972644Y2067266D01*
G01X1969596Y2061170D01*
G01X1963246Y2054820D01*
G01X1954102Y2051772D01*
G01X1947752Y2051772D01*
G01X1938608Y2054820D01*
G01X1932258Y2061170D01*
G01X1929210Y2067266D01*
G01X1929210Y2076664D01*
G01X1932258Y2082760D01*
G01X1938608Y2088856D01*
G01X1994234Y2012402D02*
G01X1941656Y2012402D01*
G01X1932258Y2009354D01*
G01X1929210Y2003004D01*
G01X1929210Y1996908D01*
G01X1972644Y2021546D02*
G01X1972644Y1999956D01*
G01X2142380Y805766D02*
G01X2142380Y870790D01*
G01X2142380Y805766D02*
G01X2114440Y805766D01*
G01X2105296Y808814D01*
G01X2102248Y811862D01*
G01X2098946Y818212D01*
G01X2098946Y824308D01*
G01X2102248Y830404D01*
G01X2105296Y833452D01*
G01X2114440Y836754D01*
G01X2142380Y836754D01*
G01X2120790Y836754D02*
G01X2098946Y870790D01*
G01X2068720Y805766D02*
G01X2068720Y870790D01*
G01X2068720Y805766D02*
G01X2041034Y805766D01*
G01X2031636Y808814D01*
G01X2028588Y811862D01*
G01X2025540Y818212D01*
G01X2025540Y827356D01*
G01X2028588Y833452D01*
G01X2031636Y836754D01*
G01X2041034Y839802D01*
G01X2068720Y839802D01*
G01X1995314Y845898D02*
G01X1958230Y845898D01*
G01X1958230Y839802D01*
G01X1961278Y833452D01*
G01X1964580Y830404D01*
G01X1970676Y827356D01*
G01X1980074Y827356D01*
G01X1986170Y830404D01*
G01X1992266Y836754D01*
G01X1995314Y845898D01*
G01X1995314Y852248D01*
G01X1992266Y861392D01*
G01X1986170Y867742D01*
G01X1980074Y870790D01*
G01X1970676Y870790D01*
G01X1964580Y867742D01*
G01X1958230Y861392D01*
G01X1928004Y827356D02*
G01X1928004Y870790D01*
G01X1928004Y839802D02*
G01X1918860Y830404D01*
G01X1912764Y827356D01*
G01X1903366Y827356D01*
G01X1897270Y830404D01*
G01X1893968Y839802D01*
G01X1893968Y870790D01*
G01X1863742Y805766D02*
G01X1863742Y870790D01*
G01X1863742Y836754D02*
G01X1857646Y830404D01*
G01X1851550Y827356D01*
G01X1842152Y827356D01*
G01X1836056Y830404D01*
G01X1829706Y836754D01*
G01X1826658Y845898D01*
G01X1826658Y852248D01*
G01X1829706Y861392D01*
G01X1836056Y867742D01*
G01X1842152Y870790D01*
G01X1851550Y870790D01*
G01X1857646Y867742D01*
G01X1863742Y861392D01*
G01X2607620Y1719234D02*
G01X2607620Y1654210D01*
G01X2607620Y1719234D02*
G01X2635560Y1719234D01*
G01X2644704Y1716186D01*
G01X2647752Y1713138D01*
G01X2651054Y1706788D01*
G01X2651054Y1700692D01*
G01X2647752Y1694596D01*
G01X2644704Y1691548D01*
G01X2635560Y1688246D01*
G01X2607620Y1688246D01*
G01X2629210Y1688246D02*
G01X2651054Y1654210D01*
G01X2681280Y1719234D02*
G01X2681280Y1654210D01*
G01X2681280Y1719234D02*
G01X2708966Y1719234D01*
G01X2718364Y1716186D01*
G01X2721412Y1713138D01*
G01X2724460Y1706788D01*
G01X2724460Y1697644D01*
G01X2721412Y1691548D01*
G01X2718364Y1688246D01*
G01X2708966Y1685198D01*
G01X2681280Y1685198D01*
G01X2773228Y1719234D02*
G01X2766878Y1716186D01*
G01X2760782Y1710090D01*
G01X2757734Y1703740D01*
G01X2754686Y1694596D01*
G01X2754686Y1679102D01*
G01X2757734Y1669704D01*
G01X2760782Y1663608D01*
G01X2766878Y1657258D01*
G01X2773228Y1654210D01*
G01X2785420Y1654210D01*
G01X2791770Y1657258D01*
G01X2797866Y1663608D01*
G01X2800914Y1669704D01*
G01X2804216Y1679102D01*
G01X2804216Y1694596D01*
G01X2800914Y1703740D01*
G01X2797866Y1710090D01*
G01X2791770Y1716186D01*
G01X2785420Y1719234D01*
G01X2773228Y1719234D01*
G04 Text End*

G04 PolygonModel Start*
G01X1406120Y640360D02*
G01X1265119Y640360D01*
G01X1265119Y459639D02*
G01X1406120Y459639D01*
G01X1421360Y474879D02*
G01X1421360Y625120D01*
G01X1043880Y640360D02*
G01X1184881Y640360D01*
G01X1184881Y459639D02*
G01X1043880Y459639D01*
G01X1028640Y474879D02*
G01X1028640Y625120D01*
G01X1406120Y459639D02*
G03X1421360Y474879I0J15240D01*
G01X1421360Y625120D02*
G03X1406120Y640360I-15240J0D01*
G01X1043880Y459639D02*
G02X1028640Y474879I0J15240D01*
G01X1028640Y625120D02*
G02X1043880Y640360I15240J0D01*
G01X4185562Y2101074D02*
G01X4187566Y1837434D01*
G01X4187566Y1837434D02*
G01X3651880Y1837434D01*
G01X3651880Y1837434D02*
G01X3512434Y1976880D01*
G01X3512434Y1976880D02*
G01X3513770Y2106420D01*
G01X4186949Y2245770D02*
G01X4187617Y2512617D01*
G01X4187617Y2512617D02*
G01X3651997Y2512617D01*
G01X3651997Y2512617D02*
G01X3512383Y2373003D01*
G01X3512383Y2373003D02*
G01X3512383Y2243580D01*
G36*
G01X3569500Y2089199D02*
G01X3569500Y1957200D01*
G01X3589300Y1957200D01*
G01X3589300Y2089199D01*
G01X3569500Y2089199D01*
G37*
G36*
G01X3539800Y2033101D02*
G01X3539800Y2013301D01*
G01X3619000Y2013301D01*
G01X3619000Y2033101D01*
G01X3539800Y2033101D01*
G37*
G36*
G01X4160200Y2033101D02*
G01X4160200Y2013301D01*
G01X4081000Y2013301D01*
G01X4081000Y2033101D01*
G01X4160200Y2033101D01*
G37*
G01X4185562Y1276073D02*
G01X4187566Y1012434D01*
G01X4187566Y1012434D02*
G01X3651880Y1012434D01*
G01X3651880Y1012434D02*
G01X3512434Y1151880D01*
G01X3512434Y1151880D02*
G01X3513770Y1281420D01*
G01X4186949Y1420770D02*
G01X4187617Y1687617D01*
G01X4187617Y1687617D02*
G01X3651997Y1687617D01*
G01X3651997Y1687617D02*
G01X3512383Y1548003D01*
G01X3512383Y1548003D02*
G01X3512383Y1418580D01*
G36*
G01X3569500Y1264199D02*
G01X3569500Y1132200D01*
G01X3589300Y1132200D01*
G01X3589300Y1264199D01*
G01X3569500Y1264199D01*
G37*
G36*
G01X3539800Y1208100D02*
G01X3539800Y1188301D01*
G01X3619000Y1188301D01*
G01X3619000Y1208100D01*
G01X3539800Y1208100D01*
G37*
G36*
G01X4160200Y1208100D02*
G01X4160200Y1188301D01*
G01X4081000Y1188301D01*
G01X4081000Y1208100D01*
G01X4160200Y1208100D01*
G37*
G01X2561707Y731120D02*
G01X2561707Y590119D01*
G01X2742428Y590119D02*
G01X2742428Y731120D01*
G01X2727188Y746360D02*
G01X2576947Y746360D01*
G01X2561707Y368880D02*
G01X2561707Y509881D01*
G01X2742428Y509881D02*
G01X2742428Y368880D01*
G01X2727188Y353640D02*
G01X2576947Y353640D01*
G01X2742428Y731120D02*
G03X2727188Y746360I-15240J0D01*
G01X2576947Y746360D02*
G03X2561707Y731120I0J-15240D01*
G01X2742428Y368880D02*
G02X2727188Y353640I-15240J0D01*
G01X2576947Y353640D02*
G02X2561707Y368880I0J15240D01*
G54D12*
G01X-18098Y3510165D02*
G01X-18098Y2610167D01*
G01X1189999Y3285954D02*
G01X1189999Y3510165D01*
G01X1071242Y2610167D02*
G01X1189999Y2610167D01*
G01X1189999Y2610167D02*
G01X1189999Y2834378D01*
G01X1189999Y3510165D02*
G01X-209998Y3510165D01*
G01X-209998Y3510165D02*
G01X-209998Y2610167D01*
G01X-209998Y2610167D02*
G01X628708Y2610167D01*
G01X4493098Y2614835D02*
G01X4493098Y3514833D01*
G01X3285001Y2839046D02*
G01X3285001Y2614835D01*
G01X3403758Y3514833D02*
G01X3285001Y3514833D01*
G01X3285001Y3514833D02*
G01X3285001Y3290622D01*
G01X3285001Y2614835D02*
G01X4684998Y2614835D01*
G01X4684998Y2614835D02*
G01X4684998Y3514833D01*
G01X4684998Y3514833D02*
G01X3846293Y3514833D01*
G01X1909800Y4275200D02*
G01X2570200Y4275200D01*
G01X2570200Y4275200D02*
G01X2570200Y3614800D01*
G01X2570200Y3614800D02*
G01X1909800Y3614800D01*
G01X1909800Y3614800D02*
G01X1909800Y4275200D01*
G54D13*
G01X2484513Y2792380D02*
G01X2507620Y2792380D01*
G01X1992381Y2792380D02*
G01X2015487Y2792380D01*
G01X2484513Y3107620D02*
G01X2507620Y3107620D01*
G01X1992381Y3107620D02*
G01X2015487Y3107620D01*
G54D11*
G01X1992381Y3107620D02*
G01X1992381Y3054239D01*
G01X2507620Y3107620D02*
G01X2507620Y3054239D01*
G01X2507620Y2792380D02*
G01X2507620Y2845761D01*
G01X1992381Y2792380D02*
G01X1992381Y2845761D01*
G01X3095748Y3773117D02*
G01X3095748Y3632116D01*
G01X3276469Y3632116D02*
G01X3276469Y3773117D01*
G01X3261229Y3788357D02*
G01X3110988Y3788357D01*
G01X3095748Y3410877D02*
G01X3095748Y3551878D01*
G01X3276469Y3551878D02*
G01X3276469Y3410877D01*
G01X3261229Y3395637D02*
G01X3110988Y3395637D01*
G01X3276469Y3773117D02*
G03X3261229Y3788357I-15240J0D01*
G01X3110988Y3788357D02*
G03X3095748Y3773117I0J-15240D01*
G01X3276469Y3410877D02*
G02X3261229Y3395637I-15240J0D01*
G01X3110988Y3395637D02*
G02X3095748Y3410877I0J15240D01*
G01X1615531Y2788275D02*
G01X1615531Y2916769D01*
G01X1615531Y2916769D02*
G01X1432112Y2916769D01*
G01X1432112Y2916769D02*
G01X1432112Y2788275D01*
G01X1615531Y2693035D02*
G01X1615531Y2564542D01*
G01X1615531Y2564542D02*
G01X1432112Y2564542D01*
G01X1432112Y2564542D02*
G01X1432112Y2693035D01*
G01X2696727Y2253789D02*
G01X2696727Y2125296D01*
G01X2696727Y2125296D02*
G01X2880145Y2125296D01*
G01X2880145Y2125296D02*
G01X2880145Y2253789D01*
G01X2696727Y2349029D02*
G01X2696727Y2477523D01*
G01X2696727Y2477523D02*
G01X2880145Y2477523D01*
G01X2880145Y2477523D02*
G01X2880145Y2349029D01*
G01X1593589Y3075287D02*
G01X1722083Y3075287D01*
G01X1722083Y3075287D02*
G01X1722083Y3258706D01*
G01X1722083Y3258706D02*
G01X1593589Y3258706D01*
G01X1498349Y3075287D02*
G01X1369856Y3075287D01*
G01X1369856Y3075287D02*
G01X1369856Y3258706D01*
G01X1369856Y3258706D02*
G01X1498349Y3258706D01*
G01X1726122Y2208359D02*
G01X1854616Y2208359D01*
G01X1854616Y2208359D02*
G01X1854616Y2391777D01*
G01X1854616Y2391777D02*
G01X1726122Y2391777D01*
G01X1630882Y2208359D02*
G01X1502389Y2208359D01*
G01X1502389Y2208359D02*
G01X1502389Y2391777D01*
G01X1502389Y2391777D02*
G01X1630882Y2391777D01*
G01X1193129Y4066558D02*
G01X1334129Y4066558D01*
G01X1334129Y4247279D02*
G01X1193129Y4247279D01*
G01X1177889Y4232039D02*
G01X1177889Y4081798D01*
G01X1555368Y4066558D02*
G01X1414368Y4066558D01*
G01X1414368Y4247279D02*
G01X1555368Y4247279D01*
G01X1570608Y4232039D02*
G01X1570608Y4081798D01*
G01X1193129Y4247279D02*
G03X1177889Y4232039I0J-15240D01*
G01X1177889Y4081798D02*
G03X1193129Y4066558I15240J0D01*
G01X1555368Y4247279D02*
G02X1570608Y4232039I0J-15240D01*
G01X1570608Y4081798D02*
G02X1555368Y4066558I-15240J0D01*
G01X3255585Y4247279D02*
G01X3114585Y4247279D01*
G01X3114585Y4066558D02*
G01X3255585Y4066558D01*
G01X3270825Y4081798D02*
G01X3270825Y4232039D01*
G01X2893346Y4247279D02*
G01X3034346Y4247279D01*
G01X3034346Y4066558D02*
G01X2893346Y4066558D01*
G01X2878106Y4081798D02*
G01X2878106Y4232039D01*
G01X3255585Y4066558D02*
G03X3270825Y4081798I0J15240D01*
G01X3270825Y4232039D02*
G03X3255585Y4247279I-15240J0D01*
G01X2893346Y4066558D02*
G02X2878106Y4081798I0J15240D01*
G01X2878106Y4232039D02*
G02X2893346Y4247279I15240J0D01*
G54D12*
G01X2835077Y1902270D02*
G01X2755080Y1902270D01*
G01X2891122Y1902224D02*
G01X2971120Y1902224D01*
G01X2835077Y2044238D02*
G01X2755080Y2044238D01*
G01X2891122Y2044189D02*
G01X2971120Y2044189D01*
G01X2724105Y1933252D02*
G01X2724105Y2013257D01*
G01X3002098Y2013204D02*
G01X3002098Y1933202D01*
G01X2971115Y2044189D02*
G02X3002098Y2013204I0J-30983D01*
G01X3002098Y1933207D02*
G02X2971115Y1902224I-30983J0D01*
G01X2755085Y1902270D02*
G02X2724105Y1933252I3J30983D01*
G01X2724105Y2013250D02*
G02X2755085Y2044238I30983J5D01*
G54D11*
G01X3081120Y2715361D02*
G01X2940119Y2715361D01*
G01X2940119Y2534640D02*
G01X3081120Y2534640D01*
G01X3096360Y2549880D02*
G01X3096360Y2700121D01*
G01X2718880Y2715361D02*
G01X2859881Y2715361D01*
G01X2859881Y2534640D02*
G01X2718880Y2534640D01*
G01X2703640Y2549880D02*
G01X2703640Y2700121D01*
G01X3081120Y2534640D02*
G03X3096360Y2549880I0J15240D01*
G01X3096360Y2700121D02*
G03X3081120Y2715361I-15240J0D01*
G01X2718880Y2534640D02*
G02X2703640Y2549880I0J15240D01*
G01X2703640Y2700121D02*
G02X2718880Y2715361I15240J0D01*
G01X389438Y2173927D02*
G01X387434Y2437566D01*
G01X387434Y2437566D02*
G01X923120Y2437566D01*
G01X923120Y2437566D02*
G01X1062566Y2298120D01*
G01X1062566Y2298120D02*
G01X1061230Y2168580D01*
G01X388051Y2029231D02*
G01X387383Y1762383D01*
G01X387383Y1762383D02*
G01X923003Y1762383D01*
G01X923003Y1762383D02*
G01X1062617Y1901997D01*
G01X1062617Y1901997D02*
G01X1062617Y2031420D01*
G36*
G01X1005500Y2185801D02*
G01X1005500Y2317800D01*
G01X985701Y2317800D01*
G01X985701Y2185801D01*
G01X1005500Y2185801D01*
G37*
G36*
G01X1035200Y2241900D02*
G01X1035200Y2261699D01*
G01X956000Y2261699D01*
G01X956000Y2241900D01*
G01X1035200Y2241900D01*
G37*
G36*
G01X414800Y2241900D02*
G01X414800Y2261699D01*
G01X494000Y2261699D01*
G01X494000Y2241900D01*
G01X414800Y2241900D01*
G37*
G01X389438Y1423927D02*
G01X387434Y1687566D01*
G01X387434Y1687566D02*
G01X923120Y1687566D01*
G01X923120Y1687566D02*
G01X1062566Y1548120D01*
G01X1062566Y1548120D02*
G01X1061230Y1418580D01*
G01X388051Y1279231D02*
G01X387383Y1012383D01*
G01X387383Y1012383D02*
G01X923003Y1012383D01*
G01X923003Y1012383D02*
G01X1062617Y1151997D01*
G01X1062617Y1151997D02*
G01X1062617Y1281420D01*
G36*
G01X1005500Y1435801D02*
G01X1005500Y1567800D01*
G01X985701Y1567800D01*
G01X985701Y1435801D01*
G01X1005500Y1435801D01*
G37*
G36*
G01X1035200Y1491900D02*
G01X1035200Y1511699D01*
G01X956000Y1511699D01*
G01X956000Y1491900D01*
G01X1035200Y1491900D01*
G37*
G36*
G01X414800Y1491900D02*
G01X414800Y1511699D01*
G01X494000Y1511699D01*
G01X494000Y1491900D01*
G01X414800Y1491900D01*
G37*
G01X1407408Y949676D02*
G01X1266407Y949676D01*
G01X1266407Y768955D02*
G01X1407408Y768955D01*
G01X1422648Y784195D02*
G01X1422648Y934436D01*
G01X1045168Y949676D02*
G01X1186169Y949676D01*
G01X1186169Y768955D02*
G01X1045168Y768955D01*
G01X1029928Y784195D02*
G01X1029928Y934436D01*
G01X1407408Y768955D02*
G03X1422648Y784195I0J15240D01*
G01X1422648Y934436D02*
G03X1407408Y949676I-15240J0D01*
G01X1045168Y768955D02*
G02X1029928Y784195I0J15240D01*
G01X1029928Y934436D02*
G02X1045168Y949676I15240J0D01*
G01X2203417Y731120D02*
G01X2203417Y590119D01*
G01X2384138Y590119D02*
G01X2384138Y731120D01*
G01X2368898Y746360D02*
G01X2218657Y746360D01*
G01X2203417Y368880D02*
G01X2203417Y509881D01*
G01X2384138Y509881D02*
G01X2384138Y368880D01*
G01X2368898Y353640D02*
G01X2218657Y353640D01*
G01X2384138Y731120D02*
G03X2368898Y746360I-15240J0D01*
G01X2218657Y746360D02*
G03X2203417Y731120I0J-15240D01*
G01X2384138Y368880D02*
G02X2368898Y353640I-15240J0D01*
G01X2218657Y353640D02*
G02X2203417Y368880I0J15240D01*
G01X1886376Y731120D02*
G01X1886376Y590119D01*
G01X2067097Y590119D02*
G01X2067097Y731120D01*
G01X2051857Y746360D02*
G01X1901616Y746360D01*
G01X1886376Y368880D02*
G01X1886376Y509881D01*
G01X2067097Y509881D02*
G01X2067097Y368880D01*
G01X2051857Y353640D02*
G01X1901616Y353640D01*
G01X2067097Y731120D02*
G03X2051857Y746360I-15240J0D01*
G01X1901616Y746360D02*
G03X1886376Y731120I0J-15240D01*
G01X2067097Y368880D02*
G02X2051857Y353640I-15240J0D01*
G01X1901616Y353640D02*
G02X1886376Y368880I0J15240D01*
G01X2884640Y731120D02*
G01X2884640Y590119D01*
G01X3065361Y590119D02*
G01X3065361Y731120D01*
G01X3050121Y746360D02*
G01X2899880Y746360D01*
G01X2884640Y368880D02*
G01X2884640Y509881D01*
G01X3065361Y509881D02*
G01X3065361Y368880D01*
G01X3050121Y353640D02*
G01X2899880Y353640D01*
G01X3065361Y731120D02*
G03X3050121Y746360I-15240J0D01*
G01X2899880Y746360D02*
G03X2884640Y731120I0J-15240D01*
G01X3065361Y368880D02*
G02X3050121Y353640I-15240J0D01*
G01X2899880Y353640D02*
G02X2884640Y368880I0J15240D01*
G01X1681736Y1854681D02*
G01X1585848Y1854681D01*
G01X1585848Y1854681D02*
G01X1585848Y1722560D01*
G01X1585848Y1722560D02*
G01X1681736Y1722560D01*
G01X1766978Y1854681D02*
G01X1862866Y1854681D01*
G01X1862866Y1854681D02*
G01X1862866Y1722560D01*
G01X1862866Y1722560D02*
G01X1766978Y1722560D01*
G01X2525911Y2100641D02*
G01X2525911Y2229134D01*
G01X2525911Y2229134D02*
G01X2342493Y2229134D01*
G01X2342493Y2229134D02*
G01X2342493Y2100641D01*
G01X2525911Y2005401D02*
G01X2525911Y1876908D01*
G01X2525911Y1876908D02*
G01X2342493Y1876908D01*
G01X2342493Y1876908D02*
G01X2342493Y2005401D01*
G01X2042493Y2004059D02*
G01X2042493Y1875566D01*
G01X2042493Y1875566D02*
G01X2225911Y1875566D01*
G01X2225911Y1875566D02*
G01X2225911Y2004059D01*
G01X2042493Y2099299D02*
G01X2042493Y2227793D01*
G01X2042493Y2227793D02*
G01X2225911Y2227793D01*
G01X2225911Y2227793D02*
G01X2225911Y2099299D01*
G54D12*
G01X1725400Y1630600D02*
G01X2131800Y1630600D01*
G01X2131800Y1630600D02*
G01X2182600Y1630600D01*
G01X2182600Y1630600D02*
G01X2182600Y1579800D01*
G01X2182600Y1579800D02*
G01X2131800Y1579800D01*
G01X2131800Y1579800D02*
G01X2131800Y1478200D01*
G01X2131800Y1478200D02*
G01X2182600Y1478200D01*
G01X2182600Y1478200D02*
G01X2182600Y1325800D01*
G01X2182600Y1325800D02*
G01X2131800Y1325800D01*
G01X2131800Y1325800D02*
G01X2131800Y1224200D01*
G01X2131800Y1224200D02*
G01X2182600Y1224200D01*
G01X2182600Y1224200D02*
G01X2182600Y1071800D01*
G01X2182600Y1071800D02*
G01X2131800Y1071800D01*
G01X2131800Y1071800D02*
G01X2131800Y970200D01*
G01X2131800Y970200D02*
G01X2182600Y970200D01*
G01X2182600Y970200D02*
G01X2182600Y919400D01*
G01X2182600Y919400D02*
G01X2131800Y919400D01*
G01X2131800Y919400D02*
G01X1776200Y919400D01*
G01X1776200Y919400D02*
G01X1471400Y919400D01*
G01X1471400Y919400D02*
G01X1471400Y1630600D01*
G01X1471400Y1630600D02*
G01X1776200Y1630600D01*
G01X1827000Y1376600D02*
G01X1827000Y1173400D01*
G01X1928600Y1275000D02*
G01X1725400Y1275000D01*
G01X1629383Y1004874D02*
G03X1644622Y1005001I7619J127D01*
G03X1629383Y1005128I-7620J0D01*
G01X1713462Y1275000D02*
G03X1940643Y1276016I113588J1016D01*
G03X1713462Y1277032I-113592J0D01*
G01X2799600Y919400D02*
G01X2393200Y919400D01*
G01X2393200Y919400D02*
G01X2342400Y919400D01*
G01X2342400Y919400D02*
G01X2342400Y970200D01*
G01X2342400Y970200D02*
G01X2393200Y970200D01*
G01X2393200Y970200D02*
G01X2393200Y1071800D01*
G01X2393200Y1071800D02*
G01X2342400Y1071800D01*
G01X2342400Y1071800D02*
G01X2342400Y1224200D01*
G01X2342400Y1224200D02*
G01X2393200Y1224200D01*
G01X2393200Y1224200D02*
G01X2393200Y1325800D01*
G01X2393200Y1325800D02*
G01X2342400Y1325800D01*
G01X2342400Y1325800D02*
G01X2342400Y1478200D01*
G01X2342400Y1478200D02*
G01X2393200Y1478200D01*
G01X2393200Y1478200D02*
G01X2393200Y1579800D01*
G01X2393200Y1579800D02*
G01X2342400Y1579800D01*
G01X2342400Y1579800D02*
G01X2342400Y1630600D01*
G01X2342400Y1630600D02*
G01X2393200Y1630600D01*
G01X2393200Y1630600D02*
G01X2748800Y1630600D01*
G01X2748800Y1630600D02*
G01X3053600Y1630600D01*
G01X3053600Y1630600D02*
G01X3053600Y919400D01*
G01X3053600Y919400D02*
G01X2748800Y919400D01*
G01X2698000Y1173400D02*
G01X2698000Y1376600D01*
G01X2596400Y1275000D02*
G01X2799600Y1275000D01*
G01X2895617Y1545126D02*
G03X2880378Y1544999I-7619J-127D01*
G03X2895617Y1544872I7620J0D01*
G01X2811538Y1275000D02*
G03X2584358Y1273984I-113588J-1016D01*
G03X2811538Y1272968I113592J0D01*

G04 Circle Start*
G54D14*
G01X1940915Y3025006D02*
G03X1960915Y3025006I10000J0D01*
G03X1940915Y3025006I-10000J0D01*
G04 Circle End*

M02*

