G04 Layer: TopPasteMaskLayer*
G04 EasyEDA Pro v2.2.43.2, 2025-10-20 22:01:10*
G04 Gerber Generator version 0.3*
G04 Scale: 100 percent, Rotated: No, Reflected: No*
G04 Dimensions in millimeters*
G04 Leading zeros omitted, absolute positions, 4 integers and 5 decimals*
G04 Generated by one-click*
%FSLAX45Y45*%
%MOMM*%
%ADD10R,3.49999X1.2*%
%ADD11R,1.4X5.49999*%
%ADD12R,0.6X0.25001*%
%ADD13R,0.25001X0.65001*%
%ADD14R,0.25001X0.6*%
%ADD15R,0.25001X3.39999*%
%ADD16R,0.33X3.39999*%
%ADD17R,0.8094X0.9*%
%ADD18R,0.8X0.9*%
G75*


G04 PolygonModel Start*
G36*
G01X1054503Y486000D02*
G01X1054503Y613998D01*
G01X1059504Y618999D01*
G01X1174505Y618999D01*
G01X1179504Y613998D01*
G01X1180007Y572995D01*
G01X1135005Y572995D01*
G01X1135005Y527996D01*
G01X1179006Y527996D01*
G01X1179504Y486000D01*
G01X1174505Y480998D01*
G01X1059504Y480998D01*
G01X1054503Y486000D01*
G37*
G36*
G01X1395498Y614000D02*
G01X1395498Y486002D01*
G01X1390496Y481001D01*
G01X1275495Y481001D01*
G01X1270497Y486002D01*
G01X1269994Y527005D01*
G01X1314995Y527005D01*
G01X1314995Y572004D01*
G01X1270994Y572004D01*
G01X1270497Y614000D01*
G01X1275495Y619002D01*
G01X1390496Y619002D01*
G01X1395498Y614000D01*
G37*
G36*
G01X2716068Y379502D02*
G01X2588070Y379502D01*
G01X2583068Y384504D01*
G01X2583068Y499505D01*
G01X2588070Y504503D01*
G01X2629073Y505006D01*
G01X2629073Y460005D01*
G01X2674071Y460005D01*
G01X2674071Y504006D01*
G01X2716068Y504503D01*
G01X2721069Y499505D01*
G01X2721069Y384504D01*
G01X2716068Y379502D01*
G37*
G36*
G01X2588067Y720497D02*
G01X2716065Y720497D01*
G01X2721066Y715496D01*
G01X2721066Y600495D01*
G01X2716065Y595496D01*
G01X2675062Y594993D01*
G01X2675062Y639995D01*
G01X2630063Y639995D01*
G01X2630063Y595994D01*
G01X2588067Y595496D01*
G01X2583066Y600495D01*
G01X2583066Y715496D01*
G01X2588067Y720497D01*
G37*
G36*
G01X3250109Y3421499D02*
G01X3122111Y3421499D01*
G01X3117110Y3426501D01*
G01X3117110Y3541502D01*
G01X3122111Y3546500D01*
G01X3163114Y3547003D01*
G01X3163114Y3502002D01*
G01X3208113Y3502002D01*
G01X3208113Y3546003D01*
G01X3250109Y3546500D01*
G01X3255110Y3541502D01*
G01X3255110Y3426501D01*
G01X3250109Y3421499D01*
G37*
G36*
G01X3122108Y3762494D02*
G01X3250107Y3762494D01*
G01X3255108Y3757493D01*
G01X3255108Y3642492D01*
G01X3250107Y3637493D01*
G01X3209103Y3636990D01*
G01X3209103Y3681992D01*
G01X3164105Y3681992D01*
G01X3164105Y3637991D01*
G01X3122108Y3637493D01*
G01X3117107Y3642492D01*
G01X3117107Y3757493D01*
G01X3122108Y3762494D01*
G37*
G36*
G01X1587822Y2570653D02*
G01X1459824Y2570653D01*
G01X1454823Y2575654D01*
G01X1454823Y2690655D01*
G01X1459824Y2695654D01*
G01X1500827Y2696157D01*
G01X1500827Y2651156D01*
G01X1545826Y2651156D01*
G01X1545826Y2695156D01*
G01X1587822Y2695654D01*
G01X1592823Y2690655D01*
G01X1592823Y2575654D01*
G01X1587822Y2570653D01*
G37*
G36*
G01X1587822Y2785654D02*
G01X1545826Y2785656D01*
G01X1545826Y2830155D01*
G01X1500827Y2830155D01*
G01X1500827Y2786157D01*
G01X1459824Y2785654D01*
G01X1454823Y2790655D01*
G01X1454823Y2905654D01*
G01X1459824Y2910655D01*
G01X1587822Y2910655D01*
G01X1592823Y2905654D01*
G01X1592823Y2790655D01*
G01X1587822Y2785654D01*
G37*
G36*
G01X2749436Y1921412D02*
G01X2877434Y1921412D01*
G01X2882435Y1916410D01*
G01X2882435Y1801409D01*
G01X2877434Y1796411D01*
G01X2836431Y1795908D01*
G01X2836431Y1840909D01*
G01X2791432Y1840909D01*
G01X2791432Y1796909D01*
G01X2749436Y1796411D01*
G01X2744434Y1801409D01*
G01X2744434Y1916410D01*
G01X2749436Y1921412D01*
G37*
G36*
G01X2749436Y1706411D02*
G01X2791432Y1706408D01*
G01X2791432Y1661910D01*
G01X2836431Y1661910D01*
G01X2836431Y1705908D01*
G01X2877434Y1706411D01*
G01X2882435Y1701410D01*
G01X2882435Y1586411D01*
G01X2877434Y1581410D01*
G01X2749436Y1581410D01*
G01X2744434Y1586411D01*
G01X2744434Y1701410D01*
G01X2749436Y1706411D01*
G37*
G36*
G01X1541033Y1323971D02*
G01X1541033Y1451970D01*
G01X1546035Y1456971D01*
G01X1661036Y1456971D01*
G01X1666035Y1451970D01*
G01X1666537Y1410966D01*
G01X1621536Y1410966D01*
G01X1621536Y1365968D01*
G01X1665537Y1365968D01*
G01X1666035Y1323971D01*
G01X1661036Y1318970D01*
G01X1546035Y1318970D01*
G01X1541033Y1323971D01*
G37*
G36*
G01X1756034Y1323971D02*
G01X1756037Y1365968D01*
G01X1800535Y1365968D01*
G01X1800535Y1410966D01*
G01X1756537Y1410966D01*
G01X1756034Y1451970D01*
G01X1761036Y1456971D01*
G01X1876034Y1456971D01*
G01X1881035Y1451970D01*
G01X1881035Y1323971D01*
G01X1876034Y1318970D01*
G01X1761036Y1318970D01*
G01X1756034Y1323971D01*
G37*
G36*
G01X1375967Y3102996D02*
G01X1375967Y3230995D01*
G01X1380968Y3235996D01*
G01X1495969Y3235996D01*
G01X1500968Y3230995D01*
G01X1501471Y3189991D01*
G01X1456470Y3189991D01*
G01X1456470Y3144993D01*
G01X1500470Y3144993D01*
G01X1500968Y3102996D01*
G01X1495969Y3097995D01*
G01X1380968Y3097995D01*
G01X1375967Y3102996D01*
G37*
G36*
G01X1590968Y3102996D02*
G01X1590970Y3144993D01*
G01X1635469Y3144993D01*
G01X1635469Y3189991D01*
G01X1591471Y3189991D01*
G01X1590968Y3230995D01*
G01X1595969Y3235996D01*
G01X1710968Y3235996D01*
G01X1715969Y3230995D01*
G01X1715969Y3102996D01*
G01X1710968Y3097995D01*
G01X1595969Y3097995D01*
G01X1590968Y3102996D01*
G37*
G36*
G01X1508500Y2236067D02*
G01X1508500Y2364066D01*
G01X1513501Y2369067D01*
G01X1628502Y2369067D01*
G01X1633501Y2364066D01*
G01X1634004Y2323062D01*
G01X1589003Y2323062D01*
G01X1589003Y2278064D01*
G01X1633003Y2278064D01*
G01X1633501Y2236067D01*
G01X1628502Y2231066D01*
G01X1513501Y2231066D01*
G01X1508500Y2236067D01*
G37*
G36*
G01X1723501Y2236067D02*
G01X1723504Y2278064D01*
G01X1768002Y2278064D01*
G01X1768002Y2323062D01*
G01X1724004Y2323062D01*
G01X1723501Y2364066D01*
G01X1728502Y2369067D01*
G01X1843501Y2369067D01*
G01X1848502Y2364066D01*
G01X1848502Y2236067D01*
G01X1843501Y2231066D01*
G01X1728502Y2231066D01*
G01X1723501Y2236067D01*
G37*
G36*
G01X1544746Y4220919D02*
G01X1544746Y4092920D01*
G01X1539745Y4087919D01*
G01X1424744Y4087919D01*
G01X1419745Y4092920D01*
G01X1419242Y4133924D01*
G01X1464243Y4133924D01*
G01X1464243Y4178922D01*
G01X1420243Y4178922D01*
G01X1419745Y4220919D01*
G01X1424744Y4225920D01*
G01X1539745Y4225920D01*
G01X1544746Y4220919D01*
G37*
G36*
G01X1203751Y4092918D02*
G01X1203751Y4220916D01*
G01X1208752Y4225917D01*
G01X1323754Y4225917D01*
G01X1328752Y4220916D01*
G01X1329255Y4179913D01*
G01X1284254Y4179913D01*
G01X1284254Y4134914D01*
G01X1328254Y4134914D01*
G01X1328752Y4092918D01*
G01X1323754Y4087917D01*
G01X1208752Y4087917D01*
G01X1203751Y4092918D01*
G37*
G36*
G01X2903968Y4092918D02*
G01X2903968Y4220916D01*
G01X2908969Y4225917D01*
G01X3023970Y4225917D01*
G01X3028969Y4220916D01*
G01X3029472Y4179913D01*
G01X2984471Y4179913D01*
G01X2984471Y4134914D01*
G01X3028471Y4134914D01*
G01X3028969Y4092918D01*
G01X3023970Y4087917D01*
G01X2908969Y4087917D01*
G01X2903968Y4092918D01*
G37*
G36*
G01X3244963Y4220919D02*
G01X3244963Y4092920D01*
G01X3239962Y4087919D01*
G01X3124961Y4087919D01*
G01X3119962Y4092920D01*
G01X3119459Y4133924D01*
G01X3164460Y4133924D01*
G01X3164460Y4178922D01*
G01X3120460Y4178922D01*
G01X3119962Y4220919D01*
G01X3124961Y4225920D01*
G01X3239962Y4225920D01*
G01X3244963Y4220919D01*
G37*
G36*
G01X2754502Y2136000D02*
G01X2754502Y2263998D01*
G01X2759504Y2268999D01*
G01X2874505Y2268999D01*
G01X2879504Y2263998D01*
G01X2880006Y2222995D01*
G01X2835005Y2222995D01*
G01X2835005Y2177996D01*
G01X2879006Y2177996D01*
G01X2879504Y2136000D01*
G01X2874505Y2130999D01*
G01X2759504Y2130999D01*
G01X2754502Y2136000D01*
G37*
G36*
G01X3095497Y2264001D02*
G01X3095497Y2136002D01*
G01X3090496Y2131001D01*
G01X2975495Y2131001D01*
G01X2970496Y2136002D01*
G01X2969994Y2177006D01*
G01X3014995Y2177006D01*
G01X3014995Y2222004D01*
G01X2970994Y2222004D01*
G01X2970496Y2264001D01*
G01X2975495Y2269002D01*
G01X3090496Y2269002D01*
G01X3095497Y2264001D01*
G37*
G36*
G01X1055790Y795315D02*
G01X1055790Y923313D01*
G01X1060792Y928314D01*
G01X1175793Y928314D01*
G01X1180791Y923313D01*
G01X1181294Y882310D01*
G01X1136293Y882310D01*
G01X1136293Y837311D01*
G01X1180294Y837311D01*
G01X1180791Y795315D01*
G01X1175793Y790313D01*
G01X1060792Y790313D01*
G01X1055790Y795315D01*
G37*
G36*
G01X1396785Y923315D02*
G01X1396785Y795317D01*
G01X1391784Y790316D01*
G01X1276783Y790316D01*
G01X1271784Y795317D01*
G01X1271281Y836320D01*
G01X1316283Y836320D01*
G01X1316283Y881319D01*
G01X1272282Y881319D01*
G01X1271784Y923315D01*
G01X1276783Y928317D01*
G01X1391784Y928317D01*
G01X1396785Y923315D01*
G37*
G36*
G01X2357778Y379502D02*
G01X2229779Y379502D01*
G01X2224778Y384504D01*
G01X2224778Y499505D01*
G01X2229779Y504503D01*
G01X2270783Y505006D01*
G01X2270783Y460005D01*
G01X2315781Y460005D01*
G01X2315781Y504006D01*
G01X2357778Y504503D01*
G01X2362779Y499505D01*
G01X2362779Y384504D01*
G01X2357778Y379502D01*
G37*
G36*
G01X2229777Y720497D02*
G01X2357775Y720497D01*
G01X2362776Y715496D01*
G01X2362776Y600495D01*
G01X2357775Y595496D01*
G01X2316772Y594993D01*
G01X2316772Y639995D01*
G01X2271773Y639995D01*
G01X2271773Y595994D01*
G01X2229777Y595496D01*
G01X2224776Y600495D01*
G01X2224776Y715496D01*
G01X2229777Y720497D01*
G37*
G36*
G01X2040737Y379502D02*
G01X1912739Y379502D01*
G01X1907738Y384504D01*
G01X1907738Y499505D01*
G01X1912739Y504503D01*
G01X1953742Y505006D01*
G01X1953742Y460005D01*
G01X1998741Y460005D01*
G01X1998741Y504006D01*
G01X2040737Y504503D01*
G01X2045738Y499505D01*
G01X2045738Y384504D01*
G01X2040737Y379502D01*
G37*
G36*
G01X1912736Y720497D02*
G01X2040735Y720497D01*
G01X2045736Y715496D01*
G01X2045736Y600495D01*
G01X2040735Y595496D01*
G01X1999731Y594993D01*
G01X1999731Y639995D01*
G01X1954733Y639995D01*
G01X1954733Y595994D01*
G01X1912736Y595496D01*
G01X1907735Y600495D01*
G01X1907735Y715496D01*
G01X1912736Y720497D01*
G37*
G36*
G01X3039001Y379502D02*
G01X2911002Y379502D01*
G01X2906001Y384504D01*
G01X2906001Y499505D01*
G01X2911002Y504503D01*
G01X2952006Y505006D01*
G01X2952006Y460005D01*
G01X2997004Y460005D01*
G01X2997004Y504006D01*
G01X3039001Y504503D01*
G01X3044002Y499505D01*
G01X3044002Y384504D01*
G01X3039001Y379502D01*
G37*
G36*
G01X2911000Y720497D02*
G01X3038998Y720497D01*
G01X3043999Y715496D01*
G01X3043999Y600495D01*
G01X3038998Y595496D01*
G01X2997995Y594993D01*
G01X2997995Y639995D01*
G01X2952996Y639995D01*
G01X2952996Y595994D01*
G01X2911000Y595496D01*
G01X2905999Y600495D01*
G01X2905999Y715496D01*
G01X2911000Y720497D01*
G37*
G36*
G01X1604855Y1743622D02*
G01X1684855Y1743622D01*
G01X1689856Y1748623D01*
G01X1689856Y1771420D01*
G01X1652856Y1771420D01*
G01X1652856Y1804420D01*
G01X1689856Y1804420D01*
G01X1689856Y1828623D01*
G01X1684855Y1833622D01*
G01X1604855Y1833622D01*
G01X1599857Y1828623D01*
G01X1599857Y1748623D01*
G01X1604855Y1743622D01*
G37*
G36*
G01X1843859Y1833619D02*
G01X1763859Y1833619D01*
G01X1758858Y1828618D01*
G01X1758858Y1805822D01*
G01X1795858Y1805822D01*
G01X1795858Y1772822D01*
G01X1758858Y1772822D01*
G01X1758858Y1748618D01*
G01X1763859Y1743620D01*
G01X1843859Y1743620D01*
G01X1848858Y1748618D01*
G01X1848858Y1828618D01*
G01X1843859Y1833619D01*
G37*
G36*
G01X2505289Y1474685D02*
G01X2377291Y1474685D01*
G01X2372289Y1479686D01*
G01X2372289Y1594687D01*
G01X2377291Y1599686D01*
G01X2418294Y1600189D01*
G01X2418294Y1555188D01*
G01X2463293Y1555188D01*
G01X2463293Y1599188D01*
G01X2505289Y1599686D01*
G01X2510290Y1594687D01*
G01X2510290Y1479686D01*
G01X2505289Y1474685D01*
G37*
G36*
G01X2505289Y1689686D02*
G01X2463293Y1689688D01*
G01X2463293Y1734187D01*
G01X2418294Y1734187D01*
G01X2418294Y1690189D01*
G01X2377291Y1689686D01*
G01X2372289Y1694687D01*
G01X2372289Y1809685D01*
G01X2377291Y1814687D01*
G01X2505289Y1814687D01*
G01X2510290Y1809685D01*
G01X2510290Y1694687D01*
G01X2505289Y1689686D01*
G37*
G36*
G01X2111000Y1820002D02*
G01X2238998Y1820002D01*
G01X2243999Y1815001D01*
G01X2243999Y1700000D01*
G01X2238998Y1695001D01*
G01X2197995Y1694498D01*
G01X2197995Y1739499D01*
G01X2152996Y1739499D01*
G01X2152996Y1695499D01*
G01X2111000Y1695001D01*
G01X2105998Y1700000D01*
G01X2105998Y1815001D01*
G01X2111000Y1820002D01*
G37*
G36*
G01X2111000Y1605001D02*
G01X2152996Y1604999D01*
G01X2152996Y1560501D01*
G01X2197995Y1560501D01*
G01X2197995Y1604498D01*
G01X2238998Y1605001D01*
G01X2243999Y1600000D01*
G01X2243999Y1485002D01*
G01X2238998Y1480000D01*
G01X2111000Y1480000D01*
G01X2105998Y1485002D01*
G01X2105998Y1600000D01*
G01X2111000Y1605001D01*
G37*

G04 Pad Start*
G54D10*
G01X4116987Y2174988D03*
G01X3583003Y2174988D03*
G01X4116987Y1349987D03*
G01X3583003Y1349987D03*
G54D11*
G01X2442006Y3945000D03*
G01X2037994Y3945000D03*
G54D12*
G01X2010001Y3025006D03*
G01X2010001Y2974994D03*
G01X2010001Y2925007D03*
G01X2010001Y2874994D03*
G54D13*
G01X2046000Y2812500D03*
G54D14*
G01X2096013Y2810000D03*
G54D15*
G01X2146000Y2950000D03*
G01X2196012Y2950000D03*
G54D16*
G01X2250000Y2950000D03*
G54D15*
G01X2304013Y2950000D03*
G01X2354000Y2950000D03*
G54D14*
G01X2404013Y2810000D03*
G54D13*
G01X2454000Y2812500D03*
G54D12*
G01X2490000Y2874994D03*
G01X2490000Y2925007D03*
G01X2490000Y2974994D03*
G01X2490000Y3025006D03*
G54D13*
G01X2454000Y3087501D03*
G54D14*
G01X2404013Y3090000D03*
G54D13*
G01X2046000Y3087501D03*
G54D14*
G01X2095987Y3090000D03*
G54D18*
G01X2958098Y1248227D03*
G01X2818094Y1248227D03*
G54D10*
G01X458013Y2100013D03*
G01X991997Y2100013D03*
G01X458013Y1350013D03*
G01X991997Y1350013D03*
G04 Pad End*

M02*

