G04 Layer: TopSolderMaskLayer*
G04 EasyEDA Pro v2.2.43.2, 2025-10-20 22:01:10*
G04 Gerber Generator version 0.3*
G04 Scale: 100 percent, Rotated: No, Reflected: No*
G04 Dimensions in millimeters*
G04 Leading zeros omitted, absolute positions, 4 integers and 5 decimals*
G04 Generated by one-click*
%FSLAX45Y45*%
%MOMM*%
%AMRoundRect*1,1,$1,$2,$3*1,1,$1,$4,$5*1,1,$1,0-$2,0-$3*1,1,$1,0-$4,0-$5*20,1,$1,$2,$3,$4,$5,0*20,1,$1,$4,$5,0-$2,0-$3,0*20,1,$1,0-$2,0-$3,0-$4,0-$5,0*20,1,$1,0-$4,0-$5,$2,$3,0*4,1,4,$2,$3,$4,$5,0-$2,0-$3,0-$4,0-$5,$2,$3,0*%
%ADD10RoundRect,0.09495X-0.70833X0.67833X0.70833X0.67833*%
%ADD11RoundRect,0.09424X-1.75367X0.60368X1.75367X0.60368*%
%ADD12RoundRect,0.09495X-0.67833X-0.70833X-0.67833X0.70833*%
%ADD13O,1.9016X4.30159*%
%ADD14O,1.9016X4.10159*%
%ADD15O,4.10159X1.9016*%
%ADD16RoundRect,0.09516X-0.70322X2.75321X0.70322X2.75321*%
%ADD17RoundRect,0.07882X-0.31139X0.13639X0.31139X0.13639*%
%ADD18RoundRect,0.0822X-0.13639X0.33639X0.13639X0.33639*%
%ADD19RoundRect,0.07882X-0.13639X0.33639X0.13639X0.33639*%
%ADD20RoundRect,0.07882X-0.13639X0.31139X0.13639X0.31139*%
%ADD21RoundRect,0.07882X-0.13639X1.71138X0.13639X1.71138*%
%ADD22RoundRect,0.08224X-0.17468X1.70968X0.17468X1.70968*%
%ADD23C,7.6016*%
%ADD24RoundRect,0.09387X-0.69237X-0.57013X-0.69237X0.57013*%
%ADD25RoundRect,0.09387X-0.57013X0.69237X0.57013X0.69237*%
%ADD26RoundRect,0.09131X-0.40514X0.45514X0.40514X0.45514*%
%ADD27RoundRect,0.09138X-0.40835X0.43711X0.40835X0.43711*%
G75*


G04 Pad Start*
G54D10*
G01X1325000Y550000D03*
G01X1125000Y550000D03*
G54D11*
G01X4116987Y2174988D03*
G01X3583003Y2174988D03*
G01X4116987Y1349987D03*
G01X3583003Y1349987D03*
G54D12*
G01X2652067Y650000D03*
G01X2652067Y450000D03*
G54D13*
G01X1149999Y3060166D03*
G54D14*
G01X550001Y3060166D03*
G54D15*
G01X849975Y2589834D03*
G54D13*
G01X3325001Y3064834D03*
G54D14*
G01X3925000Y3064834D03*
G54D15*
G01X3625026Y3535166D03*
G54D16*
G01X2442006Y3945000D03*
G01X2037994Y3945000D03*
G54D17*
G01X2010001Y3025006D03*
G01X2010001Y2974994D03*
G01X2010001Y2925007D03*
G01X2010001Y2874994D03*
G54D19*
G01X2046000Y2812500D03*
G54D20*
G01X2096013Y2810000D03*
G54D21*
G01X2146000Y2950000D03*
G01X2196012Y2950000D03*
G54D22*
G01X2250000Y2950000D03*
G54D21*
G01X2304013Y2950000D03*
G01X2354000Y2950000D03*
G54D20*
G01X2404013Y2810000D03*
G54D19*
G01X2454000Y2812500D03*
G54D17*
G01X2490000Y2874994D03*
G01X2490000Y2925007D03*
G01X2490000Y2974994D03*
G01X2490000Y3025006D03*
G54D19*
G01X2454000Y3087501D03*
G54D20*
G01X2404013Y3090000D03*
G54D19*
G01X2046000Y3087501D03*
G54D20*
G01X2095987Y3090000D03*
G54D23*
G01X500000Y500000D03*
G01X500000Y4000000D03*
G01X4000000Y4000000D03*
G01X4000000Y500000D03*
G54D12*
G01X3186109Y3691997D03*
G01X3186109Y3491997D03*
G54D24*
G01X1523822Y2840655D03*
G01X1523822Y2640655D03*
G01X2813436Y1651410D03*
G01X2813436Y1851409D03*
G54D25*
G01X1811035Y1387972D03*
G01X1611036Y1387972D03*
G01X1645969Y3166997D03*
G01X1445969Y3166997D03*
G01X1778502Y2300068D03*
G01X1578503Y2300068D03*
G54D10*
G01X1274249Y4156918D03*
G01X1474249Y4156918D03*
G01X3174465Y4156918D03*
G01X2974466Y4156918D03*
G54D26*
G01X2958098Y1248227D03*
G01X2818094Y1248227D03*
G54D10*
G01X3025000Y2200000D03*
G01X2825000Y2200000D03*
G54D11*
G01X458013Y2100013D03*
G01X991997Y2100013D03*
G01X458013Y1350013D03*
G01X991997Y1350013D03*
G54D10*
G01X1326288Y859315D03*
G01X1126288Y859315D03*
G54D12*
G01X2293777Y650000D03*
G01X2293777Y450000D03*
G01X1976737Y650000D03*
G01X1976737Y450000D03*
G01X2975000Y650000D03*
G01X2975000Y450000D03*
G54D27*
G01X1649021Y1788621D03*
G01X1799694Y1788621D03*
G54D24*
G01X2441288Y1744687D03*
G01X2441288Y1544687D03*
G01X2175000Y1550000D03*
G01X2175000Y1750000D03*
G04 Pad End*

M02*

