G04 Layer: DrillDrawingLayer*
G04 EasyEDA Pro v2.2.43.4, 2025-10-30 16:07:04*
G04 Gerber Generator version 0.3*
G04 Scale: 100 percent, Rotated: No, Reflected: No*
G04 Dimensions in millimeters*
G04 Leading zeros omitted, absolute positions, 4 integers and 5 decimals*
G04 Generated by one-click*
%FSLAX45Y45*%
%MOMM*%
%AMIconRect*4,1,4,0.2,-0.2,-0.2,-0.2,-0.2,0.2,0.2,0.2,0.2,-0.2,0*4,0,4,0.166667,-0.166667,0.166667,0.166667,-0.166667,0.166667,-0.166667,-0.166667,0.166667,-0.166667,0*%
%AMIconTriangle*4,1,3,-0.242567,0.171767,0.242567,0.171767,0,-0.2706,-0.242567,0.171767,0*4,0,3,-0.189767,0.1386,0,-0.1953,0.190167,0.1386,-0.189767,0.1386,0*%
%AMIconStar6*4,1,12,0.0862,0.1492,0.213233,0.123367,0.172367,0,0.213233,-0.1229,0.0862,-0.148733,0,-0.245767,-0.085767,-0.148733,-0.213267,-0.1229,-0.171933,0,-0.213267,0.1229,-0.085767,0.1492,0,0.245767,0.0862,0.1492,0*4,0,12,-0.000333,0.195333,-0.064333,0.122667,-0.169667,0.097667,-0.138333,-0.005333,-0.169667,-0.098,-0.064333,-0.122667,-0.000333,-0.195667,0.064333,-0.122667,0.169667,-0.098,0.138667,0.005,0.169667,0.098,0.064333,0.122333,-0.000333,0.195333,0*%
%AMIconStar4*4,1,8,-0.222667,0.222667,0,0.144667,0.222667,0.222667,0.144667,0,0.222667,-0.222667,0,-0.144667,-0.217433,-0.222667,-0.144667,0,-0.222667,0.222667,0*4,0,8,0.166667,-0.166667,0.108,0,0.166667,0.166667,0,0.108,-0.166667,0.166667,-0.108,0,-0.166667,-0.166667,0,-0.108,0.166667,-0.166667,0*%
%ADD10IconRect*%
%ADD11C,0.44X0.373333*%
%ADD12IconTriangle*%
%ADD13IconStar6*%
%ADD14IconStar4*%
G75*


G04 Drill Drawing Start*
G54D10*
G01X1149994Y3060166D03*
G01X3325006Y3064834D03*
G54D11*
G01X550001Y3060166D03*
G01X849975Y2589834D03*
G01X3625026Y3535166D03*
G01X3925000Y3064834D03*
G54D12*
G01X500000Y500000D03*
G01X500000Y4000000D03*
G01X4000000Y500000D03*
G01X4000000Y4000000D03*
G54D13*
G01X1573000Y1275000D03*
G01X1827000Y1529000D03*
G01X1827000Y1021000D03*
G01X2698000Y1021000D03*
G01X2698000Y1529000D03*
G01X2952000Y1275000D03*
G54D14*
G01X225000Y2100000D03*
G01X232462Y1349199D03*
G01X553654Y1061654D03*
G01X553654Y1569654D03*
G01X553654Y2585654D03*
G01X929300Y875000D03*
G01X1225000Y2357995D03*
G01X1225000Y2450000D03*
G01X1250000Y1550000D03*
G01X1275000Y3085166D03*
G01X1450000Y2300001D03*
G01X1569654Y1569654D03*
G01X1569654Y2077654D03*
G01X1650001Y2530002D03*
G01X1825000Y2025000D03*
G01X1825000Y3075000D03*
G01X1977067Y127000D03*
G01X2028742Y3326172D03*
G01X2077654Y3601654D03*
G01X2122172Y3232743D03*
G01X2250001Y2445001D03*
G01X2300000Y127000D03*
G01X2366213Y3244602D03*
G01X2430001Y2450001D03*
G01X2437800Y3310500D03*
G01X2585654Y4109654D03*
G01X2650000Y127000D03*
G01X2750000Y3025006D03*
G01X2975000Y125000D03*
G01X2975001Y3289834D03*
G01X3075000Y1975000D03*
G01X3093654Y1061654D03*
G01X3093654Y1569654D03*
G01X3093654Y2585654D03*
G01X3325000Y3675000D03*
G01X3375000Y1350000D03*
G01X3384260Y2175026D03*
G01X3601654Y1061654D03*
G01X3601654Y2585654D03*
G01X3601654Y3093654D03*
G01X4109654Y1061654D03*
G01X4109654Y1569654D03*
G01X4109654Y2077654D03*
G01X4109654Y2585654D03*
G01X4109654Y3093654D03*
G01X4350000Y1349987D03*
G01X4350000Y2174988D03*
G04 Drill Drawing End*

M02*

